<?xml version="1.0" encoding="utf-8"?>
<!-- Generator: Adobe Illustrator 16.0.0, SVG Export Plug-In . SVG Version: 6.00 Build 0)  -->
<!DOCTYPE svg PUBLIC "-//W3C//DTD SVG 1.0//EN" "http://www.w3.org/TR/2001/REC-SVG-20010904/DTD/svg10.dtd">
<svg version="1.0" id="Calque_1" xmlns="http://www.w3.org/2000/svg" xmlns:xlink="http://www.w3.org/1999/xlink" x="0px" y="0px"
	 width="112.5pt" height="112.5pt" viewBox="-127 0 871.471 671.47" enable-background="new 0 0 595.28 671.471"
	 xml:space="preserve">
<g>
	<path fill="#d52b1e" d="M595.275,607.973c0,35.069-28.432,63.498-63.499,63.498H63.5c-35.074,0-63.5-28.429-63.5-63.498V63.499
		C0,28.428,28.426,0,63.5,0h468.277c35.067,0,63.499,28.429,63.499,63.5V607.973z"/>
	<g>
		<g>
			<path fill="#FFFFFF" d="M85.721,613.476v-4.693l26.473-0.025v14.841c-4.065,2.076-8.257,3.635-12.576,4.681
				c-4.319,1.043-8.753,1.568-13.301,1.568c-6.139,0-11.717-0.841-16.734-2.524c-5.017-1.684-8.802-4.114-11.36-7.298
				c-2.558-3.186-3.839-6.742-3.839-10.669c0-3.892,1.271-7.526,3.817-10.899c2.542-3.376,6.204-5.881,10.979-7.518
				c4.774-1.637,10.272-2.456,16.498-2.456c4.518,0,8.604,0.468,12.257,1.404c3.652,0.938,6.514,2.245,8.591,3.915
				c2.075,1.676,3.649,3.856,4.732,6.549l-7.46,1.311c-0.94-2.036-2.105-3.64-3.498-4.803c-1.392-1.164-3.383-2.095-5.969-2.795
				c-2.585-0.7-5.457-1.052-8.61-1.052c-3.783,0-7.051,0.369-9.807,1.104c-2.757,0.737-4.982,1.705-6.672,2.908
				c-1.69,1.2-3.005,2.517-3.944,3.956c-1.59,2.474-2.387,5.156-2.387,8.049c0,3.566,0.961,6.549,2.876,8.948
				c1.92,2.399,4.713,4.183,8.378,5.348c3.668,1.162,7.562,1.746,11.683,1.746c3.581,0,7.076-0.439,10.486-1.323
				c3.411-0.882,5.997-1.824,7.761-2.824v-7.448H85.721z"/>
			<path fill="#FFFFFF" d="M162.838,629.164l24.001-39.999h8.911l25.58,39.999h-9.422l-7.29-12.113h-26.135l-6.861,12.113H162.838z
				 M180.871,612.738h21.189l-6.523-11.077c-1.987-3.366-3.467-6.129-4.434-8.296c-0.794,2.566-1.917,5.112-3.368,7.639
				L180.871,612.738z"/>
			<path fill="#FFFFFF" d="M272.998,629.164v-39.999h12.448l14.792,28.323c1.365,2.636,2.361,4.609,2.987,5.919
				c0.71-1.456,1.815-3.592,3.323-6.412l14.963-27.83h11.129v39.999h-7.973v-33.479l-18.162,33.479h-7.46l-18.077-34.05v34.05
				H272.998z"/>
			<path fill="#FFFFFF" d="M391.47,629.164v-39.999h45.19v4.721h-36.921v12.251h34.577v4.691h-34.577v13.616h38.369v4.72H391.47z"/>
			<path fill="#FFFFFF" d="M492.036,616.312l7.801-0.437c0.369,2.004,1.231,3.645,2.58,4.928c1.35,1.279,3.444,2.319,6.287,3.109
				c2.844,0.79,6.041,1.188,9.595,1.188c3.152,0,5.939-0.303,8.354-0.903c2.417-0.6,4.214-1.422,5.393-2.468
				c1.181-1.046,1.771-2.188,1.771-3.424c0-1.255-0.571-2.353-1.705-3.289c-1.139-0.937-3.015-1.725-5.627-2.36
				c-1.678-0.418-5.387-1.069-11.129-1.949c-5.742-0.884-9.764-1.715-12.064-2.497c-2.985-1-5.208-2.241-6.672-3.726
				c-1.464-1.482-2.195-3.141-2.195-4.98c0-2.02,0.896-3.903,2.686-5.661c1.792-1.756,4.405-3.084,7.844-3.997
				c3.438-0.907,7.262-1.363,11.469-1.363c4.632,0,8.719,0.478,12.257,1.432c3.538,0.956,6.26,2.36,8.164,4.218
				c1.904,1.853,2.927,3.956,3.069,6.303l-7.928,0.38c-0.429-2.527-1.87-4.439-4.329-5.729c-2.459-1.292-6.089-1.938-10.892-1.938
				c-5.004,0-8.648,0.585-10.937,1.762c-2.287,1.17-3.432,2.584-3.432,4.24c0,1.438,0.809,2.62,2.431,3.547
				c1.59,0.927,5.748,1.879,12.471,2.853c6.722,0.975,11.332,1.823,13.834,2.55c3.637,1.074,6.322,2.434,8.056,4.08
				s2.602,3.543,2.602,5.689c0,2.126-0.952,4.133-2.856,6.016c-1.903,1.881-4.641,3.348-8.207,4.394
				c-3.565,1.043-7.58,1.568-12.042,1.568c-5.659,0-10.396-0.527-14.219-1.582c-3.824-1.058-6.821-2.642-8.995-4.762
				C493.295,621.384,492.148,618.988,492.036,616.312z"/>
		</g>
		<g>
			<path fill="#FFFFFF" d="M122.596,538.253l34.726,4.663c-4.465,10.185-11.513,17.943-21.146,23.267
				c-9.631,5.323-21.683,7.986-36.153,7.986c-22.9,0-39.852-5.987-50.849-17.957c-8.681-9.59-13.022-21.694-13.022-36.313
				c0-17.464,5.705-31.141,17.115-41.027c11.41-9.889,25.84-14.834,43.284-14.834c19.596,0,35.058,5.176,46.384,15.528
				c11.33,10.354,16.743,26.209,16.247,47.574H71.871c0.248,8.27,3.06,14.701,8.434,19.299c5.376,4.599,12.073,6.896,20.091,6.896
				c5.458,0,10.046-1.192,13.767-3.572C117.883,547.381,120.695,543.546,122.596,538.253z M124.58,510.074
				c-0.248-8.07-2.853-14.204-7.813-18.404c-4.961-4.201-10.995-6.301-18.107-6.301c-7.606,0-13.891,2.218-18.852,6.648
				s-7.398,10.452-7.317,18.057H124.58z"/>
			<path fill="#FFFFFF" d="M288.063,571.789h-32.37V556.31c-5.376,6.019-11.72,10.503-19.037,13.445
				c-7.317,2.941-14.697,4.414-22.138,4.414c-15.131,0-28.091-4.877-38.881-14.635c-10.79-9.756-16.185-23.364-16.185-40.828
				c0-17.859,5.25-31.435,15.751-40.729c10.499-9.291,23.769-13.94,39.811-13.94c14.715,0,27.449,4.896,38.199,14.686v-52.388
				h34.851V571.789z M195.046,516.822c0,11.246,1.941,19.381,5.83,24.408c5.621,7.276,13.475,10.912,23.564,10.912
				c8.018,0,14.839-2.727,20.464-8.186c5.621-5.456,8.433-13.608,8.433-24.457c0-12.104-2.728-20.82-8.186-26.145
				c-5.457-5.321-12.445-7.986-20.959-7.986c-8.269,0-15.193,2.63-20.773,7.889C197.837,498.516,195.046,506.369,195.046,516.822z"
				/>
			<path fill="#FFFFFF" d="M378.369,538.253l34.728,4.663c-4.466,10.185-11.516,17.943-21.146,23.267
				c-9.633,5.323-21.686,7.986-36.152,7.986c-22.904,0-39.854-5.987-50.849-17.957c-8.682-9.59-13.023-21.694-13.023-36.313
				c0-17.464,5.705-31.141,17.116-41.027c11.41-9.889,25.837-14.834,43.283-14.834c19.596,0,35.055,5.176,46.385,15.528
				c11.326,10.354,16.743,26.209,16.247,47.574h-87.312c0.247,8.27,3.057,14.701,8.433,19.299
				c5.374,4.599,12.071,6.896,20.092,6.896c5.457,0,10.046-1.192,13.767-3.572C373.657,547.381,376.467,543.546,378.369,538.253z
				 M380.354,510.074c-0.248-8.07-2.853-14.204-7.813-18.404c-4.961-4.201-10.998-6.301-18.107-6.301
				c-7.608,0-13.891,2.218-18.852,6.648s-7.4,10.452-7.317,18.057H380.354z"/>
			<path fill="#FFFFFF" d="M542.846,571.789h-34.852v-53.777c0-11.375-0.743-18.735-2.231-22.075s-3.907-5.938-7.256-7.789
				c-3.349-1.852-7.379-2.778-12.092-2.778c-6.037,0-11.453,1.325-16.247,3.97c-4.796,2.644-8.083,6.151-9.859,10.517
				c-1.78,4.366-2.667,12.437-2.667,24.21v47.724h-34.85v-105.37h32.369v15.478c11.491-11.905,25.961-17.859,43.408-17.859
				c7.688,0,14.715,1.108,21.084,3.324c6.365,2.217,11.18,5.045,14.448,8.484c3.265,3.438,5.537,7.341,6.821,11.706
				c1.28,4.366,1.923,10.616,1.923,18.753V571.789z"/>
		</g>
		<g>
			<path fill="#FFFFFF" d="M136.25,102.849c-8.446,10.125-7.397,20.96,3.138,23.783l0,0c10.963,2.937,26.969-4.094,34.912-15.21l0,0
				c7.491-10.475,16.477-19.533,26.317-27.089l0,0c9.525-7.306,20.055-13.382,31.062-18.063l0,0
				c21.661-9.219,46.639-13.602,71.512-10.995l0,0c11.037,1.157,21.486,3.598,31.16,7.178l0,0
				c10.114,3.745,19.49,8.764,27.849,14.918l0,0c8.831,6.491,16.582,14.306,22.826,23.239l0,0
				c6.654,9.514,11.634,20.352,14.313,32.201l0,0c-11.956-2.256-25.815-4.871-39.594-7.471l0,0
				c-13.301-2.51-26.51-5.005-38.031-7.181l0,0c-21.989-4.152-38.273-7.227-38.273-7.227l0,0
				c-14.467-2.734-30.472,4.542-36.63,16.828l0,0c-6.561,13.097,0.049,27.66,15.844,31.885l0,0l180.024,48.215l0,0
				c26.938,7.224,48.275-4.833,46.229-25.547l0,0c-1.414-14.355-4.62-27.889-9.246-40.466l0,0
				c-4.341-11.799-9.935-22.766-16.495-32.821l0,0c-6.164-9.474-13.201-18.152-20.885-26.017l0,0
				c-7.262-7.429-15.125-14.153-23.428-20.129l0,0c-7.889-5.68-16.21-10.717-24.83-15.084l0,0
				c-8.241-4.173-16.811-7.762-25.604-10.731l0,0c-8.465-2.851-17.189-5.159-26.119-6.883l0,0
				c-8.646-1.675-17.525-2.811-26.604-3.391l0,0c-17.505-1.107-34.577-0.033-50.78,2.796l0,0
				c-15.962,2.771-31.583,7.328-46.354,13.407l0,0c-14.981,6.163-29.529,14.082-43.004,23.617l0,0
				C161.465,76.589,148.088,88.65,136.25,102.849z"/>
			<path fill="#FFFFFF" d="M370.249,227.204c-19.712,20.621-46.104,34.646-74.853,40.422l0,0c-14.262,2.874-28.717,3.6-42.806,2.16
				l0,0c-13.772-1.414-26.95-4.88-39.048-10.337l0,0c-11.646-5.249-21.753-12.104-30.162-20.109l0,0
				c-8.024-7.632-14.443-16.251-19.217-25.496l0,0c-4.521-8.768-7.553-18.065-9.066-27.588l0,0
				c-1.426-9.037-1.5-18.278-0.204-27.517l0,0c1.878-13.424-8.366-20.869-22.684-17.544l0,0
				c-14.238,3.313-28.705,16.402-32.63,30.164l0,0c-2.015,7.04-3.584,14.189-4.675,21.4l0,0c-1.147,7.488-1.786,15.05-1.916,22.656
				l0,0c-0.13,7.913,0.304,15.858,1.32,23.792l0,0c1.061,8.266,2.754,16.515,5.104,24.666l0,0c2.443,8.499,5.605,16.889,9.5,25.081
				l0,0c4.049,8.54,8.898,16.857,14.554,24.833l0,0c5.878,8.302,12.619,16.217,20.215,23.622l0,0
				c7.894,7.692,16.681,14.786,26.343,21.14l0,0c10.002,6.585,20.718,12.226,32.028,16.857l0,0
				c11.633,4.772,23.825,8.44,36.431,10.97l0,0c26.027,5.237,53.193,5.491,80.119,0.698l0,0
				c27.21-4.836,53.255-14.656,76.739-29.027l0,0c22.926-14.027,42.656-31.933,58.209-52.903l0,0
				c7.696-10.384,8.861-24.423,4.831-38.248l0,0c-3.82-13.095-12.247-25.868-24.122-35.5l0,0
				C412.269,213.552,384.717,212.083,370.249,227.204z"/>
		</g>
	</g>
</g>
</svg>
