<?xml version="1.0" standalone="no"?>
<!DOCTYPE svg PUBLIC "-//W3C//DTD SVG 20010904//EN"
 "http://www.w3.org/TR/2001/REC-SVG-20010904/DTD/svg10.dtd">
<svg version="1.0" xmlns="http://www.w3.org/2000/svg"
 width="112.5pt" height="112.5pt" viewBox="0 0 260.000000 260.000000"
 preserveAspectRatio="xMidYMid meet">

<g transform="translate(0.000000,260.000000) scale(0.100000,-0.100000)"
fill="#000000" stroke="none">
<path d="M1038 1505 c-9 -19 -19 -25 -45 -25 l-33 0 0 -195 0 -196 88 3 87 3
0 30 c0 29 -2 30 -52 33 l-53 3 0 50 0 49 35 0 c32 0 35 2 35 30 0 28 -3 30
-35 30 l-35 0 0 50 0 50 55 0 c54 0 55 0 55 30 0 27 -3 30 -32 30 -29 0 -30 1
-15 18 24 26 21 32 -13 32 -23 0 -33 -6 -42 -25z"/>
<path d="M1700 1523 c0 -3 7 -15 17 -25 15 -17 14 -18 -15 -18 l-32 0 0 -195
0 -196 88 3 87 3 3 33 3 32 -55 0 -56 0 0 50 0 50 35 0 c32 0 35 2 35 30 0 28
-3 30 -35 30 l-35 0 0 50 0 50 55 0 c54 0 55 0 55 30 0 27 -3 30 -33 30 -26 0
-36 6 -45 25 -9 19 -19 25 -42 25 -16 0 -30 -3 -30 -7z"/>
<path d="M1208 1461 l-33 -29 -3 -118 c-6 -178 18 -227 107 -226 67 1 101 37
101 105 0 32 -1 33 -34 29 -31 -4 -35 -8 -38 -36 -3 -27 -7 -31 -33 -31 l-30
0 -3 127 c-2 117 -1 128 17 137 29 16 51 3 51 -30 0 -27 3 -29 36 -29 l37 0
-6 42 c-12 87 -103 118 -169 59z"/>
<path d="M1471 1476 c-43 -24 -50 -52 -51 -193 0 -127 1 -132 26 -162 22 -26
33 -31 71 -31 93 0 113 34 113 193 0 63 -5 128 -11 146 -19 53 -93 77 -148 47z
m89 -191 c0 -124 0 -125 -24 -131 -14 -3 -30 -3 -35 1 -7 4 -11 54 -11 130 0
107 2 125 17 134 11 6 24 6 35 0 16 -9 18 -25 18 -134z"/>
<path d="M320 1285 l0 -195 69 0 c72 0 81 6 81 51 0 16 -7 19 -40 19 l-40 0 0
160 0 160 -35 0 -35 0 0 -195z"/>
<path d="M542 1293 c-23 -104 -42 -191 -42 -195 0 -5 15 -8 34 -8 31 0 35 3
43 38 7 32 13 37 40 40 30 3 33 0 43 -37 10 -38 13 -41 46 -41 32 0 36 2 31
23 -3 12 -22 100 -43 195 l-37 172 -37 0 -37 0 -41 -187z m91 -20 c5 -38 3
-43 -15 -43 -16 0 -19 5 -14 23 3 12 6 35 6 52 0 42 16 19 23 -32z"/>
<path d="M710 1450 c0 -28 3 -30 35 -30 l35 0 2 -162 3 -163 33 -3 32 -3 0
165 0 166 35 0 c32 0 35 2 35 30 l0 30 -105 0 -105 0 0 -30z"/>
<path d="M1890 1285 l0 -195 30 0 30 0 0 85 0 85 28 0 c43 0 52 -17 52 -97 l0
-73 31 0 30 0 -5 93 c-6 121 -6 113 0 179 5 54 4 59 -24 88 -28 28 -36 30
-101 30 l-71 0 0 -195z m128 123 c7 -7 12 -24 12 -38 0 -34 -17 -50 -52 -50
-27 0 -28 2 -28 50 0 48 1 50 28 50 15 0 33 -5 40 -12z"/>
<path d="M2132 1288 l3 -193 88 -3 87 -3 0 33 0 33 -52 0 -53 0 -3 53 -3 52
40 0 c37 0 40 2 38 28 -2 23 -7 28 -37 32 -34 5 -35 7 -38 53 l-3 47 55 0 c56
0 56 0 56 30 l0 30 -90 0 -90 0 2 -192z"/>
</g>
</svg>
