<?xml version="1.0" encoding="UTF-8" standalone="no"?>
<svg
   xmlns:svg="http://www.w3.org/2000/svg"
   xmlns="http://www.w3.org/2000/svg"
   version="1.1"
   width="112.5pt"
   height="112.5pt"
   id="svg4451">
  <defs
     id="defs4453" />
  <g
     transform="translate(-15,-55) scale(0.25)"
     id="layer1">
    <path
       d="M 435.12097,358.71799 C 356.20746,318.21272 144.78445,337.6363 61.851065,447.39903 L 165.23215,725.49481 c 7.67747,-14.99267 163.52591,-133.12258 359.76816,-98.2744 l 5.34357,12.02478 c 53.69353,11.37688 99.52843,0.18812 107.80506,-24.2516 L 544.59806,372.0595 c -27.26129,18.69207 -87.00202,4.27765 -105.93096,-1.89497 0,0 -1.28886,-7.04349 -3.54613,-11.44654"
       id="path964"
       style="fill:#0072bd;fill-opacity:1;fill-rule:nonzero;stroke:none" />
    <path
       d="m 189.68856,425.95032 c -0.88464,0.0296 -1.75545,0.0913 -2.625,0.1875 -2.80765,0.2508 -8.10734,4.12127 -11.4375,7.4375 -0.38317,0.2926 -0.73147,0.5788 -1.09375,0.90625 -2.83551,2.44536 -9.90165,10.6127 -10.25,14.4375 -3.47645,34.0679 45.53125,81.6875 45.53125,81.6875 l 0.6875,0.6875 c 0,0 47.62656,49.0077 81.6875,45.53125 3.8248,-0.35531 11.98517,-7.40056 14.4375,-10.25 0.32048,-0.36227 0.5997,-0.7245 0.90625,-1.09375 3.29531,-3.35801 7.17276,-8.60896 7.4375,-11.4375 1.53967,-13.9128 -5.64771,-29.89571 -14.78125,-43.96875 9.13354,-14.08698 16.32092,-30.04203 14.78125,-43.96875 -0.34834,-3.82481 -7.36809,-12.15359 -10.59375,-14.0625 -0.3762,-0.22992 -0.78342,-0.4542 -1.1875,-0.65625 2.16669,7.92828 -0.84505,19.87582 -8,33.65625 -1.69991,3.27442 -3.66671,6.6382 -5.8125,10.09375 -3.03755,4.8559 -6.47715,9.86564 -10.34375,14.9375 -1.37248,1.81139 -2.80428,3.61915 -4.28125,5.4375 -3.41375,4.22191 -7.0916,8.47256 -11,12.6875 -2.27816,2.4593 -4.66929,4.89839 -7.09375,7.34375 l -1.1875,1.1875 c -2.10399,2.07612 -4.23279,4.09785 -6.34375,6.0625 -1.78351,-1.30978 -3.57059,-2.64822 -5.375,-4.0625 4.88376,-4.44485 7.78125,-7.4375 7.78125,-7.4375 l 0.71875,-0.6875 c 0,0 49.01468,-47.6196 45.53125,-81.6875 -0.34834,-3.8248 -7.44574,-11.99214 -10.28125,-14.4375 -0.36228,-0.32745 -0.71754,-0.61365 -1.09375,-0.90625 -3.34409,-3.31623 -8.59164,-7.1867 -11.40625,-7.4375 -13.91976,-1.53968 -29.88875,5.65467 -43.96875,14.78125 -13.20001,-8.55617 -28.0741,-15.41256 -41.34375,-14.96875 z m 93.15625,11.28125 c 0.6441,-0.0277 1.2923,-0.0148 1.90625,0 0.49464,1.82531 0.72237,3.85401 0.6875,6.0625 -11.02852,0.88479 -22.98183,6.20414 -34.03125,12.90625 -1.73475,-1.45608 -3.55983,-2.94998 -5.46875,-4.46875 14.26463,-8.90233 27.24474,-14.08483 36.90625,-14.5 z m -104.5,0.15625 c 18.27747,0.14902 49.37221,18.27844 78.3125,47.21875 2.42446,2.43142 4.81559,4.88446 7.09375,7.34375 -1.3028,1.79745 -2.65519,3.60184 -4.0625,5.40625 -4.45181,-4.88376 -7.4375,-7.78125 -7.4375,-7.78125 l -0.71875,-0.71875 c 0,0 -42.11147,-43.33292 -75.46875,-45.625 -0.0488,-2.09005 0.12717,-4.03595 0.53125,-5.8125 0.56236,-0.0329 1.1604,-0.0361 1.75,-0.0312 z m 332.5,10.625 c -10.88919,0 -18.01254,3.0922 -22.75,6.8125 -6.4095,5.12063 -10.59375,13.48881 -10.59375,28.84375 0,16.4348 5.03143,22.50781 20.09375,30.875 5.03006,2.7937 10.04343,4.96129 13.8125,7.28125 3.62276,2.31996 6,3.86595 6,11 0,4.80712 -1.68829,9.78125 -6.84375,9.78125 -4.88376,0 -6.96875,-4.36104 -6.96875,-9.78125 l 0,-5.125 -27.0625,0 0,2.96875 c 0,24.36309 11.70214,32.40625 33.0625,32.40625 25.81915,0 36.5625,-10.21928 36.5625,-35.96875 0,-39.54385 -41.5625,-28.22081 -41.5625,-50.25 0,-4.50059 2.2122,-8.375 6.40625,-8.375 4.73049,0 6.53125,4.34615 6.53125,9 l 0,4.5 26.25,0 c 0,-18.45519 -4.74266,-33.96875 -32.9375,-33.96875 z m -160,2.15625 -23.5625,110.75 28.75,0 2.78125,-16.90625 18.71875,0 3.0625,16.90625 28.75,0 -23.4375,-110.75 -35.0625,0 z m 62.1875,0 0,110.75 27.9375,0 0,-44.375 30,0 0,-24.1875 -30,0 0,-17.0625 32.09375,0 0,-25.125 -60.03125,0 z m -253.9375,1.09375 c -0.48071,0.22991 -0.94644,0.50954 -1.40625,0.78125 -3.23959,1.90891 -10.28362,10.23769 -10.625,14.0625 -1.54665,13.92672 5.64074,29.88177 14.78125,43.96875 -9.14051,14.07304 -16.3279,30.05595 -14.78125,43.96875 0.25778,2.82854 4.13521,8.07949 7.4375,11.4375 0.29958,0.36925 0.59275,0.73148 0.90625,1.09375 2.45234,2.84944 10.62662,9.89469 14.4375,10.25 12.77024,1.3028 27.45705,-4.75522 40.8125,-12.84375 1.70688,1.44215 3.51824,2.90837 5.40625,4.40625 -18.08594,11.25844 -34.09713,16.47445 -43.84375,13.625 0.22991,0.48071 0.4783,0.97769 0.75,1.4375 1.90195,3.21869 10.26197,10.25934 14.09375,10.59375 13.9128,1.55361 29.88874,-5.67199 43.96875,-14.8125 14.08,9.14051 30.04899,16.36611 43.96875,14.8125 3.81784,-0.33441 12.16055,-7.37506 14.0625,-10.59375 0.22295,-0.39015 0.42992,-0.78342 0.625,-1.1875 -16.85978,4.59115 -51.85793,-14.2399 -84.15625,-46.53125 -32.47945,-32.47945 -51.34216,-67.7274 -46.4375,-84.46875 z m 20.21875,7.125 c 5.83125,2.09006 12.20772,5.14016 18.875,9.0625 -2.88428,2.80764 -4.53125,4.5625 -4.53125,4.5625 l -0.71875,0.6875 c 0,0 -1.73057,1.66428 -4.53125,4.5625 -3.94324,-6.66728 -6.99674,-13.04374 -9.09375,-18.875 z m 102.90625,0.5 c -2.02039,5.64315 -4.97059,11.78835 -8.71875,18.21875 -2.72404,-2.80764 -4.40625,-4.40625 -4.40625,-4.40625 l -0.71875,-0.6875 c 0,0 -1.56039,-1.68222 -4.375,-4.40625 6.4304,-3.75514 12.5756,-6.69837 18.21875,-8.71875 z m 85.9375,15.5 0.28125,0 6,45.4375 -12.6875,0 6.40625,-45.4375 z m -155.1875,2.90625 c 1.79049,1.3028 3.58452,2.64126 5.375,4.0625 -4.9186,4.47271 -7.84375,7.5 -7.84375,7.5 l -0.6875,0.71875 c 0,0 -3.01335,2.91123 -7.5,7.84375 -1.4073,-1.81139 -2.78399,-3.59149 -4.09375,-5.375 2.35479,-2.5429 4.79746,-5.07872 7.3125,-7.59375 2.47324,-2.4593 4.95034,-4.85719 7.4375,-7.15625 z m 18.09375,14.8125 c 2.98181,2.70314 5.95928,5.54606 8.90625,8.5 3.14205,3.14205 6.16787,6.29186 9.03125,9.46875 -2.86338,3.17689 -5.8892,6.35795 -9.03125,9.5 -2.94697,2.96091 -5.91747,5.78294 -8.90625,8.5 -3.19083,-2.8773 -6.37526,-5.8892 -9.53125,-9.03125 -2.96091,-2.97485 -5.81417,-5.973 -8.53125,-8.96875 2.71708,-2.99575 5.57034,-5.96961 8.53125,-8.9375 3.15599,-3.14901 6.34042,-6.1609 9.53125,-9.03125 z m 58.3125,32.90625 c 9.48885,15.22954 14.73688,28.99621 14.5,38.8125 -1.81835,0.50161 -3.86098,0.70838 -6.0625,0.6875 -0.89873,-11.02852 -6.20414,-22.99915 -12.90625,-34.0625 1.4491,-1.71385 2.94301,-3.52161 4.46875,-5.4375 z m -116.6875,0.0312 c 1.49788,1.89499 2.9884,3.69936 4.4375,5.40625 -6.82055,11.23753 -12.17115,23.39464 -12.9375,34.5625 -2.09702,0.0557 -4.03596,-0.10985 -5.8125,-0.5 -0.57129,-9.82325 4.60071,-23.89784 14.3125,-39.46875 z m 15.71875,17.875 c 2.80068,2.89124 4.53125,4.53125 4.53125,4.53125 l 0.71875,0.71875 c 0,0 1.64,1.73057 4.53125,4.53125 -6.66729,3.92234 -13.03678,7.01763 -18.875,9.09375 2.09005,-5.82429 5.16445,-12.22166 9.09375,-18.875 z m 85.09375,0.15625 c 3.74816,6.43736 6.69836,12.54436 8.71875,18.1875 -5.64315,-2.02735 -11.78835,-4.96361 -18.21875,-8.71875 2.81461,-2.72404 4.375,-4.375 4.375,-4.375 l 0.71875,-0.7187 c 0,0 1.68221,-1.57432 4.40625,-4.375 z"
       id="path968"
       style="fill:#ffffff;fill-opacity:1;fill-rule:evenodd;stroke:none" />
  </g>
</svg>
