<svg xmlns="http://www.w3.org/2000/svg" xmlns:xlink="http://www.w3.org/1999/xlink">

<symbol id="android" fill-rule="evenodd" clip-rule="evenodd" stroke-linejoin="round" stroke-miterlimit="1.414">
  <path transform="scale(0.67)" d="M22.146 9.227c0-.815-.658-1.478-1.476-1.478s-1.48.66-1.48 1.48v6.19c0 .81.663 1.48 1.483 1.48.814 0 1.476-.67 1.476-1.48v-6.2h-.01zM5.393 8.032l.004 9.6c0 .885.704 1.59 1.573 1.59h1.063v3.28c0 .82.66 1.482 1.47 1.482s1.467-.66 1.48-1.468v-3.28h1.993v3.28c0 .823.66 1.483 1.47 1.483.823 0 1.482-.66 1.482-1.49v-3.28h1.078c.87 0 1.573-.71 1.573-1.578v-9.63L5.35 8.03l.04.002zm9.648-2.93c-.31 0-.56-.25-.56-.56 0-.305.25-.558.56-.56.31 0 .56.255.56.56 0 .31-.25.56-.56.56m-6.06 0c-.31 0-.56-.25-.56-.56 0-.307.25-.558.56-.558.31 0 .56.255.56.57s-.252.567-.57.567m6.29-2.9L16.29.33c.06-.105.014-.226-.076-.285C16.11 0 15.99.03 15.93.135l-1.05 1.9c-.868-.405-1.856-.63-2.89-.63s-2.018.215-2.892.603L8.064.105c-.053-.098-.18-.135-.278-.08-.1.045-.136.18-.08.27l1.03 1.875c-2.03 1.047-3.4 3.04-3.4 5.33h13.328c0-2.29-1.368-4.283-3.396-5.33M3.33 7.742c-.817 0-1.48.665-1.48 1.483v6.192c0 .82.664 1.48 1.484 1.48.814 0 1.477-.66 1.477-1.48v-6.19c0-.815-.66-1.478-1.47-1.478" />
</symbol>

<symbol id="apple" fill-rule="evenodd" clip-rule="evenodd" stroke-linejoin="round" stroke-miterlimit="1.414">
  <path transform="scale(0.67)" d="M7.078 23.55c-.473-.316-.893-.703-1.244-1.15-.383-.463-.738-.95-1.064-1.454-.766-1.12-1.365-2.345-1.78-3.636-.5-1.502-.743-2.94-.743-4.347 0-1.57.34-2.94 1.002-4.09.49-.9 1.22-1.653 2.1-2.182.85-.53 1.84-.82 2.84-.84.35 0 .73.05 1.13.15.29.08.64.21 1.07.37.55.21.85.34.95.37.32.12.59.17.8.17.16 0 .39-.05.645-.13.145-.05.42-.14.81-.31.386-.14.692-.26.935-.35.37-.11.728-.21 1.05-.26.39-.06.777-.08 1.148-.05.71.05 1.36.2 1.94.42 1.02.41 1.843 1.05 2.457 1.96-.26.16-.5.346-.725.55-.487.43-.9.94-1.23 1.505-.43.77-.65 1.64-.644 2.52.015 1.083.29 2.035.84 2.86.387.6.904 1.114 1.534 1.536.31.21.582.355.84.45-.12.375-.252.74-.405 1.1-.347.807-.76 1.58-1.25 2.31-.432.63-.772 1.1-1.03 1.41-.402.48-.79.84-1.18 1.097-.43.285-.935.436-1.452.436-.35.015-.7-.03-1.034-.127-.29-.095-.576-.202-.856-.323-.293-.134-.596-.248-.905-.34-.38-.1-.77-.148-1.164-.147-.4 0-.79.05-1.16.145-.31.088-.61.196-.907.325-.42.175-.695.29-.855.34-.324.096-.656.154-.99.175-.52 0-1.004-.15-1.486-.45zm6.854-18.46c-.68.34-1.326.484-1.973.436-.1-.646 0-1.31.27-2.037.24-.62.56-1.18 1-1.68.46-.52 1.01-.95 1.63-1.26.66-.34 1.29-.52 1.89-.55.08.68 0 1.35-.25 2.07-.228.64-.568 1.23-1 1.76-.435.52-.975.95-1.586 1.26z" />
</symbol>

<symbol id="debian" fill-rule="evenodd" clip-rule="evenodd" stroke-linejoin="round" stroke-miterlimit="1.414">
  <path transform="scale(0.67)" d="M13.88 12.68c-.4 0 .08.2.6.28.14-.1.27-.22.39-.33a3 3 0 0 1-.99.05M16.02 12.15c.23-.33.4-.69.47-1.06-.06.27-.2.5-.33.73-.75.47-.07-.27 0-.56-.8 1.01-.11.6-.14.89M16.8 10.1c.05-.72-.14-.5-.2-.22.07.04.13.5.2.22M12.38.31c.2.04.45.07.42.12.23-.05.28-.1-.43-.12M12.8.43l-.15.03.14-.01V.43M19.42 10.37c.02.64-.2.95-.38 1.5l-.35.18c-.28.54.03.35-.17.78-.44.39-1.34 1.22-1.62 1.3-.2 0 .14-.25.19-.34-.59.4-.48.6-1.37.85l-.03-.06c-2.22 1.04-5.3-1.02-5.25-3.84-.03.17-.07.13-.12.2a3.55 3.55 0 0 1 2-3.5 3.36 3.36 0 0 1 3.73.48 3.34 3.34 0 0 0-2.72-1.3c-1.18.01-2.28.76-2.65 1.57-.6.38-.67 1.47-.93 1.66-.36 2.6.66 3.72 2.38 5.04.27.19.08.21.12.35a4.7 4.7 0 0 1-1.53-1.16c.23.33.47.66.8.91-.55-.18-1.27-1.3-1.48-1.35.93 1.66 3.78 2.92 5.26 2.3a6.2 6.2 0 0 1-2.33-.28c-.33-.16-.77-.51-.7-.57a5.8 5.8 0 0 0 5.9-.84c.44-.35.93-.94 1.07-.95-.2.32.04.16-.12.44.44-.72-.2-.3.46-1.24l.24.33c-.09-.6.74-1.32.66-2.26.19-.3.2.3 0 .97.29-.74.08-.85.15-1.46.08.2.18.42.23.63-.18-.7.2-1.2.28-1.6-.09-.05-.28.3-.32-.53 0-.37.1-.2.14-.28-.08-.05-.26-.32-.38-.86.08-.13.22.33.34.34-.08-.42-.2-.75-.2-1.08-.34-.68-.12.1-.4-.3-.34-1.09.3-.25.34-.74.54.77.84 1.96.98 2.46-.1-.6-.28-1.2-.49-1.76.16.07-.26-1.24.21-.37A7.82 7.82 0 0 0 17.7 1.6c.18.17.42.39.33.42-.75-.45-.62-.48-.73-.67-.61-.25-.65.02-1.06 0C15.08.73 14.86.8 13.8.4l.05.23c-.77-.25-.9.1-1.73 0-.05-.04.27-.14.53-.18-.74.1-.7-.14-1.43.03.17-.13.36-.21.55-.32-.6.04-1.44.35-1.18.07C9.6.68 7.85 1.3 6.87 2.22L6.84 2c-.45.54-1.96 1.61-2.08 2.31l-.13.03c-.23.4-.38.85-.57 1.26-.3.52-.45.2-.4.28-.6 1.22-.9 2.25-1.16 3.1.18.27 0 1.65.07 2.76-.3 5.46 3.84 10.77 8.36 12 .67.23 1.65.23 2.49.25-.99-.28-1.12-.15-2.08-.49-.7-.32-.85-.7-1.34-1.13l.2.35c-.97-.34-.57-.42-1.36-.67l.21-.27c-.31-.03-.83-.53-.97-.81l-.34.01c-.41-.5-.63-.87-.61-1.16l-.11.2c-.13-.21-1.52-1.9-.8-1.51-.13-.12-.31-.2-.5-.55l.14-.17c-.35-.44-.64-1.02-.62-1.2.2.24.32.3.45.33-.88-2.17-.93-.12-1.6-2.2l.15-.02c-.1-.16-.18-.34-.26-.51l.06-.6c-.63-.74-.18-3.1-.09-4.4.07-.54.53-1.1.88-1.98l-.21-.04c.4-.71 2.34-2.87 3.24-2.76.43-.55-.09 0-.18-.14.96-.99 1.26-.7 1.9-.88.7-.4-.6.16-.27-.15 1.2-.3.85-.7 2.42-.85.16.1-.39.14-.52.26 1-.49 3.15-.37 4.56.27 1.63.77 3.46 3.01 3.53 5.13l.08.02c-.04.85.13 1.82-.17 2.71l.2-.42M9.54 13.23l-.05.28c.26.35.47.73.8 1.01-.24-.47-.42-.66-.75-1.3M10.16 13.2c-.14-.15-.22-.34-.31-.52.08.32.26.6.43.88l-.12-.36M21.1 10.82l-.07.15c-.1.76-.34 1.51-.69 2.21.4-.73.65-1.54.75-2.36M12.45.12c.27-.1.66-.05.95-.12-.37.03-.74.05-1.1.1l.15.02M3.01 5.14c.07.57-.43.8.11.42.3-.66-.11-.18-.1-.42M2.38 7.8c.12-.39.15-.62.2-.84-.35.44-.17.53-.2.83" />
</symbol>

<symbol id="gog-dot-com" fill-rule="evenodd" clip-rule="evenodd" stroke-linejoin="round" stroke-miterlimit="1.414">
  <path transform="scale(0.67)" d="M7.15 15.24H4.36a.4.4 0 0 0-.4.4v2c0 .21.18.4.4.4h2.8v1.32h-3.5c-.56 0-1.02-.46-1.02-1.03v-3.39c0-.56.46-1.02 1.03-1.02h3.48v1.32zM8.16 11.54c0 .58-.47 1.05-1.05 1.05H2.63v-1.35h3.78a.4.4 0 0 0 .4-.4V6.39a.4.4 0 0 0-.4-.4H4.39a.4.4 0 0 0-.41.4v2.02c0 .23.18.4.4.4H6v1.35H3.68c-.58 0-1.05-.46-1.05-1.04V5.68c0-.57.47-1.04 1.05-1.04H7.1c.58 0 1.05.47 1.05 1.04v5.86zM21.36 19.36h-1.32v-4.12h-.93a.4.4 0 0 0-.4.4v3.72h-1.33v-4.12h-.93a.4.4 0 0 0-.4.4v3.72h-1.33v-4.42c0-.56.46-1.02 1.03-1.02h5.61v5.44zM21.37 11.54c0 .58-.47 1.05-1.05 1.05h-4.48v-1.35h3.78a.4.4 0 0 0 .4-.4V6.39a.4.4 0 0 0-.4-.4h-2.03a.4.4 0 0 0-.4.4v2.02c0 .23.18.4.4.4h1.62v1.35H16.9c-.58 0-1.05-.46-1.05-1.04V5.68c0-.57.47-1.04 1.05-1.04h3.43c.58 0 1.05.47 1.05 1.04v5.86zM13.72 4.64h-3.44c-.58 0-1.04.47-1.04 1.04v3.44c0 .58.46 1.04 1.04 1.04h3.44c.57 0 1.04-.46 1.04-1.04V5.68c0-.57-.47-1.04-1.04-1.04m-.3 1.75v2.02a.4.4 0 0 1-.4.4h-2.03a.4.4 0 0 1-.4-.4V6.4c0-.22.17-.4.4-.4H13c.23 0 .4.18.4.4zM12.63 13.92H9.24c-.57 0-1.03.46-1.03 1.02v3.39c0 .57.46 1.03 1.03 1.03h3.39c.57 0 1.03-.46 1.03-1.03v-3.39c0-.56-.46-1.02-1.03-1.02m-.3 1.72v2a.4.4 0 0 1-.4.4v-.01H9.94a.4.4 0 0 1-.4-.4v-1.99c0-.22.18-.4.4-.4h2c.22 0 .4.18.4.4zM23.49 1.1a1.74 1.74 0 0 0-1.24-.52H1.75A1.74 1.74 0 0 0 0 2.33v19.34a1.74 1.74 0 0 0 1.75 1.75h20.5A1.74 1.74 0 0 0 24 21.67V2.33c0-.48-.2-.92-.51-1.24m0 20.58a1.23 1.23 0 0 1-1.24 1.24H1.75A1.23 1.23 0 0 1 .5 21.67V2.33a1.23 1.23 0 0 1 1.24-1.24h20.5a1.24 1.24 0 0 1 1.24 1.24v19.34z" />
</symbol>

<symbol id="steam" fill-rule="evenodd" clip-rule="evenodd" stroke-linejoin="round" stroke-miterlimit="1.414">
  <path transform="scale(0.67)" d="M11.979 0C5.678 0 .511 4.86.022 11.037l6.432 2.658c.545-.371 1.203-.59 1.912-.59.063 0 .125.004.188.006l2.861-4.142V8.91c0-2.495 2.028-4.524 4.524-4.524 2.494 0 4.524 2.031 4.524 4.527s-2.03 4.525-4.524 4.525h-.105l-4.076 2.911c0 .052.004.105.004.159 0 1.875-1.515 3.396-3.39 3.396-1.635 0-3.016-1.173-3.331-2.727L.436 15.27C1.862 20.307 6.486 24 11.979 24c6.627 0 11.999-5.373 11.999-12S18.605 0 11.979 0zM7.54 18.21l-1.473-.61c.262.543.714.999 1.314 1.25 1.297.539 2.793-.076 3.332-1.375.263-.63.264-1.319.005-1.949s-.75-1.121-1.377-1.383c-.624-.26-1.29-.249-1.878-.03l1.523.63c.956.4 1.409 1.5 1.009 2.455-.397.957-1.497 1.41-2.454 1.012H7.54zm11.415-9.303c0-1.662-1.353-3.015-3.015-3.015-1.665 0-3.015 1.353-3.015 3.015 0 1.665 1.35 3.015 3.015 3.015 1.663 0 3.015-1.35 3.015-3.015zm-5.273-.005c0-1.252 1.013-2.266 2.265-2.266 1.249 0 2.266 1.014 2.266 2.266 0 1.251-1.017 2.265-2.266 2.265-1.253 0-2.265-1.014-2.265-2.265z" />
</symbol>

<symbol id="linux" fill-rule="evenodd" clip-rule="evenodd" stroke-linejoin="round" stroke-miterlimit="1.414">
  <path transform="scale(0.67)" d="M12.503 0c-.155 0-.315.008-.479.021-4.227.333-3.106 4.807-3.17 6.298-.077 1.093-.3 1.954-1.051 3.021-.885 1.051-2.127 2.75-2.716 4.521-.278.832-.41 1.684-.287 2.489-.039.034-.076.068-.111.135-.26.268-.449.601-.662.839-.199.199-.485.267-.797.4-.313.136-.658.269-.864.681-.09.188-.136.393-.132.601 0 .199.027.401.055.536.058.399.116.729.039.97-.248.68-.279 1.146-.105 1.485.174.334.535.469.939.601.811.2 1.91.135 2.775.599.926.467 1.866.671 2.616.47.526-.115.97-.463 1.208-.945.587-.003 1.23-.269 2.26-.334.699-.058 1.574.267 2.578.199.025.135.063.199.114.334l.003.003c.391.778 1.113 1.132 1.884 1.071.771-.06 1.592-.536 2.257-1.306.631-.765 1.683-1.084 2.378-1.503.348-.199.629-.469.649-.853.023-.4-.199-.812-.714-1.377v-.097l-.003-.003c-.17-.2-.25-.535-.338-.926-.085-.401-.182-.786-.492-1.046h-.003c-.059-.054-.123-.067-.188-.135-.056-.038-.121-.062-.19-.064.431-1.278.264-2.55-.173-3.694-.533-1.41-1.465-2.638-2.175-3.483-.796-1.005-1.576-1.957-1.561-3.369.027-2.152.237-6.133-3.544-6.139zm.529 3.405h.013c.213 0 .396.062.584.198.191.135.33.332.439.533.105.259.158.459.166.724 0-.02.006-.04.006-.059v.104c-.002-.007-.004-.015-.004-.021l-.004-.024c-.002.243-.053.483-.15.706-.047.125-.119.24-.213.335-.029-.016-.057-.03-.088-.042-.105-.045-.199-.064-.285-.133-.071-.028-.145-.051-.219-.066.049-.059.145-.133.182-.198.053-.128.082-.264.088-.402v-.019c.002-.135-.018-.271-.061-.4-.045-.135-.101-.201-.183-.334-.084-.066-.167-.132-.267-.132h-.016c-.093 0-.176.03-.262.132-.095.094-.166.207-.205.334-.053.127-.084.264-.09.4v.019c.002.089.008.179.02.267-.193-.067-.438-.135-.607-.202-.01-.065-.016-.132-.018-.199v-.02c-.008-.264.043-.526.15-.769.082-.219.232-.406.43-.533.171-.129.379-.199.594-.199zm-2.962.059h.036c.142 0 .27.048.399.135.146.129.264.288.344.465.09.199.141.401.153.667v.004c.007.134.006.201-.002.266v.08c-.03.007-.056.018-.083.024-.152.055-.274.135-.393.2.012-.089.013-.179.003-.267v-.015c-.012-.133-.039-.199-.082-.333-.031-.102-.088-.193-.166-.267-.049-.045-.115-.068-.183-.064h-.021c-.071.006-.13.041-.186.132-.064.077-.105.171-.12.27-.027.108-.035.219-.023.331v.014c.012.135.037.201.081.334.045.134.097.2.165.268.011.009.021.018.034.024-.07.057-.117.07-.176.136-.037.028-.08.06-.131.068-.104-.125-.196-.26-.275-.402-.096-.21-.146-.438-.155-.667-.017-.226.011-.452.08-.668.055-.197.152-.379.283-.535.128-.133.26-.2.418-.2zm1.371 1.706c.331 0 .732.065 1.215.399.293.2.523.269 1.053.468h.003c.255.136.405.266.478.399v-.131c.073.147.078.318.016.47-.123.311-.516.644-1.064.843v.002c-.268.135-.501.333-.775.465-.276.135-.588.292-1.012.267-.152.008-.305-.015-.448-.067-.11-.06-.218-.126-.322-.198-.195-.135-.363-.332-.612-.465v-.005h-.005c-.4-.246-.616-.512-.686-.711-.069-.268-.005-.469.193-.6.224-.135.38-.271.483-.336.104-.074.143-.102.176-.131h.002v-.003c.169-.202.436-.469.839-.601.139-.036.294-.065.466-.065zm2.799 2.143c.359 1.417 1.197 3.475 1.736 4.473.286.534.855 1.659 1.102 3.024.156-.005.329.018.513.064.646-1.671-.546-3.467-1.089-3.966-.221-.201-.232-.335-.123-.335.589.534 1.365 1.572 1.646 2.757.129.535.159 1.104.021 1.67.067.028.135.061.205.067 1.032.534 1.413.938 1.23 1.537v-.043c-.061-.003-.12 0-.181 0h-.015c.151-.467-.182-.825-1.065-1.224-.915-.4-1.646-.336-1.771.465-.007.043-.012.066-.017.135-.068.023-.139.053-.209.064-.43.268-.662.669-.793 1.187-.13.533-.17 1.156-.205 1.869v.003c-.021.334-.171.838-.319 1.351-1.5 1.072-3.58 1.538-5.349.334-.111-.193-.246-.374-.402-.533-.074-.125-.168-.237-.275-.334.182 0 .338-.029.465-.067.145-.067.257-.188.314-.334.108-.267 0-.697-.345-1.163-.345-.467-.931-.995-1.788-1.521-.63-.399-.986-.87-1.15-1.396-.165-.534-.143-1.085-.015-1.645.245-1.07.873-2.11 1.274-2.763.107-.065.037.135-.408.974-.396.751-1.141 2.497-.122 3.854.038-.989.258-1.965.647-2.876.564-1.278 1.743-3.504 1.836-5.268.048.036.217.135.289.202.218.133.38.333.59.465.211.201.477.335.876.335.039.003.075.006.111.006.411 0 .729-.134.996-.268.29-.134.521-.334.74-.4h.005c.467-.135.836-.402 1.045-.7zm2.186 8.958c.037.601.343 1.245.882 1.377.588.134 1.434-.333 1.791-.765l.211-.009c.315-.008.577.01.847.267l.003.003c.208.199.305.531.391.876.085.401.154.78.409 1.066.486.527.645.906.636 1.14l.003-.006v.018l-.003-.012c-.015.262-.185.396-.498.595-.63.401-1.746.712-2.457 1.57-.618.737-1.371 1.139-2.036 1.191-.664.053-1.237-.2-1.574-.898l-.005-.003c-.21-.401-.12-1.025.056-1.69.176-.668.428-1.345.463-1.898.037-.714.076-1.335.195-1.814.12-.465.308-.797.641-.984l.045-.022zm-10.815.049h.01c.053 0 .105.005.157.014.376.055.706.333 1.023.752l.91 1.664.003.003c.243.533.754 1.064 1.189 1.638.434.598.77 1.131.729 1.57v.006c-.057.744-.479 1.148-1.125 1.294-.645.135-1.52.002-2.395-.464-.968-.536-2.118-.469-2.857-.602-.369-.066-.611-.201-.723-.401-.111-.199-.113-.601.123-1.23v-.003l.002-.003c.117-.334.03-.753-.027-1.119-.055-.401-.083-.709.043-.94.16-.334.396-.399.689-.533.295-.135.641-.202.916-.469h.002v-.003c.256-.268.445-.601.668-.838.19-.201.38-.336.663-.336zm7.159-9.074c-.435.201-.945.535-1.488.535-.542 0-.97-.267-1.279-.466-.155-.134-.28-.268-.374-.335-.164-.134-.144-.334-.074-.334.109.016.129.135.199.201.096.066.215.199.361.333.291.2.68.467 1.166.467.485 0 1.053-.267 1.398-.466.195-.135.445-.334.648-.467.156-.137.149-.268.279-.268.129.016.034.134-.147.333-.181.135-.461.335-.69.468v-.001zm-1.082-1.584V5.64c-.006-.019.013-.042.029-.05.074-.043.18-.027.26.004.063 0 .16.067.15.135-.006.049-.085.066-.135.066-.055 0-.092-.043-.141-.068-.052-.018-.146-.008-.163-.065zm-.551 0c-.02.058-.113.049-.166.066-.047.025-.086.068-.139.068-.051 0-.131-.019-.137-.068-.009-.066.088-.133.15-.133.081-.031.184-.047.259-.005.019.009.036.03.03.05v.021h.003z" />
</symbol>

<symbol id="nintendoswitch" fill-rule="evenodd" clip-rule="evenodd" stroke-linejoin="round" stroke-miterlimit="1.414">
  <path transform="scale(0.67)" d="M14.176 24h3.674c3.376 0 6.15-2.774 6.15-6.15V6.15C24 2.775 21.226 0 17.85 0H14.1c-.074 0-.15.074-.15.15v23.7c-.001.076.075.15.226.15zm4.574-13.199c1.351 0 2.399 1.125 2.399 2.398 0 1.352-1.125 2.4-2.399 2.4-1.35 0-2.4-1.049-2.4-2.4-.075-1.349 1.05-2.398 2.4-2.398zM11.4 0H6.15C2.775 0 0 2.775 0 6.15v11.7C0 21.226 2.775 24 6.15 24h5.25c.074 0 .15-.074.15-.149V.15c.001-.076-.075-.15-.15-.15zM9.676 22.051H6.15c-2.326 0-4.201-1.875-4.201-4.201V6.15c0-2.326 1.875-4.201 4.201-4.201H9.6l.076 20.102zM3.75 7.199c0 1.275.975 2.25 2.25 2.25s2.25-.975 2.25-2.25c0-1.273-.975-2.25-2.25-2.25s-2.25.977-2.25 2.25z" />
</symbol>

<symbol id="playstation" fill-rule="evenodd" clip-rule="evenodd" stroke-linejoin="round" stroke-miterlimit="1.414">
  <path transform="scale(0.67)" d="M8.985 2.596v17.548l3.915 1.261V6.688c0-.69.304-1.151.794-.991.636.181.76.814.76 1.505v5.876c2.441 1.193 4.362-.002 4.362-3.153 0-3.237-1.126-4.675-4.438-5.827-1.307-.448-3.728-1.186-5.391-1.502h-.002zm4.656 16.242l6.296-2.275c.715-.258.826-.625.246-.818-.586-.192-1.637-.139-2.357.123l-4.205 1.499v-2.385l.24-.085s1.201-.42 2.913-.615c1.696-.18 3.785.029 5.437.661 1.848.601 2.041 1.472 1.576 2.072s-1.622 1.036-1.622 1.036l-8.544 3.107v-2.297l.02-.023zM1.808 18.6c-1.9-.545-2.214-1.668-1.352-2.321.801-.585 2.159-1.051 2.159-1.051l5.616-2.013v2.313L4.206 17c-.705.271-.825.632-.239.826.586.195 1.637.15 2.343-.12L8.248 17v2.074c-.121.029-.256.044-.391.073-1.938.331-3.995.196-6.037-.479l-.012-.068z" />
</symbol>

<symbol id="playstation3" fill-rule="evenodd" clip-rule="evenodd" stroke-linejoin="round" stroke-miterlimit="1.414">
  <path transform="scale(0.67)" d="M15.363 9.438h-3.148c-.97 0-1.447.6-1.447 1.38v2.366c0 .483-.228.83-.71.83H7.304c-.02 0-.035.017-.035.035v.47c0 .02.01.032.03.032h3.11c.97 0 1.45-.597 1.45-1.377V10.81c0-.484.225-.832.71-.832h2.782c.02 0 .04-.014.04-.033V9.47c0-.02-.02-.035-.04-.035zm-9.267 0H.038c-.022 0-.038.017-.038.035v.477c0 .02.016.036.038.036h5.694c.48 0 .71.347.71.83s-.228.83-.71.83H1.228c-.7 0-1.227.587-1.227 1.366v1.513c0 .02.02.037.04.037h1.03c.02 0 .04-.016.04-.037v-1.513c0-.48.28-.82.68-.82H6.1c.97 0 1.444-.595 1.444-1.375 0-.778-.473-1.38-1.442-1.38zm17.454 2.498c-.015-.015-.015-.04 0-.056.3-.25.45-.627.45-1.062 0-.778-.474-1.38-1.446-1.38h-6.057c-.02 0-.036.018-.036.038v.475c0 .02.02.04.04.04h5.7c.48 0 .715.35.715.83s-.23.83-.712.83h-5.7c-.02 0-.036.02-.036.04v.48c0 .02.016.034.037.034h5.7c.63.007.71.62.71.93v.06c0 .485-.23.833-.71.833h-5.7c-.02 0-.036.015-.036.034v.477c0 .02.015.037.036.037h6.05c.973 0 1.446-.645 1.446-1.38v-.057c0-.47-.15-.916-.45-1.19z" />
</symbol>

<symbol id="playstation4" fill-rule="evenodd" clip-rule="evenodd" stroke-linejoin="round" stroke-miterlimit="1.414">
  <path transform="scale(0.67)" d="M12.305 13.18v-2.387c0-.487.227-.835.712-.835h2.99c.017 0 .035-.018.035-.036v-.475c0-.004 0-.008-.003-.012h-3.66c-.792.1-1.18.653-1.18 1.358v2.386c0 .483-.233.832-.71.832H7.335c-.018 0-.036.012-.036.036v.475c0 .02.01.035.023.04h3.584c.933-.025 1.393-.62 1.393-1.386zM.025 14.565h1.05c.013-.005.025-.02.025-.04v-1.52c0-.488.275-.824.676-.824H6.1c.974 0 1.446-.6 1.446-1.384 0-.706-.387-1.258-1.18-1.358H.006c0 .003-.006.005-.006.01v.475c0 .024.013.036.037.036h5.698c.484 0 .712.35.712.834s-.227.836-.712.836H1.227c-.7 0-1.226.592-1.226 1.373v1.52c0 .02.01.036.028.04zm16-.55h5.74c.017 0 .03.012.03.024v.483c0 .024.017.036.035.036h1.035c.018 0 .036-.01.036-.036v-.475c0-.018.02-.036.04-.036h1.028c.024 0 .036-.018.036-.036v-.484c0-.018-.01-.036-.035-.036h-1.03c-.02 0-.037-.017-.037-.035V9.958c0-.283-.104-.463-.28-.523h-.3c-.093.024-.195.067-.303.132l-6.182 3.817c-.24.15-.323.318-.263.445.048.104.185.182.454.182zm.896-.637l4.79-2.963c.03-.024.09-.018.09.048v2.963c0 .018-.015.036-.033.036H16.95c-.04 0-.06-.012-.065-.024-.006-.024.005-.042.036-.06z" />
</symbol>

<symbol id="raspberrypi" fill-rule="evenodd" clip-rule="evenodd" stroke-linejoin="round" stroke-miterlimit="1.414">
  <path transform="scale(0.67)" d="M16.111 17.338c-.857.989-1.334 2.79-.709 3.371.596.449 2.201.391 3.385-1.23.86-1.08.569-2.893.081-3.372-.73-.555-1.778.164-2.757 1.243v-.012zm-8.057.3c-.908-1.04-2.088-1.658-2.851-1.199-.51.382-.605 1.685.123 2.967 1.078 1.524 2.596 1.679 3.221 1.307.659-.488.3-2.137-.493-3.075zm4.105 3.145c-1.103-.026-2.798.439-2.776 1.032-.018.403 1.331 1.572 2.705 1.513 1.326.03 2.699-1.139 2.682-1.649-.004-.523-1.498-.927-2.607-.884l-.004-.012zm-.075-13.944c-1.275-.032-2.502.933-2.502 1.493-.004.68 1.008 1.376 2.51 1.394 1.543.01 2.518-.559 2.532-1.26.016-.794-1.394-1.639-2.518-1.627h-.022zm-3.071.532c-2.135-.345-3.913.9-3.842 3.192.07.884 4.63-3.041 3.843-3.177l-.001-.015zm9.749 3.251c.071-2.277-1.709-3.521-3.844-3.176-.787.135 3.772 4.061 3.844 3.176zm.364.824c-1.239-.329-.42 5.049.588 4.615 1.109-.869 1.466-3.446-.588-4.6v-.015zM4.228 16.121c1.007.45 1.827-4.929.589-4.6-2.053 1.153-1.698 3.73-.589 4.615v-.015zm9.415-5.948c-1.146.75-1.354 2.428-.461 3.746.891 1.318 2.543 1.813 3.691 1.078 1.146-.733 1.353-2.412.462-3.746-.892-1.333-2.545-1.813-3.692-1.063v-.015zm-3.096.135c-1.146-.734-2.799-.254-3.689 1.064-.892 1.334-.686 3.012.461 3.761s2.799.269 3.691-1.064c.885-1.318.675-2.997-.465-3.745l.002-.016zm4.369 7.162c-.009-1.393-1.252-2.518-2.781-2.502-1.527.016-2.761 1.139-2.754 2.532v.029c.01 1.394 1.254 2.517 2.783 2.502 1.527 0 2.756-1.138 2.742-2.517v-.029l.01-.015zm3.209-15.133c-2.307 1.184-3.652 2.128-4.389 2.938.377 1.498 2.344 1.558 3.063 1.512-.147-.06-.271-.149-.315-.269.18-.12.821-.016 1.268-.255-.171-.03-.252-.061-.329-.195.419-.135.875-.24 1.141-.465-.143 0-.278.03-.467-.09.377-.194.778-.359 1.095-.658-.196 0-.406 0-.466-.075.346-.21.635-.435.877-.704-.272.045-.39.016-.454-.03.261-.255.593-.479.749-.81-.203.076-.391.09-.522 0 .091-.194.47-.314.69-.779-.215.03-.441.046-.486 0 .098-.389.269-.613.435-.854-.457 0-1.15 0-1.117-.029l.283-.285c-.448-.12-.904.015-1.236.12-.149-.105 0-.255.185-.405-.39.061-.733.135-1.034.256-.164-.15.105-.285.24-.436-.599.12-.839.27-1.094.42-.18-.165-.015-.314.104-.449-.449.164-.674.374-.914.568-.09-.104-.209-.179-.06-.449-.314.18-.554.39-.734.629-.194-.134-.119-.299-.119-.449-.33.27-.54.54-.794.811-.061-.031-.105-.15-.135-.346-.779.75-1.889 2.623-.285 3.356 1.349-1.094 2.981-1.903 4.779-2.503l.041-.075zm-12.259 0c1.798.6 3.419 1.408 4.777 2.518 1.596-.75.493-2.623-.282-3.356-.041.194-.085.329-.135.359-.255-.27-.462-.54-.788-.81 0 .15.077.33-.117.45-.175-.239-.41-.45-.725-.63.149.256.025.33-.056.449-.24-.225-.465-.434-.899-.599.12.149.3.3.12.465-.239-.149-.494-.3-1.078-.42.135.149.404.3.238.45-.315-.122-.66-.212-1.035-.258.181.15.342.289.192.405-.345-.12-.806-.255-1.255-.135l.284.284c.03.037-.659.03-1.121.035.165.225.337.449.435.854-.045.045-.27.016-.483 0 .225.449.599.57.688.765-.135.096-.314.075-.523 0 .164.314.494.539.748.81-.074.044-.18.074-.464.037.239.26.524.494.869.704-.06.07-.271.069-.479.075.314.304.719.464 1.094.663-.195.136-.33.105-.465.105.255.225.72.329 1.139.464-.09.135-.164.165-.344.195.449.254 1.078.135 1.258.27-.045.119-.164.209-.314.27.719.045 2.697-.015 3.072-1.514-.736-.807-2.084-1.752-4.391-2.921l.04.016zM7.6.103c.236-.007.436.135.652.201.529-.17.65.063.91.159.577-.12.752.141 1.029.419l.322-.009c.869.507 1.305 1.536 1.457 2.065.152-.529.584-1.559 1.457-2.065l.321.007c.277-.283.453-.539 1.029-.418.261-.105.38-.33.911-.166.33-.104.62-.375 1.057-.045.368-.149.726-.195 1.045.09.495-.06.653.061.774.21.108 0 .809-.104 1.132.36.81-.09 1.064.464.774.988.165.255.337.494-.05.975.15.269.062.553-.27.913.091.374-.074.63-.374.839.06.51-.48.81-.629.914-.061.3-.181.584-.795.734-.089.449-.464.523-.824.614 1.185.675 2.188 1.558 2.188 3.731l.181.299c1.349.809 2.562 3.402.674 5.514-.119.659-.329 1.124-.511 1.648-.269 2.113-2.082 3.101-2.561 3.221-.689.525-1.438 1.02-2.442 1.363-.942.961-1.976 1.336-2.994 1.336h-.092c-1.033 0-2.063-.375-3.012-1.335-1.007-.344-1.754-.838-2.447-1.363-.479-.12-2.283-1.107-2.562-3.221-.187-.524-.394-1.004-.518-1.662-1.894-2.113-.681-4.705.666-5.515l.172-.3c0-2.172 1.005-3.057 2.188-3.73-.359-.09-.72-.165-.823-.615-.615-.15-.735-.434-.795-.734-.15-.105-.689-.404-.629-.928-.3-.211-.465-.465-.375-.854-.314-.346-.404-.645-.27-.915-.39-.479-.209-.733-.045-.974C3.236 1.329 3.491.76 4.3.85 4.614.385 5.32.491 5.423.491c.121-.15.285-.285.779-.225.314-.285.675-.24 1.049-.102.151-.12.286-.164.406-.164L7.6.103z" />
</symbol>

<symbol id="ubuntu" fill-rule="evenodd" clip-rule="evenodd" stroke-linejoin="round" stroke-miterlimit="1.414">
  <path transform="scale(0.67)" d="M12 0c6.623 0 12 5.377 12 12s-5.377 12-12 12S0 18.623 0 12 5.377 0 12 0zm3.279 17.68c-.766.441-1.029 1.422-.586 2.189.441.765 1.422 1.028 2.188.584.766-.441 1.029-1.422.585-2.189-.441-.765-1.421-1.028-2.187-.584zm-3.279-1c-.705 0-1.373-.157-1.971-.435L8.916 18.24c.93.459 1.978.721 3.084.721.646 0 1.268-.091 1.86-.256.104-.643.485-1.234 1.095-1.587.609-.351 1.313-.386 1.92-.156 1.186-1.163 1.957-2.749 2.07-4.515l-2.285-.033c-.21 2.391-2.215 4.266-4.66 4.266zM7.32 12c0-1.583.787-2.981 1.99-3.83L8.14 6.209c-1.404.93-2.445 2.369-2.881 4.035.506.404.83 1.034.83 1.74 0 .704-.324 1.319-.83 1.739.436 1.665 1.477 3.104 2.881 4.034l1.17-1.965C8.107 14.97 7.32 13.574 7.32 12zm-3.48-1.602c-.885 0-1.602.717-1.602 1.602s.717 1.602 1.602 1.602S5.441 12.885 5.441 12s-.716-1.602-1.601-1.602zM12 7.32c2.445 0 4.45 1.875 4.66 4.265l2.285-.034c-.113-1.765-.885-3.35-2.07-4.516-.609.232-1.313.194-1.92-.154-.609-.352-.99-.945-1.095-1.591-.594-.16-1.214-.25-1.86-.25-1.11 0-2.155.26-3.084.72l1.113 1.995c.6-.279 1.268-.435 1.971-.435zm3.279-1.001c.765.442 1.746.181 2.189-.585.441-.765.181-1.746-.588-2.19-.765-.44-1.746-.179-2.189.589-.441.764-.18 1.744.588 2.186z" />
</symbol>

<symbol id="unity" fill-rule="evenodd" clip-rule="evenodd" stroke-linejoin="round" stroke-miterlimit="1.414">
  <path transform="scale(0.67)" d="M19.9 19.2L15.6 12l4.3-7.2L22 12l-2.1 7.2zm-9.5-.7L5 13.2h8.6l4.3 7.2-7.5-1.9zm0-13.1l7.5-1.9-4.3 7.2H4.9c0 .1 5.5-5.3 5.5-5.3zm11-5.4l-9.8 2.5L10.1 5H7.2L0 12l7.2 7h2.9l1.4 2.5 9.8 2.5 2.6-9.5-1.4-2.5L24 9.5 21.4 0z" />
</symbol>

<symbol id="unrealengine" fill-rule="evenodd" clip-rule="evenodd" stroke-linejoin="round" stroke-miterlimit="1.414">
  <path transform="scale(0.67)" d="M11.999 0C5.427 0 .1 5.373.1 12c0 6.628 5.327 12 11.899 12 6.571 0 11.899-5.372 11.899-12 0-6.627-5.328-12-11.9-12zm0 .528c3.038 0 5.895 1.194 8.043 3.36A11.446 11.446 0 0 1 23.374 12c0 3.064-1.183 5.945-3.332 8.112A11.254 11.254 0 0 1 12 23.472a11.253 11.253 0 0 1-8.044-3.36A11.447 11.447 0 0 1 .623 12c0-3.064 1.184-5.945 3.332-8.112A11.252 11.252 0 0 1 12 .528zm-.595 4.223c-1.938.52-3.732 1.516-6.123 4.258-2.392 2.742-1.938 5.006-1.938 5.006s.66-1.558 2.247-3.199c.752-.777 1.314-1.037 1.698-1.038a.598.598 0 0 1 .632.602v5.567c0 .55-.354.669-.68.663-.279-.005-.537-.102-.537-.102 1.63 2.368 5.526 2.7 5.526 2.7l1.711-1.828.04.035 1.568 1.336c2.866-1.703 4.248-4.86 4.248-4.86-1.279 1.353-2.094 1.669-2.578 1.667-.429-.003-.597-.255-.597-.255-.023-.117-.063-1.81-.078-3.505-.014-1.756-.001-3.513.087-3.518.494-.929 2.073-2.802 2.073-2.802-2.948.581-4.556 2.513-4.556 2.513-.475-.374-1.444-.311-1.444-.311.454.25.907.976.907 1.578v5.92s-.99.873-1.752.873c-.451 0-.729-.247-.881-.449a1.182 1.182 0 0 1-.15-.258V8.033a.634.634 0 0 1-.363.123c-.162 0-.33-.082-.444-.32-.086-.18-.141-.45-.141-.842 0-1.35 1.525-2.243 1.525-2.243z" />
</symbol>

<symbol id="wii" fill-rule="evenodd" clip-rule="evenodd" stroke-linejoin="round" stroke-miterlimit="1.414">
  <path transform="scale(0.67)" d="M17.904 6.261c-.729-.014-1.33.565-1.344 1.293v.018c.012.732.612 1.315 1.344 1.305.783 0 1.404-.579 1.404-1.305.001-.732-.62-1.311-1.404-1.311zm4.71 0c-.747 0-1.36.58-1.36 1.311 0 .711.613 1.305 1.361 1.305.767 0 1.385-.579 1.385-1.305 0-.732-.618-1.311-1.386-1.311zm-14.84.543c-.748 0-1.252.374-1.514 1.215-.242.857-1.794 6.822-1.794 6.822L2.43 6.897H0s2.334 8.464 2.652 9.456c.241.765.84 1.386 1.7 1.386 1.009 0 1.479-.732 1.684-1.386.225-.676 1.738-6.261 1.738-6.261s1.515 5.589 1.719 6.261c.225.653.69 1.386 1.682 1.386.879 0 1.456-.621 1.72-1.386.315-.99 2.657-9.456 2.657-9.456h-2.45l-2.021 7.944s-1.55-5.965-1.812-6.822c-.242-.844-.77-1.215-1.495-1.215zm9.008 3.363v7.495h2.322v-7.495h-2.322zm4.693 0v7.495h2.317v-7.495h-2.317z" />
</symbol>

<symbol id="windows" fill-rule="evenodd" clip-rule="evenodd" stroke-linejoin="round" stroke-miterlimit="1.414">
  <path transform="scale(0.67)" d="M0 3.449L9.75 2.1v9.451H0m10.949-9.602L24 0v11.4H10.949M0 12.6h9.75v9.451L0 20.699M10.949 12.6H24V24l-12.9-1.801" />
</symbol>

<symbol id="xbox" fill-rule="evenodd" clip-rule="evenodd" stroke-linejoin="round" stroke-miterlimit="1.414">
  <path transform="scale(0.67)" d="M4.102 21.033C6.211 22.881 8.977 24 12 24c3.026 0 5.789-1.119 7.902-2.967 1.877-1.912-4.316-8.709-7.902-11.417-3.582 2.708-9.779 9.505-7.898 11.417zm11.16-14.406c2.5 2.961 7.484 10.313 6.076 12.912C23.002 17.48 24 14.861 24 12.004c0-3.34-1.365-6.362-3.57-8.536 0 0-.027-.022-.082-.042-.063-.022-.152-.045-.281-.045-.592 0-1.985.434-4.805 3.246zM3.654 3.426c-.057.02-.082.041-.086.042C1.365 5.642 0 8.664 0 12.004c0 2.854.998 5.473 2.661 7.533-1.401-2.605 3.579-9.951 6.08-12.91-2.82-2.813-4.216-3.245-4.806-3.245-.131 0-.223.021-.281.046v-.002zM12 3.551S9.055 1.828 6.755 1.746c-.903-.033-1.454.295-1.521.339C7.379.646 9.659 0 11.984 0H12c2.334 0 4.605.646 6.766 2.085-.068-.046-.615-.372-1.52-.339C14.946 1.828 12 3.545 12 3.545v.006z" />
</symbol>

</svg>
