<svg xmlns="http://www.w3.org/2000/svg" xmlns:xlink="http://www.w3.org/1999/xlink">

<symbol id="angle-double-right" fill-rule="evenodd" clip-rule="evenodd" stroke-linejoin="round" stroke-miterlimit="1.414">
  <path transform="scale(0.009)" d="M979 960q0 13-10 23l-466 466q-10 10-23 10t-23-10l-50-50q-10-10-10-23t10-23l393-393-393-393q-10-10-10-23t10-23l50-50q10-10 23-10t23 10l466 466q10 10 10 23zm384 0q0 13-10 23l-466 466q-10 10-23 10t-23-10l-50-50q-10-10-10-23t10-23l393-393-393-393q-10-10-10-23t10-23l50-50q10-10 23-10t23 10l466 466q10 10 10 23z" />
</symbol>

<symbol id="briefcase" fill-rule="evenodd" clip-rule="evenodd" stroke-linejoin="round" stroke-miterlimit="1.414">
  <path transform="scale(0.009)" d="M640 256h512v-128h-512v128zm1152 640v480q0 66-47 113t-113 47h-1472q-66 0-113-47t-47-113v-480h672v160q0 26 19 45t45 19h320q26 0 45-19t19-45v-160h672zm-768 0v128h-256v-128h256zm768-480v384h-1792v-384q0-66 47-113t113-47h352v-160q0-40 28-68t68-28h576q40 0 68 28t28 68v160h352q66 0 113 47t47 113z" />
</symbol>

<symbol id="building" fill-rule="evenodd" clip-rule="evenodd" stroke-linejoin="round" stroke-miterlimit="1.414">
  <path transform="scale(0.009)" d="M1472 0q26 0 45 19t19 45v1664q0 26-19 45t-45 19h-1280q-26 0-45-19t-19-45v-1664q0-26 19-45t45-19h1280zm-832 288v64q0 14 9 23t23 9h64q14 0 23-9t9-23v-64q0-14-9-23t-23-9h-64q-14 0-23 9t-9 23zm0 256v64q0 14 9 23t23 9h64q14 0 23-9t9-23v-64q0-14-9-23t-23-9h-64q-14 0-23 9t-9 23zm0 256v64q0 14 9 23t23 9h64q14 0 23-9t9-23v-64q0-14-9-23t-23-9h-64q-14 0-23 9t-9 23zm0 256v64q0 14 9 23t23 9h64q14 0 23-9t9-23v-64q0-14-9-23t-23-9h-64q-14 0-23 9t-9 23zm-128 320v-64q0-14-9-23t-23-9h-64q-14 0-23 9t-9 23v64q0 14 9 23t23 9h64q14 0 23-9t9-23zm0-256v-64q0-14-9-23t-23-9h-64q-14 0-23 9t-9 23v64q0 14 9 23t23 9h64q14 0 23-9t9-23zm0-256v-64q0-14-9-23t-23-9h-64q-14 0-23 9t-9 23v64q0 14 9 23t23 9h64q14 0 23-9t9-23zm0-256v-64q0-14-9-23t-23-9h-64q-14 0-23 9t-9 23v64q0 14 9 23t23 9h64q14 0 23-9t9-23zm0-256v-64q0-14-9-23t-23-9h-64q-14 0-23 9t-9 23v64q0 14 9 23t23 9h64q14 0 23-9t9-23zm512 1280v-192q0-14-9-23t-23-9h-320q-14 0-23 9t-9 23v192q0 14 9 23t23 9h320q14 0 23-9t9-23zm0-512v-64q0-14-9-23t-23-9h-64q-14 0-23 9t-9 23v64q0 14 9 23t23 9h64q14 0 23-9t9-23zm0-256v-64q0-14-9-23t-23-9h-64q-14 0-23 9t-9 23v64q0 14 9 23t23 9h64q14 0 23-9t9-23zm0-256v-64q0-14-9-23t-23-9h-64q-14 0-23 9t-9 23v64q0 14 9 23t23 9h64q14 0 23-9t9-23zm0-256v-64q0-14-9-23t-23-9h-64q-14 0-23 9t-9 23v64q0 14 9 23t23 9h64q14 0 23-9t9-23zm256 1024v-64q0-14-9-23t-23-9h-64q-14 0-23 9t-9 23v64q0 14 9 23t23 9h64q14 0 23-9t9-23zm0-256v-64q0-14-9-23t-23-9h-64q-14 0-23 9t-9 23v64q0 14 9 23t23 9h64q14 0 23-9t9-23zm0-256v-64q0-14-9-23t-23-9h-64q-14 0-23 9t-9 23v64q0 14 9 23t23 9h64q14 0 23-9t9-23zm0-256v-64q0-14-9-23t-23-9h-64q-14 0-23 9t-9 23v64q0 14 9 23t23 9h64q14 0 23-9t9-23zm0-256v-64q0-14-9-23t-23-9h-64q-14 0-23 9t-9 23v64q0 14 9 23t23 9h64q14 0 23-9t9-23z" />
</symbol>

<symbol id="calendar" fill-rule="evenodd" clip-rule="evenodd" stroke-linejoin="round" stroke-miterlimit="1.414">
  <path transform="scale(0.009)" d="M192 1664h288v-288h-288v288zm352 0h320v-288h-320v288zm-352-352h288v-320h-288v320zm352 0h320v-320h-320v320zm-352-384h288v-288h-288v288zm736 736h320v-288h-320v288zm-384-736h320v-288h-320v288zm768 736h288v-288h-288v288zm-384-352h320v-320h-320v320zm-352-864v-288q0-13-9.5-22.5t-22.5-9.5h-64q-13 0-22.5 9.5t-9.5 22.5v288q0 13 9.5 22.5t22.5 9.5h64q13 0 22.5-9.5t9.5-22.5zm736 864h288v-320h-288v320zm-384-384h320v-288h-320v288zm384 0h288v-288h-288v288zm32-480v-288q0-13-9.5-22.5t-22.5-9.5h-64q-13 0-22.5 9.5t-9.5 22.5v288q0 13 9.5 22.5t22.5 9.5h64q13 0 22.5-9.5t9.5-22.5zm384-64v1280q0 52-38 90t-90 38h-1408q-52 0-90-38t-38-90v-1280q0-52 38-90t90-38h128v-96q0-66 47-113t113-47h64q66 0 113 47t47 113v96h384v-96q0-66 47-113t113-47h64q66 0 113 47t47 113v96h128q52 0 90 38t38 90z" />
</symbol>

<symbol id="circle" fill-rule="evenodd" clip-rule="evenodd" stroke-linejoin="round" stroke-miterlimit="1.414">
  <path transform="scale(0.009)" d="M1664 896q0 209-103 385.5t-279.5 279.5-385.5 103-385.5-103-279.5-279.5-103-385.5 103-385.5 279.5-279.5 385.5-103 385.5 103 279.5 279.5 103 385.5z" />
</symbol>

<symbol id="code-fork" fill-rule="evenodd" clip-rule="evenodd" stroke-linejoin="round" stroke-miterlimit="1.414">
  <path transform="scale(0.009)" d="M672 1472q0-40-28-68t-68-28-68 28-28 68 28 68 68 28 68-28 28-68zm0-1152q0-40-28-68t-68-28-68 28-28 68 28 68 68 28 68-28 28-68zm640 128q0-40-28-68t-68-28-68 28-28 68 28 68 68 28 68-28 28-68zm96 0q0 52-26 96.5t-70 69.5q-2 287-226 414-67 38-203 81-128 40-169.5 71t-41.5 100v26q44 25 70 69.5t26 96.5q0 80-56 136t-136 56-136-56-56-136q0-52 26-96.5t70-69.5v-820q-44-25-70-69.5t-26-96.5q0-80 56-136t136-56 136 56 56 136q0 52-26 96.5t-70 69.5v497q54-26 154-57 55-17 87.5-29.5t70.5-31 59-39.5 40.5-51 28-69.5 8.5-91.5q-44-25-70-69.5t-26-96.5q0-80 56-136t136-56 136 56 56 136z" />
</symbol>

<symbol id="graduation-cap" fill-rule="evenodd" clip-rule="evenodd" stroke-linejoin="round" stroke-miterlimit="1.414">
  <path transform="scale(0.007)" d="M1774 836l18 316q4 69-82 128t-235 93.5-323 34.5-323-34.5-235-93.5-82-128l18-316 574 181q22 7 48 7t48-7zm530-324q0 23-22 31l-1120 352q-4 1-10 1t-10-1l-652-206q-43 34-71 111.5t-34 178.5q63 36 63 109 0 69-58 107l58 433q2 14-8 25-9 11-24 11h-192q-15 0-24-11-10-11-8-25l58-433q-58-38-58-107 0-73 65-111 11-207 98-330l-333-104q-22-8-22-31t22-31l1120-352q4-1 10-1t10 1l1120 352q22 8 22 31z" />
</symbol>

<symbol id="history" fill-rule="evenodd" clip-rule="evenodd" stroke-linejoin="round" stroke-miterlimit="1.414">
  <path transform="scale(0.009)" d="M1664 896q0 156-61 298t-164 245-245 164-298 61q-172 0-327-72.5t-264-204.5q-7-10-6.5-22.5t8.5-20.5l137-138q10-9 25-9 16 2 23 12 73 95 179 147t225 52q104 0 198.5-40.5t163.5-109.5 109.5-163.5 40.5-198.5-40.5-198.5-109.5-163.5-163.5-109.5-198.5-40.5q-98 0-188 35.5t-160 101.5l137 138q31 30 14 69-17 40-59 40h-448q-26 0-45-19t-19-45v-448q0-42 40-59 39-17 69 14l130 129q107-101 244.5-156.5t284.5-55.5q156 0 298 61t245 164 164 245 61 298zm-640-288v448q0 14-9 23t-23 9h-320q-14 0-23-9t-9-23v-64q0-14 9-23t23-9h224v-352q0-14 9-23t23-9h64q14 0 23 9t9 23z" />
</symbol>

<symbol id="industry" fill-rule="evenodd" clip-rule="evenodd" stroke-linejoin="round" stroke-miterlimit="1.414">
  <path transform="scale(0.009)" d="M448 0q26 0 45 19t19 45v891l536-429q17-14 40-14 26 0 45 19t19 45v379l536-429q17-14 40-14 26 0 45 19t19 45v1152q0 26-19 45t-45 19h-1664q-26 0-45-19t-19-45v-1664q0-26 19-45t45-19h384z" />
</symbol>

<symbol id="link" fill-rule="evenodd" clip-rule="evenodd" stroke-linejoin="round" stroke-miterlimit="1.414">
  <path transform="scale(0.009)" d="M1520 1216q0-40-28-68l-208-208q-28-28-68-28-42 0-72 32 3 3 19 18.5t21.5 21.5 15 19 13 25.5 3.5 27.5q0 40-28 68t-68 28q-15 0-27.5-3.5t-25.5-13-19-15-21.5-21.5-18.5-19q-33 31-33 73 0 40 28 68l206 207q27 27 68 27 40 0 68-26l147-146q28-28 28-67zm-703-705q0-40-28-68l-206-207q-28-28-68-28-39 0-68 27l-147 146q-28 28-28 67 0 40 28 68l208 208q27 27 68 27 42 0 72-31-3-3-19-18.5t-21.5-21.5-15-19-13-25.5-3.5-27.5q0-40 28-68t68-28q15 0 27.5 3.5t25.5 13 19 15 21.5 21.5 18.5 19q33-31 33-73zm895 705q0 120-85 203l-147 146q-83 83-203 83-121 0-204-85l-206-207q-83-83-83-203 0-123 88-209l-88-88q-86 88-208 88-120 0-204-84l-208-208q-84-84-84-204t85-203l147-146q83-83 203-83 121 0 204 85l206 207q83 83 83 203 0 123-88 209l88 88q86-88 208-88 120 0 204 84l208 208q84 84 84 204z" />
</symbol>

<symbol id="map-marker" fill-rule="evenodd" clip-rule="evenodd" stroke-linejoin="round" stroke-miterlimit="1.414">
  <path transform="scale(0.009)" d="M1152 640q0-106-75-181t-181-75-181 75-75 181 75 181 181 75 181-75 75-181zm256 0q0 109-33 179l-364 774q-16 33-47.5 52t-67.5 19-67.5-19-46.5-52l-365-774q-33-70-33-179 0-212 150-362t362-150 362 150 150 362z" />
</symbol>

<symbol id="plus-circle" fill-rule="evenodd" clip-rule="evenodd" stroke-linejoin="round" stroke-miterlimit="1.414">
  <path transform="scale(0.009)" d="M1344 960v-128q0-26-19-45t-45-19h-256v-256q0-26-19-45t-45-19h-128q-26 0-45 19t-19 45v256h-256q-26 0-45 19t-19 45v128q0 26 19 45t45 19h256v256q0 26 19 45t45 19h128q26 0 45-19t19-45v-256h256q26 0 45-19t19-45zm320-64q0 209-103 385.5t-279.5 279.5-385.5 103-385.5-103-279.5-279.5-103-385.5 103-385.5 279.5-279.5 385.5-103 385.5 103 279.5 279.5 103 385.5z" />
</symbol>

<symbol id="plus" fill-rule="evenodd" clip-rule="evenodd" stroke-linejoin="round" stroke-miterlimit="1.414">
  <path transform="scale(0.009)" d="M1600 736v192q0 40-28 68t-68 28h-416v416q0 40-28 68t-68 28h-192q-40 0-68-28t-28-68v-416h-416q-40 0-68-28t-28-68v-192q0-40 28-68t68-28h416v-416q0-40 28-68t68-28h192q40 0 68 28t28 68v416h416q40 0 68 28t28 68z" />
</symbol>

<symbol id="star" fill-rule="evenodd" clip-rule="evenodd" stroke-linejoin="round" stroke-miterlimit="1.414">
  <path transform="scale(0.009)" d="M1728 647q0 22-26 48l-363 354 86 500q1 7 1 20 0 21-10.5 35.5t-30.5 14.5q-19 0-40-12l-449-236-449 236q-22 12-40 12-21 0-31.5-14.5t-10.5-35.5q0-6 2-20l86-500-364-354q-25-27-25-48 0-37 56-46l502-73 225-455q19-41 49-41t49 41l225 455 502 73q56 9 56 46z" />
</symbol>

<symbol id="tasks" fill-rule="evenodd" clip-rule="evenodd" stroke-linejoin="round" stroke-miterlimit="1.414">
  <path transform="scale(0.009)" d="M1024 1408h640v-128h-640v128zm-384-512h1024v-128h-1024v128zm640-512h384v-128h-384v128zm512 832v256q0 26-19 45t-45 19h-1664q-26 0-45-19t-19-45v-256q0-26 19-45t45-19h1664q26 0 45 19t19 45zm0-512v256q0 26-19 45t-45 19h-1664q-26 0-45-19t-19-45v-256q0-26 19-45t45-19h1664q26 0 45 19t19 45zm0-512v256q0 26-19 45t-45 19h-1664q-26 0-45-19t-19-45v-256q0-26 19-45t45-19h1664q26 0 45 19t19 45z" />
</symbol>

<symbol id="times" fill-rule="evenodd" clip-rule="evenodd" stroke-linejoin="round" stroke-miterlimit="1.414">
  <path transform="scale(0.009)" d="M1490 1322q0 40-28 68l-136 136q-28 28-68 28t-68-28l-294-294-294 294q-28 28-68 28t-68-28l-136-136q-28-28-28-68t28-68l294-294-294-294q-28-28-28-68t28-68l136-136q28-28 68-28t68 28l294 294 294-294q28-28 68-28t68 28l136 136q28 28 28 68t-28 68l-294 294 294 294q28 28 28 68z" />
</symbol>

<symbol id="moon-outline">
  <path d="M20.3542 15.3542C19.3176 15.7708 18.1856 16.0001 17 16.0001C12.0294 16.0001 8 11.9706 8 7.00006C8 5.81449 8.22924 4.68246 8.64581 3.64587C5.33648 4.9758 3 8.21507 3 12.0001C3 16.9706 7.02944 21.0001 12 21.0001C15.785 21.0001 19.0243 18.6636 20.3542 15.3542Z" stroke="#4A5568" stroke-width="2" stroke-linecap="round" stroke-linejoin="round"/>
</symbol>

<symbol id="moon">
  <path d="M17.2929 13.2929C16.2886 13.7471 15.1738 13.9999 14 13.9999C9.58172 13.9999 6 10.4182 6 5.9999C6 4.82593 6.25287 3.71102 6.70712 2.70667C3.93137 3.96191 2 6.75526 2 9.9997C2 14.418 5.58172 17.9997 10 17.9997C13.2443 17.9997 16.0376 16.0685 17.2929 13.2929Z" fill="#4A5568"/>
</symbol>

<symbol id="sun-outline" fill-rule="evenodd" clip-rule="evenodd" stroke-linejoin="round" stroke-miterlimit="1.414">
  <path transform="scale(1.3)" d="M12 3V4M12 20V21M21 12H20M4 12H3M18.364 18.364L17.6569 17.6569M6.34315 6.34315L5.63604 5.63604M18.364 5.63609L17.6569 6.3432M6.3432 17.6569L5.63609 18.364M16 12C16 14.2091 14.2091 16 12 16C9.79086 16 8 14.2091 8 12C8 9.79086 9.79086 8 12 8C14.2091 8 16 9.79086 16 12Z" stroke="#4A5568" stroke-width="2" stroke-linecap="round" stroke-linejoin="round"/>
</symbol>

<symbol id="sun">
  <path transform="scale(1.3)" fill-rule="evenodd" clip-rule="evenodd" d="M10 2C10.5523 2 11 2.44772 11 3V4C11 4.55228 10.5523 5 10 5C9.44772 5 9 4.55228 9 4V3C9 2.44772 9.44772 2 10 2ZM14 10C14 12.2091 12.2091 14 10 14C7.79086 14 6 12.2091 6 10C6 7.79086 7.79086 6 10 6C12.2091 6 14 7.79086 14 10ZM13.5356 14.9497L14.2427 15.6568C14.6332 16.0473 15.2664 16.0473 15.6569 15.6568C16.0474 15.2663 16.0474 14.6331 15.6569 14.2426L14.9498 13.5355C14.5593 13.145 13.9261 13.145 13.5356 13.5355C13.1451 13.926 13.1451 14.5592 13.5356 14.9497ZM15.6568 4.34309C16.0473 4.73362 16.0473 5.36678 15.6568 5.75731L14.9497 6.46441C14.5592 6.85494 13.926 6.85494 13.5355 6.46441C13.145 6.07389 13.145 5.44072 13.5355 5.0502L14.2426 4.34309C14.6331 3.95257 15.2663 3.95257 15.6568 4.34309ZM17 11C17.5523 11 18 10.5523 18 10C18 9.44772 17.5523 9 17 9H16C15.4477 9 15 9.44772 15 10C15 10.5523 15.4477 11 16 11H17ZM10 15C10.5523 15 11 15.4477 11 16V17C11 17.5523 10.5523 18 10 18C9.44772 18 9 17.5523 9 17V16C9 15.4477 9.44772 15 10 15ZM5.05031 6.46443C5.44083 6.85496 6.074 6.85496 6.46452 6.46443C6.85505 6.07391 6.85505 5.44074 6.46452 5.05022L5.75742 4.34311C5.36689 3.95259 4.73373 3.95259 4.3432 4.34311C3.95268 4.73363 3.95268 5.3668 4.3432 5.75732L5.05031 6.46443ZM6.46443 14.9497L5.75732 15.6568C5.3668 16.0473 4.73363 16.0473 4.34311 15.6568C3.95259 15.2663 3.95259 14.6331 4.34311 14.2426L5.05022 13.5355C5.44074 13.145 6.07391 13.145 6.46443 13.5355C6.85496 13.926 6.85496 14.5592 6.46443 14.9497ZM4 11C4.55228 11 5 10.5523 5 10C5 9.44772 4.55228 9 4 9H3C2.44772 9 2 9.44772 2 10C2 10.5523 2.44772 11 3 11H4Z" fill="#4A5568"/>
</symbol>

</svg>
