<?xml version="1.0" encoding="UTF-8"?>
<svg xmlns="http://www.w3.org/2000/svg" xmlns:xlink="http://www.w3.org/1999/xlink" width="24pt" height="24pt" viewBox="0 0 24 24" version="1.1">
  <g id="surface216395">
    <path transform="scale(0.18)" style="stroke:none;fill-rule:nonzero;fill:rgb(51%,51%,51%);fill-opacity:1;" d="M 27.199219 6.398438 L 27.199219 16.800781 L 22 16.800781 L 22 27.199219 L 16.800781 27.199219 L 16.800781 37.601562 L 11.601562 37.601562 L 11.601562 48 L 6.398438 48 L 6.398438 58.398438 L 37.601562 58.398438 L 37.601562 68.800781 L 32.398438 68.800781 L 32.398438 79.199219 L 27.199219 79.199219 L 27.199219 89.601562 L 32.398438 89.601562 L 32.398438 84.398438 L 37.601562 84.398438 L 37.601562 79.199219 L 42.800781 79.199219 L 42.800781 74 L 48 74 L 48 68.800781 L 53.199219 68.800781 L 53.199219 63.601562 L 58.398438 63.601562 L 58.398438 58.398438 L 63.601562 58.398438 L 63.601562 53.199219 L 68.800781 53.199219 L 68.800781 48 L 74 48 L 74 42.800781 L 79.199219 42.800781 L 79.199219 37.601562 L 84.398438 37.601562 L 84.398438 32.398438 L 68.800781 32.398438 L 68.800781 27.199219 L 74 27.199219 L 74 22 L 79.199219 22 L 79.199219 16.800781 L 84.398438 16.800781 L 84.398438 11.601562 L 89.601562 11.601562 L 89.601562 6.398438 Z M 27.199219 89.601562 L 22 89.601562 L 22 94.800781 L 27.199219 94.800781 Z M 32.398438 16.800781 L 68.800781 16.800781 L 68.800781 22 L 63.601562 22 L 63.601562 27.199219 L 58.398438 27.199219 L 58.398438 32.398438 L 53.199219 32.398438 L 53.199219 37.601562 L 48 37.601562 L 48 42.800781 L 53.199219 42.800781 L 53.199219 48 L 58.398438 48 L 58.398438 42.800781 L 63.601562 42.800781 L 63.601562 48 L 58.398438 48 L 58.398438 53.199219 L 53.199219 53.199219 L 53.199219 48 L 48 48 L 48 42.800781 L 42.800781 42.800781 L 42.800781 48 L 37.601562 48 L 37.601562 42.800781 L 32.398438 42.800781 L 32.398438 48 L 27.199219 48 L 27.199219 42.800781 L 22 42.800781 L 22 37.601562 L 27.199219 37.601562 L 27.199219 27.199219 L 32.398438 27.199219 Z M 27.199219 37.601562 L 27.199219 42.800781 L 32.398438 42.800781 L 32.398438 37.601562 Z M 37.601562 42.800781 L 42.800781 42.800781 L 42.800781 37.601562 L 37.601562 37.601562 Z M 37.601562 42.800781 "/>
  </g>
</svg>
