<svg xmlns="http://www.w3.org/2000/svg" xmlns:xlink="http://www.w3.org/1999/xlink">

<!--=======================-->
<!-- Tools -->
<!--=======================-->

<symbol id="travisci" fill-rule="evenodd" clip-rule="evenodd" stroke-linejoin="round" stroke-miterlimit="1.414">
  <path transform="scale(0.67)" d="M20.07 9.29v-.02c.01-.04.14-.95-.08-2.24a.16.16 0 0 0-.11-.13l-.35-.1c-.08-2.71-1.2-4-1.23-4.03 1 1.6.99 3.51.97 3.96L17.1 6.1h-.04a.2.2 0 0 0-.04 0h-.03l-.01.01-.03.02-.01.01-.15.14a8.99 8.99 0 0 0-1-4.47c.03.06.8 2.33.53 4.87a3.7 3.7 0 0 1-.26.2.17.17 0 0 0-.07.13 3.9 3.9 0 0 1-.4 1.55 39.29 39.29 0 0 0-5.35 0l-.01-.04a3.88 3.88 0 0 1-.38-1.5c0-.06-.02-.1-.07-.14a3.92 3.92 0 0 1-.27-.2c-.26-2.54.51-4.81.53-4.87a9 9 0 0 0-.99 4.47l-.15-.14-.01-.01-.03-.02-.03-.01h-.04-.04l-2.18.62a7.45 7.45 0 0 1 .97-3.96c-.03.04-1.15 1.32-1.23 4.03l-.35.1a.16.16 0 0 0-.11.13c-.22 1.3-.1 2.2-.09 2.24v.02l-.08.02a5 5 0 0 0-.96.4c.16-.06.32-.1.5-.15a16.12 16.12 0 0 1 2.55-.38l1.02-.08c1.38-.08 2.75-.1 4.13-.1a67.74 67.74 0 0 1 5.16.18 21.88 21.88 0 0 1 2.55.38c.17.04.33.09.5.15a4.9 4.9 0 0 0-.97-.4l-.09-.02zM8.76 8.7a22.58 22.58 0 0 0-2.68.5c-.02-.15-.1-.94.07-2.02l2.46-.7a7.31 7.31 0 0 0 .22 2.22h-.07zm.37-.04v-.08a7 7 0 0 1-.2-1.96c.16.15.38.34.6.5.02.22.08.87.37 1.47l-.77.07zm7.58-.08v.08a29.2 29.2 0 0 0-.77-.07c.3-.6.35-1.25.37-1.48.22-.15.44-.34.6-.5.02.44 0 1.23-.2 1.97zm3.05.62a16.19 16.19 0 0 0-2.67-.5H17l.02-.03a7.2 7.2 0 0 0 .2-2.19l2.46.7a8.1 8.1 0 0 1 .07 2.02zm-2.96 6.04c.7-.02 1.07-.23 1.42-.06 0-.02-.11-.35-.6-.29a1 1 0 0 0 .07-.5c-.07-.81-.53-1.45-1.05-1.44-.51.02-.84.7-.82 1.5.03.81.47.8.98.79zm-.2-1.77a.26.26 0 1 1 0 .53.26.26 0 0 1 0-.53zm-7.84 1.91h.32c.52 0 .94.04.94-.77-.01-.8-.37-1.46-.88-1.46-.52 0-1.02.67-.99 1.48.01.21.04.36.1.47-.46.12-.58.4-.59.41.28-.15.6-.13 1.1-.13zm.45-1.72a.26.26 0 0 1 .01.53.26.26 0 1 1-.01-.53zm14.73-5.2a4.57 4.57 0 0 0-.04-.26l-.06-.27-.02-.06-.05-.04a4.68 4.68 0 0 0-.87-.53c-.25-.11-.5-.22-.76-.31a10.8 10.8 0 0 0-3.56-4.96 9.3 9.3 0 0 0-11.33 0A10.83 10.83 0 0 0 3.7 7l-.75.31c-.3.15-.6.31-.88.53l-.05.04-.02.06a3.02 3.02 0 0 0-.1.53 6.1 6.1 0 0 0-.02 1.57 6.71 6.71 0 0 0 .47 1.78l.06.13.04.06.04.07.03.05.06.03a4 4 0 0 0 .16.08l.16.07.08.04c-.7.65-1.47 1.5-2.14 2.55L0 16.21l1.18-1.03c.02-.02 1-.87 2.66-1.84l.02.19c-.1.05-.63.32-.78.45-.26.21-.27.54-.2 1.16.03.31.15.92.31 1.48.28.97.48 1.14.65 1.18.08.02.19.03.3.03.32 0 .72-.07.99-.14.3.96.75 1.83 1.28 2.6-.03 0-.05 0-.08.02l-1.82-.85-.8-.35.47.73c.04.05.84 1.3 1.5 2.15a3.6 3.6 0 0 0 3.05 1.6c.2 0 .4 0 .6-.03l1.1-.13a7.46 7.46 0 0 0 6.6-.67c.66-.15 1.4-.33 1.76-.43l.2-.05c.51-.12 1.36-.32 1.81-1.22l1.2-2.33.36-.65-.68.3c-.04.01-.9.39-1.34.62-.02 0-.03.02-.05.03.36-.74.54-1.33.6-1.56.26.06.63.05.9.05.13 0 .27-.02.36-.04.17-.05.31-.17.57-1.16.15-.58.26-1.21.28-1.53.06-.64.04-.97-.21-1.19-.13-.1-.5-.3-.7-.4l.01-.07.15.03.18-.65a7.02 7.02 0 0 1 .51-.21l.16-.07.16-.08.06-.03.03-.05.05-.07.03-.06.06-.13a4.09 4.09 0 0 0 .28-.75 6.24 6.24 0 0 0 .17-2.6zM3.68 11.27a27 27 0 0 1 .85-.17c-.26.17-.5.36-.75.55l-.1-.38zm5.9-.28c-.36.25-.76.57-1.15.96-.87.09-1.73.2-2.59.34 1.1-.51 2.37-.98 3.74-1.3zm-1.61 1.46c-.13.15-.24.3-.36.47l-.68.97 1-.66s.64-.43 1.67-.93a46 46 0 0 1 4.26-.12c-.2.16-.41.32-.63.45l-.73.44c-.46.06-.86.17-.88.18a.1.1 0 0 0-.04.01.17.17 0 0 0-.07.1l-.75 2.45-3.98.89-1.26-.88-.36-2.96c.71-.13 1.66-.28 2.8-.4zm5.4.6c.07-.01 1.45-.18 3.08-.74 1.82.14 3.3.36 4.31.54l-.36 2.52-1.26.88-3.98-.45-.74-2.44a.16.16 0 0 0-.11-.11c-.03-.01-.52-.15-1.04-.2h.1zm1.92-2.34c-.23.3-.55.67-.94 1.03a46.5 46.5 0 0 0-3.59.04 17.64 17.64 0 0 1 4.65-1.23l-.12.16zM3.97 17.36c-.2-.2-.56-1.55-.64-2.27-.06-.58-.02-.71.04-.76.07-.06.33-.2.55-.33l.3 2.46c0 .04.03.09.07.11l.62.44.08.25c-.26.07-.78.15-1.02.1zm10.04 4.66l-.38.05h-.27l.23-.51.43.46zm-.71 1.5a5.95 5.95 0 0 1-1.98-.22l.14-.02c.06 0 1.23-.16 1.76-.94h.18l.25-.01c.2-.02.39-.05.58-.09l.06.06c.4.4.9.62 1.43.66-.77.31-1.6.5-2.42.55zm7.29-6.38c-.23.75-.5 1.4-.81 2h-.22c-.24 0-.48-.02-.75-.04l-1.43-.15-1.46-1.16-.06-.05a.6.6 0 0 0-.45-.18c-.2 0-.51.08-1.26.3.39-.29.4-.66.4-.66s-.56.51-1.44.62c-.89.12-1.58-.42-1.58-.42.03.09.07.3.27.48a6.6 6.6 0 0 0-1.05-.04c-.54.03-1.3.86-1.85 1.69l-2.04.62c-.9-1.23-1.34-2.5-1.38-2.63l-.05-.15.23.16.56.4.2.13c.02.02.05.03.09.03h.04l5.2-1.17c.07 0 .11-.05.13-.1l.74-2.46a2.45 2.45 0 0 1 .68 0l.76 2.53c.02.06.08.1.15.11l.35.04 4.89.56c.04 0 .08 0 .12-.03l.49-.34.45-.32.17-.12-.09.35zm-1.16.12l-5.08-.58-.76-2.51a.17.17 0 0 0-.13-.12 3.34 3.34 0 0 0-.5-.05c-.14 0-.3.02-.5.05a.17.17 0 0 0-.12.12l-.75 2.45-5.04 1.12-2-1.4-.4-3.18.26-.15.42-.08.37 3c0 .05.03.1.07.12l1.38.96c.02.02.06.03.09.03h.04l4.15-.92.04-.02a.16.16 0 0 0 .08-.1l.75-2.46c.2-.05.7-.17 1.16-.17.45 0 .96.12 1.17.17l.74 2.46c.02.07.08.11.14.12l4.15.47c.04 0 .08 0 .12-.03l1.37-.96a.17.17 0 0 0 .07-.11l.37-2.58.69.15-.41 2.84-1.95 1.36zm3.07-3.3c.06.05.1.18.05.79a6.93 6.93 0 0 1-.57 2.25c-.21.04-.66 0-.93-.07l.1-.47.47-.33a.16.16 0 0 0 .07-.11l.34-2.34.47.28zm-.57-1.33c-.73-.16-2.33-.48-4.52-.7.72-.3 1.45-.68 2.1-1.15 1.3.18 2.26.38 2.78.5l-.36 1.35zm1.53-2.66a7.05 7.05 0 0 1-.43 1.63l-.05.1-.02.04-.07.04-.15.06-.15.07.26-.97a25.1 25.1 0 0 0-1.59-.34l.1-.02a4.3 4.3 0 0 0 .86-.32.9.9 0 0 0 .24-.19c-.96.32-2.96.17-4.73 0a48.05 48.05 0 0 0-4.87-.29c-1.64 0-3.26.12-4.88.28-1.77.19-3.76.33-4.73.01.07.08.16.14.25.19l.27.14a4.47 4.47 0 0 0 .8.23c-.87.16-1.38.3-1.44.31l.27 1.02-.02.02-.28-.13-.15-.07-.07-.04-.02-.04-.05-.1a5.3 5.3 0 0 1-.43-1.63 7.16 7.16 0 0 1 .01-1.87c.22-.18.46-.34.71-.5a16.84 16.84 0 0 1 2.21-1l.47-.16a10.27 10.27 0 0 0-1.58.38A9.47 9.47 0 0 1 12.92.55c3.8 0 7.27 2.47 8.72 6.27a12.29 12.29 0 0 0-1.57-.38 22.77 22.77 0 0 1 1.81.73c.29.13.58.28.85.44.26.14.5.3.72.49l.03.17.02.24a7.2 7.2 0 0 1-.04 1.46zm-11.6-5.55h-1.44V2.38h5.1v2.04h-1.45v-.6h-.33v2.76h.5v1.54H11.7V6.58h.5V3.82h-.33v.6z"/>
</symbol>

<symbol id="jenkins" fill-rule="evenodd" clip-rule="evenodd" stroke-linejoin="round" stroke-miterlimit="1.414">
  <path transform="scale(0.67)" d="M2.873 24h-.975c-.025-.066-.049-.131-.07-.197-.215-.666-.594-1.49-.692-2.154-.146-.984.78-1.039 1.374-1.465.915-.66 1.635-1.025 2.627-1.621.295-.178 1.182-.623 1.281-.828.201-.408-.345-.982-.49-1.301-.225-.506-.345-.936-.376-1.434-.824-.131-1.455-.627-1.844-1.185-.63-.925-1.066-2.635-.525-3.936.045-.103.254-.305.285-.463.06-.309-.105-.72-.121-1.049-.06-1.692.285-3.15 1.426-3.66.463-1.84 2.113-2.453 3.673-3.367.581-.342 1.224-.562 1.89-.807 2.372-.877 6.028-.712 7.995.783.836.633 2.176 1.971 2.656 2.939 1.262 2.555 1.17 6.826.287 9.935-.121.421-.291 1.032-.533 1.533-.168.349-.689 1.05-.625 1.36.064.314 1.189 1.17 1.432 1.395.434.422 1.26.975 1.324 1.5.07.557-.248 1.336-.41 1.875-.217.721-.436 1.441-.654 2.131H2.871l.002.016zm11.104-3.541c-.545-.299-1.361-.621-2.065-.756-.869-.164-.779 1.188-.75 1.994.03.643.361 1.316.511 1.744.075.197.089.41.255.449.3.068 1.29-.326 1.575-.479.6-.328 1.064-.844 1.574-1.189.016-.17.016-.34.031-.508-.301-.148-.645-.258-1.096-.277.314-.15.75-.15 1.035-.332l.016-.193c-.496-.031-.689-.254-1.021-.436l-.065-.017zm7.455 2.936c.193-.619.359-1.221.465-1.752.059-.287.215-.918.178-1.176-.059-.459-.684-.799-1.004-1.086-.584-.525-.951-.975-1.561-1.469-.248.375-.779.615-.982.914 1.447-.689 1.709 2.625 1.141 3.689.09.33.391.451.514.736l-.086.166h1.289c.014 0 .031 0 .045.014l.001-.036zm-6.635-.012c-.049-.074-.1-.135-.15-.209l-.301.195h.451v.014zm2.771 0c.008-.209.018-.404.029-.598-.529.029-.824-.48-1.195-.527-.324-.045-.6.361-1.02.195-.096.105-.184.227-.285.316.154.18.295.375.424.584h.816c.014-.164.135-.285.299-.285.166 0 .285.121.285.27h.66l-.013.045zm2.116 0c-.314-.479-.947-.898-1.68-.555l-.031.541h1.711v.014zm-8.51 0l-.105-.344c-.225-.721-.359-1.26-.405-1.68-.914-.436-1.875-.871-2.654-1.426-.15-.105-1.109-1.35-1.23-1.305-1.739.676-3.359 1.859-4.814 2.984.256.557.48 1.141.69 1.74h8.505l.013.031zm8.265-2.113c-.029-.512-.164-1.561-.48-1.74-.66-.391-1.846.779-2.34.943.045.15.135.271.15.48.285-.074.645-.029.898.092-.299.029-.629.029-.824.164-.074.195.016.48-.029.764.689.197 1.5.303 2.385.332.164-.227.225-.645.211-1.082l.029.047zm-4.08-.36c-.045.375.045.51.119.943 1.26.391 1.035-1.74-.135-.959l.016.016zM8.761 19.5c-.45.457 1.271 1.082 1.814 1.115 0-.291.165-.564.135-.771-.649-.117-1.502-.041-1.945-.346l-.004.002zm5.565.215c0 .043-.061.029-.068.064.58.451 1.014.545 1.803.51.354-.262.67-.563 1.043-.807-.855.074-1.932.607-2.775.229l-.003.004zm3.42-17.727c-1.605-.906-4.35-1.591-6.076-.731-1.38.692-3.27 1.841-3.899 3.292.6 1.402-.166 2.686-.226 4.109-.018.758.36 1.42.391 2.243-.2.338-.825.38-1.26.356-.146-.729-.401-1.549-1.155-1.631-1.064-.115-1.845.765-1.891 1.684-.06 1.079.834 2.864 2.086 2.745.488-.046.608-.541 1.139-.541.285.57-.445.75-.523 1.155-.016.105.059.511.104.705.233.944.744 2.159 1.245 2.88.635.9 1.884 1.051 3.229 1.141.24-.525 1.125-.48 1.706-.346-.691-.27-1.336-.945-1.875-1.529-.615-.676-1.23-1.41-1.261-2.28 1.155 1.604 2.1 2.999 4.201 3.704 1.59.525 3.449-.254 4.664-1.109.51-.359.811-.93 1.17-1.439 1.35-1.936 1.98-4.71 1.846-7.395-.061-1.111-.061-2.221-.436-2.955-.389-.781-1.695-1.471-2.475-.781-.15-.764.629-1.229 1.545-.959-.66-.855-1.336-1.859-2.266-2.385l.017.067zm-4.164 12.908c.615 1.544 2.725 1.363 4.506 1.323-.084.194-.256.435-.465.515-.57.232-2.146.408-2.938-.012-.506-.271-.824-.873-1.102-1.227-.137-.172-.795-.608-.012-.609l.011.01zm.164-.871c.893.465 2.52.518 3.732.48.066.268.066.594.068.914-1.551.08-3.387-.304-3.795-1.395h-.005zm6.676-.585c-.473.9-1.145 1.897-2.539 1.928-.023-.284-.045-.735 0-.904 1.064-.103 1.727-.646 2.543-1.017l-.004-.007zm-.649-.667c-1.02.66-2.154 1.375-3.824 1.21-.352-.31-.486-1.001-.141-1.458.182.313.061.885.57.969.945.166 2.039-.578 2.73-.84.42-.712-.045-.975-.42-1.432-.781-.931-1.83-2.1-1.801-3.51.314-.225.346.345.391.449.404.961 1.424 2.176 2.174 3 .18.211.48.391.51.525.092.389-.254.854-.209 1.109l.02-.022zm-13.44-.675c-.314-.184-.393-.99-.768-1.01-.535-.03-.438 1.049-.436 1.679-.37-.329-.435-1.364-.164-1.89-.308-.15-.445.165-.618.285.22-1.59 2.34-.734 1.989.96l-.003-.024zM4.714 5.994c-.685.756-.54 2.174-.459 3.188 1.244-.785 2.898.06 2.883 1.395.595-.016.223-.744.115-1.215-.353-1.529.592-3.188.041-4.59-1.064.083-1.939.519-2.578 1.214l-.002.008zm9.12 1.113c.307.562.404 1.148.84 1.57.195.191.574.424.387.951-.045.121-.365.391-.551.45-.674.195-2.254.03-1.721-.81.563.015 1.314.359 1.732-.045-.314-.525-.885-1.53-.674-2.13l-.013.014zm6.199-.013h.068c.33.668.6 1.375 1.004 1.965-.27.629-2.053 1.19-2.023.057.389-.17 1.049-.035 1.395-.25-.193-.556-.48-1.006-.434-1.771l-.01-.001zm-6.928-1.617c-1.422-.33-2.131.592-2.56 1.553-.384-.094-.231-.615-.135-.883.255-.701 1.28-1.633 2.119-1.506.359.057.848.386.576.834v.002zM9.643 1.592c-1.56.44-3.56 1.574-4.2 2.974.495-.07.84-.321 1.33-.351.186-.016.428.074.641.015.424-.104.78-1.065 1.102-1.409.311-.346.685-.497.941-.811.166-.09.408-.074.42-.33-.074-.075-.15-.135-.233-.105v.017z"/>
</symbol>


<symbol id="unity" fill-rule="evenodd" clip-rule="evenodd" stroke-linejoin="round" stroke-miterlimit="1.414">
  <path transform="scale(0.67)" d="M19.9 19.2L15.6 12l4.3-7.2L22 12l-2.1 7.2zm-9.5-.7L5 13.2h8.6l4.3 7.2-7.5-1.9zm0-13.1l7.5-1.9-4.3 7.2H4.9c0 .1 5.5-5.3 5.5-5.3zm11-5.4l-9.8 2.5L10.1 5H7.2L0 12l7.2 7h2.9l1.4 2.5 9.8 2.5 2.6-9.5-1.4-2.5L24 9.5 21.4 0z"/>
</symbol>

<symbol id="unity" fill-rule="evenodd" clip-rule="evenodd" stroke-linejoin="round" stroke-miterlimit="1.414">
</symbol>

<!--=======================-->
<!-- Organizations -->
<!--=======================-->

<symbol id="trello" fill-rule="evenodd" clip-rule="evenodd" stroke-linejoin="round" stroke-miterlimit="1.414">
  <path transform="scale(0.67)" d="M21 0H3C1.343 0 0 1.343 0 3v18c0 1.656 1.343 3 3 3h18c1.656 0 3-1.344 3-3V3c0-1.657-1.344-3-3-3zM10.44 18.18c0 .795-.645 1.44-1.44 1.44H4.56c-.795 0-1.44-.646-1.44-1.44V4.56c0-.795.645-1.44 1.44-1.44H9c.795 0 1.44.645 1.44 1.44v13.62zm10.44-6c0 .794-.645 1.44-1.44 1.44H15c-.795 0-1.44-.646-1.44-1.44V4.56c0-.795.646-1.44 1.44-1.44h4.44c.795 0 1.44.645 1.44 1.44v7.62z"/>
</symbol>

<symbol id="vim" fill-rule="evenodd" clip-rule="evenodd" stroke-linejoin="round" stroke-miterlimit="1.414">
  <path d="M24 11.986h-.027l-4.318-4.318 4.303-4.414V1.461l-.649-.648h-8.198l-.66.605v1.045L12.015.027V0L12 .014 11.986 0v.027l-1.29 1.291-.538-.539H2.035l-.638.692v1.885l.616.616h.72v5.31L.027 11.987H0L.014 12 0 12.014h.027l2.706 2.706v6.467l.907.523h2.322l1.857-1.904 4.166 4.166V24l.015-.014.014.014v-.028l2.51-2.509h.485c.111 0 .211-.07.25-.179l.146-.426c.028-.084.012-.172-.037-.239l1.462-1.462-.612 1.962c-.043.141.036.289.177.332.025.008.052.012.078.012h1.824c.106-.001.201-.064.243-.163l.165-.394c.025-.065.024-.138-.004-.203-.027-.065-.08-.116-.146-.142-.029-.012-.062-.019-.097-.02h-.075l.84-2.644h1.232l-1.016 3.221c-.043.141.036.289.176.332.025.008.052.012.079.012h2.002c.11 0 .207-.066.248-.17l.164-.428c.051-.138-.021-.29-.158-.341-.029-.011-.06-.017-.091-.017h-.145l1.131-3.673c.027-.082.012-.173-.039-.24l-.375-.504-.003-.005c-.051-.064-.127-.102-.209-.102h-1.436c-.071 0-.141.03-.19.081l-.4.439h-.624l-.042-.046 4.445-4.445H24L23.986 12l.014-.014zM9.838 21.139l1.579-4.509h-.501l.297-.304h1.659l-1.563 4.555h.623l-.079.258H9.838zm3.695-7.516l.15.151-.269.922-.225.226h-.969l-.181-.181.311-.871.288-.247h.895zM5.59 20.829H3.877l-.262-.15V3.091H2.379l-.1-.1V1.815l.143-.154h7.371l.213.214v1.108l-.142.173H8.785v8.688l8.807-8.688h-2.086l-.175-.188V1.805l.121-.111h7.49l.132.133v1.07L12.979 13.25h-.373c-.015-.001-.028 0-.042.001l-.02.003c-.045.01-.086.03-.119.06l-.343.295-.004.003c-.033.031-.059.069-.073.111l-.296.83-6.119 6.276zm14.768-3.952l.474-.519h1.334l.309.415-1.265 4.107h.493l-.08.209H19.84l1.124-3.564h-2.015l-1.077 3.391h.424l-.073.174h-1.605l1.107-3.548h-2.096l-1.062 3.339h.436l-.072.209H13.27l1.514-4.46H14.198l.091-.271h1.65l.519.537h.906l.491-.554h1.061l.489.535h.953z"/>
</symbol>

<symbol id="visualstudio" fill-rule="evenodd" clip-rule="evenodd" stroke-linejoin="round" stroke-miterlimit="1.414">
  <path transform="scale(0.67)" d="M23.15 2.587L18.21.21a1.494 1.494 0 0 0-1.705.29l-9.46 8.63-4.12-3.128a.999.999 0 0 0-1.276.057L.327 7.261A1 1 0 0 0 .326 8.74L3.899 12 .326 15.26a1 1 0 0 0 .001 1.479L1.65 17.94a.999.999 0 0 0 1.276.057l4.12-3.128 9.46 8.63a1.492 1.492 0 0 0 1.704.29l4.942-2.377A1.5 1.5 0 0 0 24 20.06V3.939a1.5 1.5 0 0 0-.85-1.352zm-5.146 14.861L10.826 12l7.178-5.448v10.896z"/>
</symbol>

<symbol id="jekyll" fill-rule="evenodd" clip-rule="evenodd" stroke-linejoin="round" stroke-miterlimit="1.414">
  <path d="M8.073 24c-.348 0-.689-.063-1.02-.189-1.375-.525-2.104-2.02-1.726-3.402l-.015-.006.09-.226L12.399 2.01c.105-.27.057-.91.006-1.267-.016-.085-.016-.161.008-.24l.008-.023.006-.015V.458l.009-.019c.108-.292.45-.439 1.008-.439.673 0 1.602.21 2.551.573.797.307 1.523.689 2.033 1.075.602.45.842.854.707 1.2l-.031.045-.016.015c-.045.061-.09.12-.15.165-.314.271-.764.735-.84.945l-7.063 18.421-.016-.006c-.494.948-1.457 1.557-2.543 1.561H8.07l.003.006zm-2.187-3.718l-.02.05c-.447 1.201.162 2.557 1.364 3.018.271.105.551.154.837.154.971 0 1.83-.585 2.188-1.5l.027-.061 6.959-18.09c.146-.39.84-1.02.979-1.14l.016-.016c.012-.015.02-.015.02-.03 0-.06-.061-.27-.557-.645-.479-.36-1.154-.72-1.904-1.005-.868-.328-1.768-.539-2.368-.539-.39 0-.524.082-.545.126v.04c.016.104.147 1.035-.034 1.515l-6.962 18.12v.003zm8.95-11.507s-.964 1.109-1.843 1.509c-.88.398-1.529.293-2.32.756-.789.461-1.188 1.103-1.188 1.103L6.27 20.505c-.348.944.168 2.05 1.125 2.42.96.369 2.04-.12 2.412-1.056l5.029-13.094zM9.905 18.76c.104-.041.225 0 .266.105.042.104 0 .222-.105.264-.104.043-.225 0-.266-.104-.042-.097 0-.216.105-.265zm-1.014-1.802c-.152.068-.334 0-.397-.155-.07-.152 0-.334.154-.397.154-.07.335 0 .398.153.074.15.008.314-.155.39v.009zm.286-1.096c-.123-.288 0-.623.287-.758.285-.124.615 0 .75.285.121.289 0 .624-.285.757-.3.126-.629 0-.765-.285l.013.001zm2.426-2.258c.153-.074.335 0 .398.15.07.154 0 .336-.153.399-.155.07-.337 0-.399-.155-.074-.152 0-.334.154-.397v.003zm-1.293-1.379c.105-.042.226 0 .266.105.043.104 0 .226-.104.266-.104.042-.226 0-.265-.104-.044-.106.006-.227.103-.267zM13.681 1.14c.1-.261.993-.162 1.995.226.999.384 1.729.909 1.63 1.17-.104.264-.997.164-1.996-.221-1.005-.385-1.734-.91-1.632-1.176h.003z"/>
</symbol>

<symbol id="jira" fill-rule="evenodd" clip-rule="evenodd" stroke-linejoin="round" stroke-miterlimit="1.414">
  <path transform="scale(0.67)" d="M23.323 11.33L13.001 1 12 0 4.225 7.775.67 11.33a.96.96 0 0 0 0 1.347l7.103 7.103L12 24l7.771-7.771.121-.121 3.431-3.431a.945.945 0 0 0 0-1.347zM12 15.551L8.449 12 12 8.453 15.548 12 12 15.551z"/>
</symbol>

<symbol id="unity" fill-rule="evenodd" clip-rule="evenodd" stroke-linejoin="round" stroke-miterlimit="1.414">
</symbol>

</svg>
