<svg xmlns="http://www.w3.org/2000/svg" xmlns:xlink="http://www.w3.org/1999/xlink">

<symbol id="circle" fill-rule="evenodd" clip-rule="evenodd" stroke-linejoin="round" stroke-miterlimit="1.414">
  <path transform="scale(0.009)" d="M1664 896q0 209-103 385.5t-279.5 279.5-385.5 103-385.5-103-279.5-279.5-103-385.5 103-385.5 279.5-279.5 385.5-103 385.5 103 279.5 279.5 103 385.5z" />
</symbol>

<symbol id="code-fork" fill-rule="evenodd" clip-rule="evenodd" stroke-linejoin="round" stroke-miterlimit="1.414">
  <path transform="scale(0.009)" d="M672 1472q0-40-28-68t-68-28-68 28-28 68 28 68 68 28 68-28 28-68zm0-1152q0-40-28-68t-68-28-68 28-28 68 28 68 68 28 68-28 28-68zm640 128q0-40-28-68t-68-28-68 28-28 68 28 68 68 28 68-28 28-68zm96 0q0 52-26 96.5t-70 69.5q-2 287-226 414-67 38-203 81-128 40-169.5 71t-41.5 100v26q44 25 70 69.5t26 96.5q0 80-56 136t-136 56-136-56-56-136q0-52 26-96.5t70-69.5v-820q-44-25-70-69.5t-26-96.5q0-80 56-136t136-56 136 56 56 136q0 52-26 96.5t-70 69.5v497q54-26 154-57 55-17 87.5-29.5t70.5-31 59-39.5 40.5-51 28-69.5 8.5-91.5q-44-25-70-69.5t-26-96.5q0-80 56-136t136-56 136 56 56 136z" />
</symbol>

<symbol id="star" fill-rule="evenodd" clip-rule="evenodd" stroke-linejoin="round" stroke-miterlimit="1.414">
  <path transform="scale(0.009)" d="M1728 647q0 22-26 48l-363 354 86 500q1 7 1 20 0 21-10.5 35.5t-30.5 14.5q-19 0-40-12l-449-236-449 236q-22 12-40 12-21 0-31.5-14.5t-10.5-35.5q0-6 2-20l86-500-364-354q-25-27-25-48 0-37 56-46l502-73 225-455q19-41 49-41t49 41l225 455 502 73q56 9 56 46z" />
</symbol>

</svg>
