<svg xmlns="http://www.w3.org/2000/svg" xmlns:xlink="http://www.w3.org/1999/xlink">

<symbol id="cplusplus" fill-rule="evenodd" clip-rule="evenodd" stroke-linejoin="round" stroke-miterlimit="1.414">
  <path transform="scale(0.67)" d="M22.393 6c-.167-.29-.398-.543-.652-.69L12.925.22c-.508-.293-1.339-.293-1.847 0L2.26 5.31c-.508.293-.923 1.013-.923 1.6v10.18c0 .294.104.62.271.91.167.29.398.543.652.689l8.816 5.091c.508.293 1.339.293 1.847 0l8.816-5.091c.254-.146.485-.399.652-.689s.271-.616.271-.91V6.91c.002-.294-.102-.62-.269-.91zM12 19.109c-3.92 0-7.109-3.189-7.109-7.109S8.08 4.891 12 4.891a7.133 7.133 0 0 1 6.156 3.552l-3.076 1.781A3.567 3.567 0 0 0 12 8.445c-1.96 0-3.554 1.595-3.554 3.555S10.04 15.555 12 15.555a3.57 3.57 0 0 0 3.08-1.778l3.077 1.78A7.135 7.135 0 0 1 12 19.109zm7.109-6.714h-.79v.79h-.79v-.79h-.79v-.79h.79v-.79h.79v.79h.79v.79zm2.962 0h-.79v.79h-.79v-.79h-.789v-.79h.789v-.79h.79v.79h.79v.79z" />
</symbol>

<symbol id="css3" fill-rule="evenodd" clip-rule="evenodd" stroke-linejoin="round" stroke-miterlimit="1.414">
  <path transform="scale(0.67)" d="M1.5 0h21l-1.91 21.563L11.977 24l-8.565-2.438L1.5 0zm17.09 4.413L5.41 4.41l.213 2.622 10.125.002-.255 2.716h-6.64l.24 2.573h6.182l-.366 3.523-2.91.804-2.956-.81-.188-2.11h-2.61l.29 3.855L12 19.288l5.373-1.53L18.59 4.414z" />
</symbol>

<symbol id="html5" fill-rule="evenodd" clip-rule="evenodd" stroke-linejoin="round" stroke-miterlimit="1.414">
  <path transform="scale(0.67)" d="M1.5 0h21l-1.91 21.563L11.977 24l-8.564-2.438L1.5 0zm7.031 9.75l-.232-2.718 10.059.003.23-2.622L5.412 4.41l.698 8.01h9.126l-.326 3.426-2.91.804-2.955-.81-.188-2.11H6.248l.33 4.171L12 19.351l5.379-1.443.744-8.157H8.531z" />
</symbol>

<symbol id="java" fill-rule="evenodd" clip-rule="evenodd" stroke-linejoin="round" stroke-miterlimit="1.414">
  <path transform="scale(0.67)" d="M8.851 18.56s-.917.534.653.714c1.902.218 2.874.187 4.969-.211 0 0 .552.346 1.321.646-4.699 2.013-10.633-.118-6.943-1.149M8.276 15.933s-1.028.761.542.924c2.032.209 3.636.227 6.413-.308 0 0 .384.389.987.602-5.679 1.661-12.007.13-7.942-1.218M13.116 11.475c1.158 1.333-.304 2.533-.304 2.533s2.939-1.518 1.589-3.418c-1.261-1.772-2.228-2.652 3.007-5.688 0-.001-8.216 2.051-4.292 6.573M19.33 20.504s.679.559-.747.991c-2.712.822-11.288 1.069-13.669.033-.856-.373.75-.89 1.254-.998.527-.114.828-.093.828-.093-.953-.671-6.156 1.317-2.643 1.887 9.58 1.553 17.462-.7 14.977-1.82M9.292 13.21s-4.362 1.036-1.544 1.412c1.189.159 3.561.123 5.77-.062 1.806-.152 3.618-.477 3.618-.477s-.637.272-1.098.587c-4.429 1.165-12.986.623-10.522-.568 2.082-1.006 3.776-.892 3.776-.892M17.116 17.584c4.503-2.34 2.421-4.589.968-4.285-.355.074-.515.138-.515.138s.132-.207.385-.297c2.875-1.011 5.086 2.981-.928 4.562 0-.001.07-.062.09-.118M14.401 0s2.494 2.494-2.365 6.33c-3.896 3.077-.888 4.832-.001 6.836-2.274-2.053-3.943-3.858-2.824-5.539 1.644-2.469 6.197-3.665 5.19-7.627M9.734 23.924c4.322.277 10.959-.153 11.116-2.198 0 0-.302.775-3.572 1.391-3.688.694-8.239.613-10.937.168 0-.001.553.457 3.393.639" />
</symbol>

<symbol id="javascript" fill-rule="evenodd" clip-rule="evenodd" stroke-linejoin="round" stroke-miterlimit="1.414">
  <path transform="scale(0.67)" d="M0 0h24v24H0V0zm22.034 18.276c-.175-1.095-.888-2.015-3.003-2.873-.736-.345-1.554-.585-1.797-1.14-.091-.33-.105-.51-.046-.705.15-.646.915-.84 1.515-.66.39.12.75.42.976.9 1.034-.676 1.034-.676 1.755-1.125-.27-.42-.404-.601-.586-.78-.63-.705-1.469-1.065-2.834-1.034l-.705.089c-.676.165-1.32.525-1.71 1.005-1.14 1.291-.811 3.541.569 4.471 1.365 1.02 3.361 1.244 3.616 2.205.24 1.17-.87 1.545-1.966 1.41-.811-.18-1.26-.586-1.755-1.336l-1.83 1.051c.21.48.45.689.81 1.109 1.74 1.756 6.09 1.666 6.871-1.004.029-.09.24-.705.074-1.65l.046.067zm-8.983-7.245h-2.248c0 1.938-.009 3.864-.009 5.805 0 1.232.063 2.363-.138 2.711-.33.689-1.18.601-1.566.48-.396-.196-.597-.466-.83-.855-.063-.105-.11-.196-.127-.196l-1.825 1.125c.305.63.75 1.172 1.324 1.517.855.51 2.004.675 3.207.405.783-.226 1.458-.691 1.811-1.411.51-.93.402-2.07.397-3.346.012-2.054 0-4.109 0-6.179l.004-.056z" />
</symbol>

<symbol id="jquery" fill-rule="evenodd" clip-rule="evenodd" stroke-linejoin="round" stroke-miterlimit="1.414">
  <path transform="scale(0.67)" d="M1.534 5.874c-2.123 3.05-1.86 7.017-.237 10.256.037.079.078.154.118.229.023.052.049.1.077.149.013.028.031.057.047.083.026.052.054.102.081.152l.157.265c.029.049.057.097.09.146.055.094.12.187.177.281.026.039.05.078.079.117a6.36 6.36 0 0 0 .31.444c.078.107.156.211.24.315.027.038.057.076.085.114l.221.269c.027.031.054.067.083.099.098.118.202.233.306.349 0 .002.003.004.005.007a3.13 3.13 0 0 0 .424.44c.08.082.16.164.245.244l.101.097c.111.104.222.208.339.308.002 0 .003.002.005.003l.057.05c.102.089.205.178.31.26l.125.105c.085.068.173.133.26.2l.136.104c.093.07.192.139.287.207.035.025.07.05.106.073l.029.023.281.185.12.08c.147.094.293.183.438.271.042.021.084.044.123.068.108.062.22.125.329.183.06.034.122.063.184.094.075.042.153.083.233.125a.324.324 0 0 1 .056.023c.033.015.064.031.096.047.12.06.245.117.375.174.024.01.05.02.076.034.144.063.288.123.437.182.034.01.07.027.105.04.135.051.274.103.411.152l.05.018c.153.052.304.102.459.15.036.01.073.023.111.033.159.048.313.105.473.136 10.26 1.87 13.242-6.169 13.242-6.169-2.505 3.262-6.95 4.122-11.16 3.165-.156-.036-.312-.086-.469-.132a13.522 13.522 0 0 1-.567-.181l-.062-.024c-.136-.046-.267-.097-.4-.148a1.613 1.613 0 0 0-.11-.041c-.147-.059-.29-.12-.432-.183-.031-.01-.057-.024-.088-.036a23.41 23.41 0 0 1-.361-.17c-.037-.016-.07-.033-.106-.052-.094-.044-.188-.094-.28-.142a3.942 3.942 0 0 1-.187-.096c-.113-.06-.226-.125-.339-.187-.034-.024-.073-.044-.112-.066a15.902 15.902 0 0 1-.438-.269 2.104 2.104 0 0 1-.118-.079 6.002 6.002 0 0 1-.312-.206c-.035-.023-.067-.048-.103-.073a9.541 9.541 0 0 1-.294-.212c-.042-.034-.087-.066-.132-.1-.088-.069-.177-.135-.265-.208l-.118-.094a10.58 10.58 0 0 1-.334-.281.258.258 0 0 0-.037-.03l-.347-.316-.1-.094c-.082-.083-.166-.163-.25-.245l-.097-.1a9.07 9.07 0 0 1-.309-.323l-.015-.016c-.106-.116-.209-.234-.313-.354-.027-.031-.052-.064-.08-.097l-.226-.277a21.248 21.248 0 0 1-.34-.448C2.16 11.786 1.315 7.386 3.184 3.777M8.121 3.305c-1.539 2.209-1.452 5.163-.254 7.499a9.1 9.1 0 0 0 .677 1.132c.23.33.484.72.792.986.107.122.223.24.344.359l.09.09c.114.11.231.218.35.325l.015.013a9.855 9.855 0 0 0 .414.342c.034.023.063.05.096.073.14.108.281.212.427.315l.015.009c.062.045.128.086.198.13.028.018.06.042.09.06.106.068.21.132.317.197.017.007.032.016.048.023.09.055.188.108.282.157.033.02.065.035.099.054.067.033.133.068.197.102l.032.014c.135.066.273.128.408.19.034.013.063.024.092.038.111.048.224.094.335.137.05.017.097.037.144.052.102.038.209.073.31.108l.14.045c.146.045.294.104.448.129 7.92 1.313 9.754-4.787 9.754-4.787-1.651 2.376-4.846 3.508-8.251 2.624a8.03 8.03 0 0 1-.448-.13c-.048-.013-.09-.028-.136-.042-.104-.036-.211-.071-.312-.109l-.144-.054c-.112-.045-.226-.087-.335-.135-.034-.015-.065-.025-.091-.04-.14-.063-.281-.125-.417-.192l-.206-.107-.119-.06c-.092-.048-.177-.098-.265-.15a.62.62 0 0 1-.062-.034c-.106-.066-.216-.13-.317-.198-.034-.019-.065-.042-.097-.062l-.208-.136c-.144-.1-.285-.208-.427-.312-.032-.029-.063-.053-.094-.079-1.497-1.177-2.678-2.786-3.238-4.608-.59-1.894-.46-4.018.559-5.742M13.66 1.384c-.908 1.332-.995 2.986-.37 4.455.664 1.56 2.022 2.785 3.604 3.365.065.025.128.046.195.07l.088.027c.092.029.185.063.28.084 4.376.844 5.56-2.247 5.879-2.701-1.042 1.496-2.789 1.855-4.932 1.334a4.844 4.844 0 0 1-.516-.16 6.344 6.344 0 0 1-.617-.254 6.521 6.521 0 0 1-1.08-.66c-1.92-1.454-3.109-4.23-1.857-6.491" />
</symbol>

<symbol id="lua" fill-rule="evenodd" clip-rule="evenodd" stroke-linejoin="round" stroke-miterlimit="1.414">
  <path transform="scale(0.67)" d="M.38 10.377l-.272-.037c-.048.344-.082.695-.101 1.041l.275.016c.018-.34.051-.682.098-1.02zM4.136 3.289l-.184-.205c-.258.232-.509.48-.746.734l.202.188c.231-.248.476-.49.728-.717zM5.769 2.059l-.146-.235c-.296.186-.586.385-.863.594l.166.219c.27-.203.554-.399.843-.578zM1.824 18.369c.185.297.384.586.593.863l.22-.164c-.205-.271-.399-.555-.58-.844l-.233.145zM1.127 16.402l-.255.104c.129.318.274.635.431.943l.005.01.245-.125-.005-.01c-.153-.301-.295-.611-.421-.922zM.298 9.309l.269.063c.076-.332.168-.664.272-.986l-.261-.087c-.108.332-.202.672-.28 1.01zM.274 12.42l-.275.01c.012.348.04.699.083 1.043l.273-.033c-.042-.336-.069-.68-.081-1.02zM.256 14.506c.073.34.162.682.264 1.014l.263-.08c-.1-.326-.187-.658-.258-.99l-.269.056zM11.573.275L11.563 0c-.348.012-.699.039-1.044.082l.034.273c.338-.041.68-.068 1.02-.08zM23.221 8.566c.1.326.186.66.256.992l.27-.059c-.072-.34-.16-.682-.262-1.014l-.264.081zM17.621 1.389c-.309-.164-.627-.314-.947-.449l-.107.252c.314.133.625.281.926.439l.128-.242zM15.693.572c-.332-.105-.67-.199-1.01-.277l-.063.268c.332.076.664.168.988.273l.085-.264zM6.674 1.545c.298-.15.606-.291.916-.418L7.486.873c-.317.127-.632.272-.937.428l-.015.008.125.244.015-.008zM23.727 11.588l.275-.01a11.797 11.797 0 0 0-.082-1.045l-.273.033c.041.338.068.682.08 1.022zM13.654.105c-.346-.047-.696-.08-1.043-.098l-.014.273c.339.018.683.051 1.019.098l.038-.273zM9.544.527l-.058-.27c-.34.072-.681.16-1.014.264l.081.262c.325-.099.659-.185.991-.256zM1.921 5.469l.231.15c.185-.285.384-.566.592-.834l-.217-.17c-.213.276-.417.563-.606.854zM.943 7.318l.253.107c.132-.313.28-.625.439-.924l-.243-.128c-.163.307-.314.625-.449.945zM18.223 21.943l.145.234c.295-.186.586-.385.863-.594l-.164-.219c-.272.204-.557.4-.844.579zM21.248 19.219l.217.17c.215-.273.418-.561.607-.854l-.23-.148c-.186.285-.385.564-.594.832zM19.855 20.715l.184.203c.258-.23.51-.479.746-.732l-.201-.188c-.23.248-.477.488-.729.717zM22.359 17.504l.244.129c.162-.307.314-.625.449-.945l-.254-.107a11.27 11.27 0 0 1-.439.923zM23.617 13.629l.273.039c.049-.346.082-.695.102-1.043l-.275-.014c-.018.338-.051.682-.1 1.018zM23.156 15.621l.264.086c.107-.332.201-.67.279-1.01l-.268-.063c-.077.333-.169.665-.275.987zM22.453 6.672c.154.303.297.617.424.932l.256-.104c-.131-.322-.277-.643-.436-.953l-.244.125zM8.296 23.418c.331.107.67.201 1.009.279l.062-.268c-.331-.076-.663-.168-.986-.273l-.085.262zM10.335 23.889c.345.049.696.082 1.043.102l.014-.275c-.339-.018-.682-.051-1.019-.098l-.038.271zM17.326 22.449c-.303.154-.613.297-.926.424l.104.256c.318-.131.639-.275.947-.434l.004-.002-.123-.246-.006.002zM4.613 21.467c.274.213.562.418.854.605l.149-.23c-.285-.184-.565-.385-.833-.592l-.17.217zM12.417 23.725l.009.275c.348-.014.699-.041 1.045-.084l-.035-.271c-.336.041-.68.068-1.019.08zM6.37 22.604c.307.162.625.314.946.449l.107-.254c-.313-.133-.624-.279-.924-.439l-.129.244zM3.083 20.041c.233.258.48.51.734.746l.188-.201c-.249-.23-.49-.477-.717-.729l-.205.184zM14.445 23.475l.059.27c.34-.074.68-.162 1.014-.266l-.082-.262c-.325.099-.659.185-.991.258zM21.18.129A2.689 2.689 0 1 0 21.18 5.507 2.689 2.689 0 1 0 21.18.129zM15.324 15.447c0 .471.314.66.852.66.67 0 1.297-.396 1.297-1.016v-.645c-.23.107-.379.141-1.107.24-.735.109-1.042.306-1.042.761zM12 2.818c-5.07 0-9.18 4.109-9.18 9.18 0 5.068 4.11 9.18 9.18 9.18 5.07 0 9.18-4.111 9.18-9.18 0-5.07-4.11-9.18-9.18-9.18zm-2.487 13.77H5.771v-6.023h.769v5.346h2.974v.677zm4.13 0h-.619v-.67c-.405.57-.811.793-1.446.793-.843 0-1.38-.463-1.38-1.182v-3.271h.686v3c0 .52.347.85.893.85.719 0 1.181-.578 1.181-1.461v-2.389h.686v4.33zm-.53-8.393c0-1.484 1.205-2.689 2.689-2.689s2.688 1.205 2.688 2.689-1.203 2.688-2.688 2.688-2.689-1.203-2.689-2.688zm5.567 7.856v.52c-.223.059-.33.074-.471.074-.34 0-.637-.238-.711-.57-.381.406-.918.637-1.471.637-.877 0-1.422-.463-1.422-1.248 0-.527.256-.916.76-1.123.266-.107.414-.141 1.389-.264.545-.066.719-.191.719-.48v-.182c0-.412-.348-.645-.967-.645-.645 0-.957.24-1.016.77h-.693c.041-1 .686-1.404 1.734-1.404 1.066 0 1.627.412 1.627 1.182v2.412c0 .215.133.338.373.338.041-.002.074-.002.149-.017z" />
</symbol>

<symbol id="markdown" fill-rule="evenodd" clip-rule="evenodd" stroke-linejoin="round" stroke-miterlimit="1.414">
  <path transform="scale(0.67)" d="M22.269 19.385H1.731a1.73 1.73 0 0 1-1.73-1.73V6.345a1.73 1.73 0 0 1 1.73-1.73h20.538a1.73 1.73 0 0 1 1.73 1.73v11.308a1.73 1.73 0 0 1-1.73 1.731zm-16.5-3.462v-4.5l2.308 2.885 2.307-2.885v4.5h2.308V8.078h-2.308l-2.307 2.885-2.308-2.885H3.461v7.847zM21.231 12h-2.308V8.077h-2.307V12h-2.308l3.461 4.039z" />
</symbol>

<symbol id="mathworks" fill-rule="evenodd" clip-rule="evenodd" stroke-linejoin="round" stroke-miterlimit="1.414">
  <path transform="scale(0.67)" d="M4.323 16.248C3.13 15.354 1.64 14.31 0 13.118l5.814-2.236 2.385 1.789c-1.789 2.087-2.981 2.832-3.876 3.578zm15.95-6.26c-.447-1.193-.745-2.385-1.193-3.578-.447-1.342-.894-2.534-1.64-3.578-.298-.447-.894-1.491-1.64-1.491-.149 0-.298.149-.447.149-.447.149-1.043 1.043-1.193 1.64-.447.745-1.342 1.938-1.938 2.683-.149.298-.447.596-.596.745-.447.298-.894.745-1.491 1.043-.149 0-.298.149-.447.149-.447 0-.745.298-1.043.447-.447.447-.894 1.043-1.342 1.491 0 .149-.149.298-.298.447l2.236 1.64c1.64-1.938 3.578-3.876 4.919-7.602 0 0-.447 4.025-4.025 8.348-2.236 2.534-4.025 3.876-4.323 4.174 0 0 .596-.149 1.193.149 1.193.447 1.789 2.087 2.236 3.279.298.894.745 1.64 1.043 2.534 1.193-.298 1.938-.745 2.683-1.491s1.491-1.64 2.236-2.385c1.342-1.64 2.981-3.727 5.068-2.683.298.149.745.447.894.596.447.298.745.596 1.193 1.043.745.596 1.043 1.043 1.64 1.342-1.491-2.981-2.534-5.963-3.727-9.093z" />
</symbol>

<symbol id="mongodb" fill-rule="evenodd" clip-rule="evenodd" stroke-linejoin="round" stroke-miterlimit="1.414">
  <path transform="scale(0.67)" d="M17.18 9.518c-1.263-5.56-4.242-7.387-4.562-8.086C12.266.939 11.885 0 11.885 0c-.002.019-.004.031-.005.049v.013h-.001c-.002.015-.003.025-.004.039v.015h-.002c0 .01-.002.018-.002.026v.026h-.003c-.001.008-.001.018-.003.025v.021h-.002c0 .007 0 .015-.002.021v.02h-.002c0 .01-.001.022-.002.032v.002c-.003.017-.006.034-.009.05v.008h-.002c-.001.004-.003.008-.003.012v.017h-.003v.022h-.005v.018h-.005v.021h-.004v.019h-.004v.017h-.006v.014h-.004v.018h-.004v.014h-.005v.013H11.8v.015h-.004c-.001.001-.001.003-.001.004v.01h-.003c-.001.002-.001.004-.001.006v.006h-.002c-.001.003-.002.008-.002.01-.003.007-.007.014-.01.021v.002c-.002.002-.004.005-.005.007v.008h-.004v.008h-.005v.008h-.003v.01h-.006v.014h-.004v.004h-.004v.008h-.004v.011h-.004v.008h-.006v.011h-.004v.008h-.005v.008h-.003v.01h-.005v.008h-.004v.006h-.004v.008h-.006V.76h-.004v.006h-.005v.008h-.004v.011h-.005v.004h-.003v.008h-.006v.004h-.004v.01h-.004v.004h-.004v.008h-.005v.006h-.003l-.002.004v.004h-.002c-.001.002-.002.002-.002.004v.001h-.001c-.001.003-.002.005-.004.007v.003h-.001c-.005.006-.008.012-.012.018v.001c-.002.002-.007.006-.009.01v.002h-.001c-.001.001-.003.002-.003.003v.003h-.002l-.003.003v.001h-.001c0 .001-.002.002-.003.004v.004h-.003l-.002.002v.002h-.002c0 .002-.002.002-.002.003v.003h-.004c0 .001-.001.002-.002.003V.92h-.003v.004h-.004V.93h-.004v.008h-.005V.93h-.005v.004h-.004V.94h-.005v.008h-.005v.004h-.004v.006h-.004v.004h-.004V.97h-.006v.004h-.004V.98h-.005v.004h-.004v.005h-.005v.01h-.002v.004h-.006v.005h-.004v.002h-.004v.004h-.005v.01h-.004v.004h-.005v.004h-.004v.006h-.005v.004h-.005v.004h-.004v.004h-.004v.01h-.004v.005h-.006v.004h-.004v.004h-.005v.006h-.004v.004h-.005v.007h-.004v.004h-.006V1.1h-.002v.004h-.004v.004h-.005v.004h-.004v.006h-.005v.004h-.003c-.001.001-.001.002-.001.002v.002h-.002l-.004.004s-.002.002-.004.003v.006h-.004v.005h-.004v.004h-.004v.004h-.003l-.003.003v.003h-.002l-.002.002v.003h-.002c-.005.006-.007.01-.014.016-.002.002-.008.007-.012.01-.012.008-.027.021-.039.032-.008.005-.016.012-.022.017v.001h-.001c-.016.013-.031.025-.049.039v.001c-.024.02-.047.039-.074.062V1.34h-.002c-.057.047-.117.1-.186.159V1.5h-.001c-.169.148-.37.338-.595.568l-.015.015-.004.004C9 3.494 6.857 6.426 6.631 11.164c-.02.392-.016.773.006 1.144v.009c.109 1.867.695 3.461 1.428 4.756v.001c.292.516.607.985.926 1.405v.001c1.102 1.455 2.227 2.317 2.514 2.526.441 1.023.4 2.779.4 2.779l.644.215s-.131-1.701.053-2.522c.057-.257.192-.476.349-.662.106-.075.42-.301.797-.645.018-.019.028-.036.044-.054 1.521-1.418 4.362-4.91 3.388-10.599z" />
</symbol>

<symbol id="mysql" fill-rule="evenodd" clip-rule="evenodd" stroke-linejoin="round" stroke-miterlimit="1.414">
  <path transform="scale(0.67)" d="M16.405 5.676c-.115 0-.193.014-.274.033v.013h.014c.054.104.146.18.214.273.054.107.1.214.154.32l.014-.015c.094-.066.14-.172.14-.333-.04-.047-.046-.094-.08-.14-.04-.067-.126-.1-.18-.153zM5.77 18.87h-.927c-.03-1.562-.123-3.03-.27-4.41h-.008l-1.41 4.41H2.45l-1.4-4.41h-.01c-.103 1.323-.168 2.793-.195 4.41H0c.055-1.966.192-3.81.41-5.53h1.15l1.335 4.064h.008L4.25 13.34h1.095c.242 2.015.384 3.86.428 5.53zm4.017-4.08c-.378 2.045-.876 3.533-1.492 4.46-.482.716-1.01 1.073-1.583 1.073-.153 0-.34-.046-.566-.138v-.494c.11.017.24.026.386.026.268 0 .483-.075.647-.222.197-.18.295-.382.295-.605 0-.155-.077-.47-.23-.944L6.23 14.79h.91l.727 2.36c.164.536.233.91.205 1.123.4-1.064.678-2.227.835-3.483h.88zM22.112 18.87h-2.63v-5.53h.885v4.85h1.745zM18.792 19.005l-1.016-.5c.09-.076.177-.158.255-.25.433-.506.648-1.258.648-2.253 0-1.83-.718-2.746-2.155-2.746-.704 0-1.254.232-1.65.697-.43.508-.646 1.256-.646 2.245 0 .972.19 1.686.574 2.14.35.41.877.615 1.583.615.264 0 .506-.033.725-.098l1.325.772.36-.622zM15.5 17.763c-.225-.36-.337-.94-.337-1.736 0-1.393.424-2.09 1.27-2.09.443 0 .77.167.977.5.224.362.336.936.336 1.723 0 1.404-.424 2.108-1.27 2.108-.445 0-.77-.167-.978-.5zM13.842 17.338c0 .47-.172.856-.516 1.156s-.803.45-1.384.45c-.543 0-1.064-.172-1.573-.515l.237-.476c.438.22.833.328 1.19.328.332 0 .593-.073.783-.22.188-.147.3-.354.3-.615 0-.33-.23-.61-.648-.845-.388-.213-1.163-.657-1.163-.657-.422-.307-.632-.636-.632-1.177 0-.45.157-.81.47-1.085.315-.278.72-.415 1.22-.415.512 0 .98.136 1.4.41l-.213.476c-.36-.152-.715-.23-1.064-.23-.283 0-.502.068-.654.206-.153.136-.248.31-.248.524 0 .328.234.61.666.85.393.215 1.187.67 1.187.67.433.305.648.63.648 1.168zM23.224 11.486c-.535-.014-.95.04-1.297.188-.1.04-.26.04-.274.167.055.053.063.14.11.214.08.134.218.313.346.407.14.11.28.216.427.31.26.16.555.255.81.416.145.094.293.213.44.313.073.05.12.14.214.172v-.02c-.046-.06-.06-.147-.105-.214-.067-.067-.134-.127-.2-.193-.194-.26-.435-.487-.695-.675-.214-.146-.682-.35-.77-.595l-.013-.014c.146-.013.32-.066.46-.106.227-.06.435-.047.67-.106.106-.027.213-.06.32-.094v-.06c-.12-.12-.21-.283-.334-.395-.34-.295-.717-.582-1.104-.823-.21-.134-.476-.22-.697-.334-.08-.04-.214-.06-.26-.127-.12-.146-.19-.34-.275-.514-.192-.368-.38-.775-.547-1.163-.12-.262-.193-.523-.34-.763-.69-1.137-1.437-1.826-2.586-2.5-.247-.14-.543-.2-.856-.274-.167-.008-.334-.02-.5-.027-.11-.047-.216-.174-.31-.235-.38-.24-1.364-.76-1.644-.072-.18.434.267.862.422 1.082.115.153.26.328.34.5.047.116.06.235.107.356.106.294.207.622.347.897.073.14.153.287.247.413.054.073.146.107.167.227-.094.136-.1.334-.154.5-.24.757-.146 1.693.194 2.25.107.166.362.534.703.393.3-.12.234-.5.32-.835.02-.08.007-.133.048-.187v.015c.094.188.188.367.274.555.206.328.566.668.867.895.16.12.287.328.487.402v-.02h-.015c-.043-.058-.1-.086-.154-.133-.12-.12-.255-.267-.35-.4-.28-.377-.527-.79-.747-1.218-.11-.21-.202-.436-.29-.643-.04-.08-.04-.2-.107-.24-.1.146-.247.273-.32.453-.127.288-.14.642-.188 1.01-.027.007-.014 0-.027.014-.214-.052-.287-.274-.367-.46-.2-.475-.233-1.238-.06-1.785.047-.14.247-.582.167-.716-.042-.127-.174-.2-.247-.303-.087-.124-.18-.285-.24-.427-.16-.374-.24-.788-.414-1.162-.08-.173-.22-.354-.334-.513-.127-.18-.267-.307-.368-.52-.033-.073-.08-.194-.027-.274.014-.054.042-.075.094-.09.088-.072.335.022.422.062.247.1.455.194.662.334.094.066.195.193.315.226h.14c.214.047.455.014.655.073.355.114.675.28.962.46.876.556 1.596 1.345 2.085 2.286.08.154.115.295.188.455.14.33.313.663.455.982.14.315.275.636.476.897.1.14.502.213.682.286.133.06.34.115.46.188.23.14.454.3.67.454.11.076.443.243.463.378z" />
</symbol>

<symbol id="node-dot-js" fill-rule="evenodd" clip-rule="evenodd" stroke-linejoin="round" stroke-miterlimit="1.414">
  <path transform="scale(0.67)" d="M11.435.153l-9.37 5.43c-.35.203-.564.578-.563.983V17.43c0 .404.215.78.564.982l9.37 5.435c.35.203.78.203 1.13 0l9.366-5.433c.35-.205.564-.578.565-.982V6.566c0-.404-.216-.78-.566-.984L12.567.152c-.35-.203-.782-.203-1.13 0" />
</symbol>

<symbol id="ocaml" fill-rule="evenodd" clip-rule="evenodd" stroke-linejoin="round" stroke-miterlimit="1.414">
  <path transform="scale(0.67)" d="M12.186 21.63c-.085-.169-.186-.523-.254-.675-.067-.135-.27-.506-.37-.625-.22-.253-.27-.27-.338-.607-.119-.574-.405-1.587-.76-2.295-.186-.372-.49-.676-.76-.946-.236-.236-.776-.624-.877-.607-.895.169-1.165 1.046-1.586 1.738-.237.388-.473.709-.659 1.114-.168.371-.152.793-.439 1.114a2.95 2.95 0 0 0-.624 1.097c-.034.084-.101.928-.186 1.13l1.317-.084c1.232.085.877.557 2.785.456l3.02-.101a5.372 5.372 0 0 0-.27-.709zm8.776-20.084H3.038a3.018 3.018 0 0 0-3.021 3.02v6.583c.439-.152 1.046-1.08 1.249-1.3.337-.388.405-.894.574-1.198.388-.709.455-1.215 1.333-1.215.405 0 .574.101.844.473.186.253.523.742.675 1.063.186.371.473.86.608.962.1.067.185.135.27.169.135.05.253-.051.354-.119.118-.1.169-.286.287-.556.169-.389.338-.827.439-.996.169-.27.236-.608.422-.76.27-.236.641-.253.742-.27.557-.118.81.27 1.08.507.186.168.422.489.608.91.135.338.304.66.388.845.068.185.237.49.338.86.101.321.337.574.439.743 0 0 .152.405 1.03.777a7.5 7.5 0 0 0 .81.286c.388.135.759.119 1.231.068.338 0 .524-.49.676-.878.084-.236.185-.894.236-1.08.05-.185-.085-.32.034-.49.135-.185.219-.202.286-.438.17-.523 1.114-.54 1.654-.54.456 0 .389.439 1.148.287.439-.085.86.05 1.317.185.388.102.76.22.979.473.135.169.489.996.135 1.03.033.033.067.118.118.151-.085.321-.422.085-.625.051-.253-.05-.439 0-.692.118-.439.186-1.063.169-1.451.49-.32.27-.32.86-.473 1.198 0 0-.422 1.063-1.316 1.721-.237.17-.692.574-1.671.726-.439.068-.86.068-1.317.05-.219-.016-.438-.016-.658-.016-.135 0-.574-.017-.557.034l-.05.118a.6.6 0 0 0 .033.169c.017.1.017.185.034.27 0 .185-.017.388 0 .574.017.388.169.742.186 1.147.017.439.236.912.455 1.266.085.135.203.152.254.32.067.186 0 .406.033.608.118.794.355 1.637.71 2.363v.017c.438-.067.894-.236 1.468-.32 1.063-.153 2.531-.085 3.476-.17 2.397-.219 3.697.98 5.84.49V4.567a3.043 3.043 0 0 0-3.038-3.021zm-8.945 14.177c0-.034 0-.034 0 0zM5.553 18.49c.169-.371.27-.777.405-1.148.135-.354.337-.86.692-1.046-.05-.05-.743-.068-.928-.085-.203-.017-.406-.05-.608-.084a22.96 22.96 0 0 1-1.148-.236c-.22-.051-.979-.321-1.13-.389-.389-.168-.642-.658-.929-.607-.185.034-.371.101-.49.287-.1.152-.134.422-.202.607-.084.203-.22.405-.32.608-.237.354-.625.675-.794 1.03-.033.084-.05.168-.084.253v4.067c.202.034.405.068.624.135 1.688.456 2.093.49 3.747.304l.152-.017c.118-.27.22-1.164.304-1.434.067-.22.152-.389.186-.591.033-.203 0-.405-.017-.59-.034-.49.354-.66.54-1.064z" />
</symbol>

<symbol id="php" fill-rule="evenodd" clip-rule="evenodd" stroke-linejoin="round" stroke-miterlimit="1.414">
  <path transform="scale(0.67)" d="M7.01 10.207h-.944l-.515 2.648h.838c.556 0 .97-.105 1.242-.314.272-.21.455-.559.55-1.049.092-.47.05-.802-.124-.995-.175-.193-.523-.29-1.047-.29zM12 5.688C5.373 5.688 0 8.514 0 12s5.373 6.313 12 6.313S24 15.486 24 12c0-3.486-5.373-6.312-12-6.312zm-3.26 7.451c-.261.25-.575.438-.917.551-.336.108-.765.164-1.285.164H5.357l-.327 1.681H3.652l1.23-6.326h2.65c.797 0 1.378.209 1.744.628.366.418.476 1.002.33 1.752a2.836 2.836 0 0 1-.305.847c-.143.255-.33.49-.561.703zm4.024.715l.543-2.799c.063-.318.039-.536-.068-.651-.107-.116-.336-.174-.687-.174H11.46l-.704 3.625H9.388l1.23-6.327h1.367l-.327 1.682h1.218c.767 0 1.295.134 1.586.401s.378.7.263 1.299l-.572 2.944h-1.389zm7.597-2.265a2.782 2.782 0 0 1-.305.847c-.143.255-.33.49-.561.703a2.44 2.44 0 0 1-.917.551c-.336.108-.765.164-1.286.164h-1.18l-.327 1.682h-1.378l1.23-6.326h2.649c.797 0 1.378.209 1.744.628.366.417.477 1.001.331 1.751zM17.766 10.207h-.943l-.516 2.648h.838c.557 0 .971-.105 1.242-.314.272-.21.455-.559.551-1.049.092-.47.049-.802-.125-.995s-.524-.29-1.047-.29z" />
</symbol>

<symbol id="postgresql" fill-rule="evenodd" clip-rule="evenodd" stroke-linejoin="round" stroke-miterlimit="1.414">
  <path transform="scale(0.67)" d="M17.128 0a10.134 10.134 0 0 0-2.755.403l-.063.02A10.922 10.922 0 0 0 12.6.258C11.422.238 10.41.524 9.594 1 8.79.721 7.122.24 5.364.336 4.14.403 2.804.775 1.814 1.82.827 2.865.305 4.482.415 6.682c.03.607.203 1.597.49 2.879s.69 2.783 1.193 4.152c.503 1.37 1.054 2.6 1.915 3.436.43.419 1.022.771 1.72.742.49-.02.933-.235 1.315-.552.186.245.385.352.566.451.228.125.45.21.68.266.413.103 1.12.241 1.948.1.282-.047.579-.139.875-.27.011.33.024.653.037.98.041 1.036.067 1.993.378 2.832.05.137.187.843.727 1.466.54.624 1.598 1.013 2.803.755.85-.182 1.931-.51 2.649-1.532.71-1.01 1.03-2.459 1.093-4.809.016-.127.035-.235.055-.336l.169.015h.02c.907.041 1.891-.088 2.713-.47.728-.337 1.279-.678 1.68-1.283.1-.15.21-.331.24-.643s-.149-.8-.446-1.025c-.595-.452-.969-.28-1.37-.197a6.27 6.27 0 0 1-1.202.146c1.156-1.947 1.985-4.015 2.458-5.845.28-1.08.437-2.076.45-2.947.013-.871-.058-1.642-.58-2.309C21.36.6 19.067.024 17.293.004c-.055-.001-.11-.002-.165-.001zm-.047.64c1.678-.016 3.822.455 5.361 2.422.346.442.449 1.088.437 1.884-.013.795-.16 1.747-.429 2.79-.522 2.02-1.508 4.375-2.897 6.488a.756.756 0 0 0 .158.086c.29.12.951.223 2.27-.048.332-.07.575-.117.827.075a.52.52 0 0 1 .183.425.704.704 0 0 1-.13.336c-.255.383-.758.746-1.403 1.045-.571.266-1.39.405-2.116.413-.364.004-.7-.024-.985-.113l-.018-.007c-.11 1.06-.363 3.153-.528 4.108-.132.77-.363 1.382-.804 1.84-.44.458-1.063.734-1.901.914-1.038.223-1.795-.017-2.283-.428-.487-.41-.71-.954-.844-1.287-.092-.23-.14-.528-.186-.926-.046-.398-.08-.885-.103-1.434a51.426 51.426 0 0 1-.03-2.523 3.061 3.061 0 0 1-1.552.76c-.689.117-1.304.002-1.671-.09a2.276 2.276 0 0 1-.52-.201c-.17-.091-.332-.194-.44-.397a.56.56 0 0 1-.057-.381.61.61 0 0 1 .218-.331c.198-.161.46-.251.855-.333.719-.148.97-.249 1.123-.37.13-.104.277-.314.537-.622a1.16 1.16 0 0 1-.003-.041 2.96 2.96 0 0 1-1.33-.358c-.15.158-.916.968-1.85 2.092-.393.47-.827.74-1.285.759-.458.02-.872-.211-1.224-.552-.703-.683-1.264-1.858-1.753-3.186-.488-1.328-.885-2.807-1.167-4.067-.283-1.26-.45-2.276-.474-2.766-.105-2.082.382-3.485 1.217-4.37.836-.885 1.982-1.22 3.099-1.284 2.005-.115 3.909.584 4.294.734.742-.504 1.698-.818 2.892-.798a7.39 7.39 0 0 1 1.681.218l.02-.009a6.854 6.854 0 0 1 .739-.214A9.626 9.626 0 0 1 17.08.642zm.152.67h-.146a8.74 8.74 0 0 0-1.704.192c1.246.552 2.187 1.402 2.85 2.25a8.44 8.44 0 0 1 1.132 1.92c.11.264.184.487.226.66.021.087.035.16.04.236.002.038.004.077-.012.144 0 .003-.005.01-.006.013.03.876-.187 1.47-.213 2.306-.02.606.135 1.318.173 2.095.036.73-.052 1.532-.526 2.319.04.048.076.096.114.144 1.254-1.975 2.158-4.16 2.64-6.023.258-1.003.395-1.912.407-2.632.01-.72-.124-1.242-.295-1.46-1.342-1.716-3.158-2.153-4.68-2.165zm-4.79.256c-1.182.003-2.03.36-2.673.895-.663.553-1.108 1.31-1.4 2.085-.347.92-.466 1.81-.513 2.414l.013-.008c.357-.2.826-.4 1.328-.516.502-.115 1.043-.151 1.533.039s.895.637 1.042 1.315c.704 3.257-.219 4.468-.559 5.382a9.61 9.61 0 0 0-.331 1.013c.043-.01.086-.022.129-.026.24-.02.428.06.54.108.342.142.577.44.704.78.033.089.057.185.071.284a.336.336 0 0 1 .02.127 55.14 55.14 0 0 0 .013 3.738c.023.538.057 1.012.1 1.386.043.373.104.657.143.753.128.32.315.739.653 1.024.338.284.823.474 1.709.284.768-.165 1.242-.394 1.559-.723.316-.329.505-.787.626-1.488.181-1.05.545-4.095.589-4.668-.02-.432.044-.764.182-1.017.142-.26.362-.419.552-.505.095-.043.184-.072.257-.093a5.956 5.956 0 0 0-.243-.325 4.456 4.456 0 0 1-.666-1.099 8.296 8.296 0 0 0-.257-.483c-.133-.24-.301-.54-.477-.877-.352-.675-.735-1.493-.934-2.29-.198-.796-.227-1.62.281-2.201.45-.516 1.24-.73 2.426-.61-.035-.105-.056-.192-.115-.332a7.817 7.817 0 0 0-1.041-1.764c-1.005-1.285-2.632-2.559-5.146-2.6h-.115zm-6.642.052c-.127 0-.254.004-.38.011-1.01.058-1.965.351-2.648 1.075-.684.724-1.134 1.911-1.036 3.876.019.372.181 1.414.459 2.652.277 1.238.67 2.695 1.142 3.982.473 1.287 1.046 2.407 1.59 2.937.274.265.512.372.728.363.217-.01.478-.135.797-.518a43.244 43.244 0 0 1 1.81-2.048 3.497 3.497 0 0 1-1.167-3.15c.103-.739.117-1.43.105-1.976-.012-.532-.05-.886-.05-1.107a.336.336 0 0 1 0-.019v-.005l-.001-.006v-.001a9.893 9.893 0 0 1 .592-3.376c.28-.744.697-1.5 1.322-2.112-.614-.202-1.704-.51-2.884-.568a7.603 7.603 0 0 0-.38-.01zM18.199 6.9c-.679.009-1.06.184-1.26.413-.283.325-.31.895-.134 1.597.175.703.537 1.489.877 2.142.17.327.335.621.468.86.134.24.232.41.292.555.055.134.116.252.178.362.263-.555.31-1.1.283-1.668-.035-.703-.198-1.422-.174-2.15.027-.851.195-1.405.21-2.063a5.793 5.793 0 0 0-.74-.048zm-8.234.115a2.82 2.82 0 0 0-.616.074 4.665 4.665 0 0 0-1.153.449 2.417 2.417 0 0 0-.349.228l-.022.02c.006.146.035.5.047 1.021.012.57-.002 1.297-.112 2.084-.239 1.71 1.002 3.126 2.46 3.128.085-.351.225-.707.365-1.082.406-1.094 1.205-1.892.532-5.006-.11-.51-.328-.716-.628-.832a1.474 1.474 0 0 0-.524-.084zm7.917.204h.05c.066.002.127.009.18.022.054.012.1.03.138.055a.164.164 0 0 1 .075.11l-.001.008h.001-.001a.24.24 0 0 1-.035.135.668.668 0 0 1-.11.15.677.677 0 0 1-.386.212.59.59 0 0 1-.41-.103.608.608 0 0 1-.13-.118.26.26 0 0 1-.063-.127.17.17 0 0 1 .042-.128.384.384 0 0 1 .117-.09c.096-.054.226-.094.373-.116.055-.008.109-.012.16-.013zm-7.82.168c.053 0 .109.005.166.013.153.021.289.062.393.122a.446.446 0 0 1 .133.106.223.223 0 0 1 .054.17.302.302 0 0 1-.075.154.649.649 0 0 1-.143.13.64.64 0 0 1-.448.113.728.728 0 0 1-.42-.228.71.71 0 0 1-.118-.164.28.28 0 0 1-.041-.177c.015-.108.104-.164.191-.195a.866.866 0 0 1 .307-.04zm9.06 7.343l-.003.001c-.147.053-.268.075-.37.12a.452.452 0 0 0-.239.214c-.063.115-.117.319-.101.666a.51.51 0 0 0 .148.07c.171.052.458.086.778.081.638-.007 1.423-.156 1.84-.35a3.95 3.95 0 0 0 .943-.615h-.001c-1.393.288-2.18.211-2.663.012a1.315 1.315 0 0 1-.332-.2zm-8.031.094h-.021c-.053.005-.13.023-.279.188-.348.39-.47.635-.757.864-.287.228-.66.35-1.405.503-.236.048-.371.101-.461.144.029.024.026.03.07.053.109.06.249.113.362.142.32.08.846.173 1.395.08.549-.094 1.12-.357 1.607-1.04.084-.118.093-.292.024-.479-.07-.187-.223-.348-.331-.393a.653.653 0 0 0-.204-.06z" />
</symbol>

<symbol id="python" fill-rule="evenodd" clip-rule="evenodd" stroke-linejoin="round" stroke-miterlimit="1.414">
  <path transform="scale(0.67)" d="M14.31.18l.9.2.73.26.59.3.45.32.34.34.25.34.16.33.1.3.04.26.02.2-.01.13V8.5l-.05.63-.13.55-.21.46-.26.38-.3.31-.33.25-.35.19-.35.14-.33.1-.3.07-.26.04-.21.02H8.83l-.69.05-.59.14-.5.22-.41.27-.33.32-.27.35-.2.36-.15.37-.1.35-.07.32-.04.27-.02.21v3.06H3.23l-.21-.03-.28-.07-.32-.12-.35-.18-.36-.26-.36-.36-.35-.46-.32-.59-.28-.73-.21-.88-.14-1.05L0 11.97l.06-1.22.16-1.04.24-.87.32-.71.36-.57.4-.44.42-.33.42-.24.4-.16.36-.1.32-.05.24-.01h.16l.06.01h8.16v-.83H6.24l-.01-2.75-.02-.37.05-.34.11-.31.17-.28.25-.26.31-.23.38-.2.44-.18.51-.15.58-.12.64-.1.71-.06.77-.04.84-.02 1.27.05 1.07.13zm-6.3 1.98l-.23.33-.08.41.08.41.23.34.33.22.41.09.41-.09.33-.22.23-.34.08-.41-.08-.41-.23-.33-.33-.22-.41-.09-.41.09-.33.22zM21.1 6.11l.28.06.32.12.35.18.36.27.36.35.35.47.32.59.28.73.21.88.14 1.04.05 1.23-.06 1.23-.16 1.04-.24.86-.32.71-.36.57-.4.45-.42.33-.42.24-.4.16-.36.09-.32.05-.24.02-.16-.01h-8.22v.82h5.84l.01 2.76.02.36-.05.34-.11.31-.17.29-.25.25-.31.24-.38.2-.44.17-.51.15-.58.13-.64.09-.71.07-.77.04-.84.01-1.27-.04-1.07-.14-.9-.2-.73-.25-.59-.3-.45-.33-.34-.34-.25-.34-.16-.33-.1-.3-.04-.25-.02-.2.01-.13v-5.34l.05-.64.13-.54.21-.46.26-.38.3-.32.33-.24.35-.2.35-.14.33-.1.3-.06.26-.04.21-.02.13-.01h5.84l.69-.05.59-.14.5-.21.41-.28.33-.32.27-.35.2-.36.15-.36.1-.35.07-.32.04-.28.02-.21V6.07h2.09l.14.01.21.03zm-6.47 14.25l-.23.33-.08.41.08.41.23.33.33.23.41.08.41-.08.33-.23.23-.33.08-.41-.08-.41-.23-.33-.33-.23-.41-.08-.41.08-.33.23z" />
</symbol>

<symbol id="ruby" fill-rule="evenodd" clip-rule="evenodd" stroke-linejoin="round" stroke-miterlimit="1.414">
  <path transform="scale(0.67)" d="M20.156.083c3.033.525 3.893 2.598 3.829 4.77L24 4.822 22.635 22.71 4.89 23.926h.016C3.433 23.864.15 23.729 0 19.139l1.645-3 2.819 6.586.503 1.172 2.805-9.144-.03.007.016-.03 9.255 2.956-1.396-5.431-.99-3.9 8.82-.569-.615-.51L16.5 2.114 20.159.073l-.003.01zM0 19.089v.026-.029.003zM5.13 5.073c3.561-3.533 8.157-5.621 9.922-3.84 1.762 1.777-.105 6.105-3.673 9.636-3.563 3.532-8.103 5.734-9.864 3.957-1.766-1.777.045-6.217 3.612-9.75l.003-.003z" />
</symbol>

<symbol id="sass" fill-rule="evenodd" clip-rule="evenodd" stroke-linejoin="round" stroke-miterlimit="1.414">
  <path transform="scale(0.67)" d="M12 0c6.627 0 12 5.373 12 12s-5.373 12-12 12S0 18.627 0 12 5.373 0 12 0zM9.615 15.998c.175.645.156 1.248-.024 1.792l-.065.18c-.024.061-.052.12-.078.176-.14.29-.326.56-.555.81-.698.759-1.672 1.047-2.09.805-.45-.262-.226-1.335.584-2.19.871-.918 2.12-1.509 2.12-1.509v-.003l.108-.061zm9.911-10.861c-.542-2.133-4.077-2.834-7.422-1.645-1.989.707-4.144 1.818-5.693 3.267C4.568 8.48 4.275 9.98 4.396 10.607c.427 2.211 3.457 3.657 4.703 4.73v.006c-.367.18-3.056 1.529-3.686 2.925-.675 1.47.105 2.521.615 2.655 1.575.436 3.195-.36 4.065-1.649.84-1.261.766-2.881.404-3.676.496-.135 1.08-.195 1.83-.104 2.101.24 2.521 1.56 2.43 2.1-.09.539-.523.854-.674.944-.15.091-.195.12-.181.181.015.09.091.09.21.075.165-.03 1.096-.45 1.141-1.471.045-1.29-1.186-2.729-3.375-2.7-.9.016-1.471.091-1.875.256-.03-.045-.061-.075-.105-.105-1.35-1.455-3.855-2.475-3.75-4.41.03-.705.285-2.564 4.8-4.814 3.705-1.846 6.661-1.335 7.171-.21.733 1.604-1.576 4.59-5.431 5.024-1.47.165-2.235-.404-2.431-.615-.209-.225-.239-.24-.314-.194-.12.06-.045.255 0 .375.12.3.585.825 1.396 1.095.704.225 2.43.359 4.5-.45 2.324-.899 4.139-3.405 3.614-5.505l.073.067z" />
</symbol>

<symbol id="scala" fill-rule="evenodd" clip-rule="evenodd" stroke-linejoin="round" stroke-miterlimit="1.414">
  <path transform="scale(0.67)" d="M4.589 24c4.537 0 13.81-1.516 14.821-3v-5.729c-.957 1.408-10.284 2.912-14.821 2.912V24zM4.589 16.365c4.537 0 13.81-1.516 14.821-3V7.636c-.957 1.408-10.284 2.912-14.821 2.912v5.817zM4.589 8.729c4.537 0 13.81-1.516 14.821-3V0C18.453 1.408 9.126 2.912 4.589 2.912v5.817z" />
</symbol>

</svg>
