<?xml version="1.0" encoding="UTF-8" standalone="no"?>
<!-- Created with Inkscape (http://www.inkscape.org/) -->

<svg
   xmlns:dc="http://purl.org/dc/elements/1.1/"
   xmlns:cc="http://creativecommons.org/ns#"
   xmlns:rdf="http://www.w3.org/1999/02/22-rdf-syntax-ns#"
   xmlns:svg="http://www.w3.org/2000/svg"
   xmlns="http://www.w3.org/2000/svg"
   xmlns:sodipodi="http://sodipodi.sourceforge.net/DTD/sodipodi-0.dtd"
   xmlns:inkscape="http://www.inkscape.org/namespaces/inkscape"
   width="141.11111mm"
   height="141.11111mm"
   viewBox="0 0 500.00001 500.00001"
   id="svg13894"
   version="1.1"
   inkscape:version="0.92.2 5c3e80d, 2017-08-06"
   sodipodi:docname="N2i_logo-black.svg"
   inkscape:export-filename="/Users/celineauzias/Dropbox/artwork/N2I/logo/2018/N2i_logo-black.png"
   inkscape:export-xdpi="108"
   inkscape:export-ydpi="108">
  <defs
     id="defs13896" />
  <sodipodi:namedview
     id="base"
     pagecolor="#ffffff"
     bordercolor="#666666"
     borderopacity="1.0"
     inkscape:pageopacity="0.0"
     inkscape:pageshadow="2"
     inkscape:zoom="0.49497475"
     inkscape:cx="-236.51865"
     inkscape:cy="-78.267721"
     inkscape:document-units="px"
     inkscape:current-layer="layer1"
     showgrid="false"
     inkscape:window-width="1440"
     inkscape:window-height="856"
     inkscape:window-x="1"
     inkscape:window-y="3"
     inkscape:window-maximized="0"
     inkscape:snap-global="false"
     fit-margin-top="0"
     fit-margin-left="0"
     fit-margin-right="0"
     fit-margin-bottom="0"
     showguides="false">
    <inkscape:grid
       type="xygrid"
       id="grid13847"
       originx="-216.75763"
       originy="-744.49768" />
  </sodipodi:namedview>
  <metadata
     id="metadata13899">
    <rdf:RDF>
      <cc:Work
         rdf:about="">
        <dc:format>image/svg+xml</dc:format>
        <dc:type
           rdf:resource="http://purl.org/dc/dcmitype/StillImage" />
        <dc:title />
      </cc:Work>
    </rdf:RDF>
  </metadata>
  <g
     inkscape:label="Calque 1"
     inkscape:groupmode="layer"
     id="layer1"
     transform="translate(-216.75763,192.13545)">
    <path
       style="opacity:1;fill:#1a1a1a;fill-opacity:1;fill-rule:nonzero;stroke:none;stroke-width:60.1957016;stroke-linecap:round;stroke-linejoin:round;stroke-miterlimit:4;stroke-dasharray:none;stroke-dashoffset:0;stroke-opacity:1"
       d="M 235.81836 32.865234 A 15.957663 33.204618 80.416557 0 0 235.24805 32.876953 A 15.957663 33.204618 80.416557 0 0 225.45703 33.802734 A 15.957663 33.204618 80.416557 0 0 195.46875 51.757812 C 195.12808 52.527807 194.99854 53.398944 195.14453 54.296875 L 197.48828 68.802734 C 197.88428 71.246201 200.15486 72.8992 202.57812 72.5 L 216.60156 70.181641 L 220.53516 94.453125 C 202.16841 99.449192 185.2932 107.82992 170.70312 118.85352 L 162.55273 108.88086 L 169.44141 103.15039 C 170.68548 102.11699 170.86882 100.2779 169.84375 99.023438 L 160.85938 88.021484 C 160.2187 87.237484 159.26285 86.876866 158.33398 86.966797 C 157.77665 87.02013 157.22442 87.229187 156.75781 87.617188 L 127.89062 111.60156 C 126.64662 112.63496 126.46193 114.476 127.48633 115.73047 L 136.48438 126.73242 C 137.50924 127.98682 139.3282 128.15638 140.57227 127.12305 L 147.47461 121.40625 L 155.89844 131.71875 C 131.11504 156.44948 115.88477 189.9726 115.88477 226.88867 C 115.88477 302.91301 180.49324 364.62305 260.10352 364.62305 C 314.25899 364.62305 361.45082 336.07126 386.10742 293.88086 C 228.68701 347.47726 154.20859 159.03674 249.32227 90.027344 L 249.94727 89.921875 L 249.89453 89.597656 C 249.92781 89.57099 249.96338 89.544171 249.99805 89.519531 C 249.95805 89.519531 249.91947 89.52627 249.88086 89.533203 L 245.96094 65.353516 L 259.39844 63.138672 C 261.82164 62.739333 263.4544 60.453168 263.05859 58.009766 L 260.79297 44.037109 L 260.80469 44.037109 A 15.957663 33.204618 80.416557 0 0 260.7793 43.947266 L 260.70117 43.503906 C 260.59317 42.84124 260.34685 42.241364 259.99805 41.720703 A 15.957663 33.204618 80.416557 0 0 235.82031 32.865234 L 235.81836 32.865234 z M 228.24219 36.107422 C 228.35152 36.113822 228.43023 36.13349 228.49023 36.160156 C 219.71044 38.552892 203.8508 47.800854 201.1582 52.761719 C 198.97154 56.790455 198.98438 62.591797 198.98438 62.591797 C 198.98438 62.591797 198.09217 57.462508 198.32031 52.853516 C 198.7043 45.093515 224.86031 35.859614 228.24219 36.107422 z M 264.31055 84.320312 A 5.3518279 5.3965365 0 0 0 258.95898 89.716797 A 5.3518279 5.3965365 0 0 0 264.31055 95.113281 A 5.3518279 5.3965365 0 0 0 269.66406 89.716797 A 5.3518279 5.3965365 0 0 0 264.31055 84.320312 z M 290.78125 87.554688 A 5.3518279 5.3965365 0 0 0 285.42969 92.951172 A 5.3518279 5.3965365 0 0 0 290.78125 98.347656 A 5.3518279 5.3965365 0 0 0 296.13281 92.951172 A 5.3518279 5.3965365 0 0 0 290.78125 87.554688 z M 316.33594 94.103516 A 5.3518279 5.3965365 0 0 0 310.98438 99.5 A 5.3518279 5.3965365 0 0 0 316.33594 104.89648 A 5.3518279 5.3965365 0 0 0 321.6875 99.5 A 5.3518279 5.3965365 0 0 0 316.33594 94.103516 z M 344.7793 96.173828 C 343.69109 96.220548 342.63269 96.744912 341.92383 97.695312 L 325.06055 120.30664 C 323.80041 121.99617 324.13502 124.37972 325.81055 125.65039 L 329.44531 128.4082 C 331.12092 129.6788 333.484 129.34188 334.74414 127.65234 L 351.60938 105.04102 C 352.86945 103.35148 352.53491 100.96598 350.85938 99.695312 L 347.22266 96.939453 C 346.48953 96.383453 345.6257 96.135556 344.7793 96.173828 z M 184.88281 117.63086 C 190.43227 117.78553 194.73033 124.55771 194.50586 132.78711 C 194.28186 141.01631 189.6121 147.60187 184.0625 147.44727 C 178.51317 147.2946 174.21512 140.45576 174.43945 132.22656 C 174.66345 123.9973 179.33341 117.47813 184.88281 117.63086 z M 262.31836 119.63477 L 261.74609 120.2207 L 258.45117 123.54102 L 258.45117 132.4082 L 260.79492 134.76562 L 262.31836 133.2168 L 262.31836 119.63477 z M 359.2793 123.4668 C 356.32383 123.467 353.92793 125.88308 353.92773 128.86328 C 353.92793 131.84341 356.32383 134.25957 359.2793 134.25977 C 362.23483 134.25963 364.63066 131.84348 364.63086 128.86328 C 364.63066 125.88301 362.23483 123.46693 359.2793 123.4668 z M 260.79492 135 L 260.54688 135.23438 L 258.45117 137.35742 L 258.45117 146.22461 L 262.31836 150.11719 L 262.31836 136.58789 L 260.79492 135 z M 376.88477 142.50781 A 5.3518279 5.3965365 0 0 0 371.5332 147.90234 A 5.3518279 5.3965365 0 0 0 376.88477 153.29883 A 5.3518279 5.3965365 0 0 0 382.23633 147.90234 A 5.3518279 5.3965365 0 0 0 376.88477 142.50781 z M 294.54492 153.28125 L 295.10352 153.86719 L 298.29492 157.12305 L 308.73633 157.12305 L 312.5 153.28125 L 294.54492 153.28125 z M 312.61719 153.38477 L 312.03125 153.9707 L 308.8418 157.24023 L 308.8418 165.95117 L 311.14648 168.26758 L 312.61719 166.74414 L 312.61719 153.38477 z M 294.42773 153.39844 L 294.42773 154.21875 L 294.42773 166.74414 L 295.92383 168.26758 L 298.22852 165.95117 L 298.22852 157.24023 L 294.42773 153.39844 z M 172.83789 160.35156 C 179.42355 160.53356 184.54927 168.60785 184.2832 178.37305 C 184.0172 188.13838 178.4604 195.899 171.875 195.7168 C 165.28993 195.5348 160.17703 187.47425 160.44336 177.70898 C 160.70936 167.94392 166.25282 160.1693 172.83789 160.35156 z M 390.80664 167.5918 A 5.3518279 5.3965365 0 0 0 385.45508 172.98828 A 5.3518279 5.3965365 0 0 0 390.80664 178.38477 A 5.3518279 5.3965365 0 0 0 396.1582 172.98828 A 5.3518279 5.3965365 0 0 0 390.80664 167.5918 z M 295.92383 168.47656 L 295.68945 168.73828 L 294.42773 170.05273 L 294.42773 183.35938 L 298.22852 179.51758 L 298.22852 170.80664 L 295.92383 168.47656 z M 311.1582 168.47656 L 310.91211 168.72461 L 308.8418 170.80664 L 308.8418 179.51758 L 312.61719 183.37305 L 312.61719 170.05273 L 311.1582 168.47656 z M 298.29492 179.63477 L 298.20312 179.74023 L 294.53125 183.47656 L 312.5 183.47656 L 308.73633 179.63477 L 298.29492 179.63477 z M 412.88867 191.02344 C 412.63667 191.01704 412.38052 191.04318 412.12305 191.08984 L 384.55273 196.32812 C 382.49247 196.71946 381.14506 198.70762 381.5332 200.78516 L 382.375 205.29297 C 382.763 207.37044 384.73466 208.72727 386.79492 208.33594 L 414.36719 203.09766 C 416.42753 202.70632 417.77297 200.71803 417.38477 198.64062 L 416.54297 194.13477 C 416.20364 192.31703 414.65147 191.0495 412.88867 191.02344 z M 131.50977 194.97461 C 134.86317 223.83554 146.42893 251.68748 164.4668 274.34961 C 160.66487 277.13948 157.81146 281.04404 156.91406 285.82031 C 155.67267 292.42871 158.51532 298.79755 163.18945 303.50195 C 167.86385 308.20622 174.43946 311.59367 182.04492 313.04688 C 189.65072 314.49914 197.00375 313.77308 203.06055 311.11914 C 203.74681 310.81914 204.43647 310.50111 205.0918 310.14258 C 211.8896 314.31105 219.03958 317.95343 226.39258 321.01562 C 226.14458 319.91103 226.04534 318.8511 226.25 317.75977 C 227.71667 309.95364 240.83968 305.84215 255.52148 308.64648 C 270.20262 311.45068 280.91979 320.10982 279.45312 327.91602 C 279.1338 329.61649 278.23306 331.13492 276.91406 332.44727 C 296.40299 333.36932 316.05265 330.54917 334.50586 324.1543 C 306.06359 348.5435 266.49148 359.16722 229.79102 352.25195 C 197.39934 346.06449 167.78435 326.42972 149.21875 298.95898 C 130.65349 271.48805 123.37079 236.51592 129.50586 203.85352 C 130.06853 200.87098 130.73717 197.90848 131.50977 194.97461 z M 352.00586 201.81055 L 351.41992 202.39648 L 346.93945 206.91406 L 346.93945 218.99805 L 350.02539 222.10938 L 352.00586 220.11719 L 352.00586 201.81055 z M 402.21289 220.39062 A 5.3518279 5.3965365 0 0 0 396.86133 225.78711 A 5.3518279 5.3965365 0 0 0 402.21289 231.18359 A 5.3518279 5.3965365 0 0 0 407.56641 225.78711 A 5.3518279 5.3965365 0 0 0 402.21289 220.39062 z M 272.47461 222.46094 L 273.04688 223.04688 L 278.08594 228.20312 L 294.60938 228.20312 L 300.2207 222.46094 L 272.47461 222.46094 z M 350.02539 222.78711 L 349.79102 223.0332 L 346.93945 225.89844 L 346.93945 237.98242 L 352.00586 243.08594 L 352.00586 224.84375 L 350.02539 222.78711 z M 300.68945 222.91602 L 300.10352 223.50195 L 295.06445 228.6582 L 295.06445 242.42188 L 298.55469 245.92383 L 300.68945 243.69727 L 300.68945 222.91602 z M 272.00586 222.92969 L 272.00586 223.75 L 272.00586 243.69727 L 274.21875 245.92383 L 277.69531 242.42188 L 277.69531 228.6582 L 272.00586 222.92969 z M 400.14062 246.53906 A 5.3518279 5.3965365 0 0 0 394.78906 251.93555 A 5.3518279 5.3965365 0 0 0 400.14062 257.33203 A 5.3518279 5.3965365 0 0 0 405.49414 251.93555 A 5.3518279 5.3965365 0 0 0 400.14062 246.53906 z M 298.55469 246.83594 L 298.30664 247.08398 L 295.06445 250.35156 L 295.06445 264.11523 L 300.68945 269.85742 L 300.68945 249.1543 L 298.55469 246.83594 z M 274.21875 246.84961 L 273.9707 247.0957 L 272.00586 249.1543 L 272.00586 269.85742 L 277.69531 264.11523 L 277.69531 250.35156 L 274.21875 246.84961 z M 278.08594 264.58398 L 277.99414 264.67578 L 272.47461 270.3125 L 300.2207 270.3125 L 294.60938 264.58398 L 278.08594 264.58398 z M 391.68164 272.76953 A 5.3518279 5.3965365 0 0 0 386.33008 278.16602 A 5.3518279 5.3965365 0 0 0 391.68164 283.5625 A 5.3518279 5.3965365 0 0 0 397.0332 278.16602 A 5.3518279 5.3965365 0 0 0 391.68164 272.76953 z M 187.31836 275.10352 C 189.27309 275.06352 191.30144 275.22967 193.37305 275.625 C 204.42105 277.73527 212.22957 285.5632 210.80664 293.13867 C 209.38337 300.71427 199.27652 305.13188 188.22852 303.02148 C 177.18038 300.91115 169.37166 293.06967 170.79492 285.49414 C 171.95125 279.33907 178.84802 275.28018 187.31836 275.10352 z M 411.50977 380.36523 L 411.50977 390.78125 L 417.00586 390.78125 L 417.00586 380.36523 L 411.50977 380.36523 z M 116.04102 380.96289 L 116.04102 413.9707 L 140.0918 413.9707 L 140.0918 408.3457 L 122.68164 408.3457 L 122.68164 380.96289 L 116.04102 380.96289 z M 153.85352 380.96289 L 140.82031 413.9707 L 147.64258 413.9707 L 150.78125 405.74219 L 162.70898 405.74219 L 165.88477 413.9707 L 172.70898 413.9707 L 159.72656 380.96289 L 153.85352 380.96289 z M 186.50977 380.96289 L 186.50977 413.9707 L 193.15039 413.9707 L 193.15039 392.82617 L 210.7168 413.9707 L 216.10742 413.9707 L 216.10742 381.01562 L 209.4668 381.01562 L 209.4668 402.63086 L 191.66602 380.96289 L 186.50977 380.96289 z M 222.77344 380.96289 L 222.77344 397.79883 C 222.77344 399.93665 223.02779 401.98777 223.54102 403.9707 C 224.08628 405.95373 224.95968 407.71424 226.14648 409.23242 C 227.33328 410.71966 228.87518 411.92209 230.76758 412.85156 C 232.69211 413.75009 235.00794 414.20508 237.73438 414.20508 C 240.36456 414.20508 242.62509 413.77185 244.51758 412.9043 C 246.40997 412.03679 247.95378 410.84857 249.14062 409.36133 C 250.35951 407.87413 251.23796 406.14895 251.7832 404.16602 C 252.36054 402.18308 252.65625 400.06065 252.65625 397.79883 L 252.65625 380.96289 L 246.06836 380.96289 L 246.06836 397.79883 C 246.06836 399.16208 245.92708 400.49554 245.63867 401.79688 C 245.38207 403.06719 244.90602 404.19013 244.23242 405.18164 C 243.59095 406.17306 242.7312 406.98382 241.64062 407.60352 C 240.58209 408.22318 239.267 408.5293 237.69531 408.5293 C 236.15572 408.5293 234.84756 408.2312 233.78906 407.64258 C 232.73058 407.02284 231.87085 406.2258 231.19727 405.23438 C 230.55553 404.24287 230.09314 403.10624 229.80469 401.83594 C 229.54822 400.53459 229.41406 399.19306 229.41406 397.79883 L 229.41406 380.96289 L 222.77344 380.96289 z M 259.34961 380.96289 L 259.34961 413.9707 L 265.99023 413.9707 L 265.99023 380.96289 L 259.34961 380.96289 z M 270.18164 380.96289 L 270.18164 386.58789 L 281.09375 386.58789 L 281.09375 413.9707 L 287.69531 413.9707 L 287.69531 386.58789 L 298.60742 386.58789 L 298.60742 380.96289 L 270.18164 380.96289 z M 313.09961 380.96289 L 313.09961 413.9707 L 325.50781 413.9707 C 328.07386 413.9707 330.3827 413.57344 332.43555 412.79883 C 334.52044 411.99328 336.29797 410.87841 337.77344 409.45312 C 339.2489 407.99689 340.37666 406.27173 341.14648 404.25781 C 341.94839 402.21293 342.34375 399.9316 342.34375 397.42188 C 342.34375 395.1601 341.99475 393.03762 341.28906 391.05469 C 340.58338 389.04068 339.52261 387.29379 338.11133 385.80664 C 336.7 384.31939 334.9431 383.13318 332.82617 382.26562 C 330.74119 381.3981 328.29835 380.96289 325.50781 380.96289 L 313.09961 380.96289 z M 347.48633 380.96289 L 347.48633 413.9707 L 371.21094 413.9707 L 371.21094 408.3457 L 354.12695 408.3457 L 354.12695 399.74023 L 368.51562 399.74023 L 368.51562 394.54492 L 354.12695 394.54492 L 354.12695 386.58789 L 370.78125 386.58789 L 370.78125 380.96289 L 347.48633 380.96289 z M 387.99414 380.96289 L 387.99414 413.9707 L 412.04492 413.9707 L 412.04492 408.3457 L 394.63477 408.3457 L 394.63477 380.96289 L 387.99414 380.96289 z M 319.74023 386.58789 L 325.50781 386.58789 C 327.1116 386.58789 328.54008 386.85614 329.79102 387.38281 C 331.07403 387.90954 332.14178 388.64888 333.00781 389.60938 C 333.87386 390.56991 334.53731 391.71461 334.98633 393.04688 C 335.43539 394.3792 335.66406 395.84174 335.66406 397.42188 C 335.66406 398.97107 335.43542 400.41183 334.98633 401.74414 C 334.53734 403.07641 333.87386 404.24287 333.00781 405.23438 C 332.17386 406.19482 331.12678 406.95593 329.84375 407.51367 C 328.59277 408.07134 327.14364 408.3457 325.50781 408.3457 L 319.74023 408.3457 L 319.74023 386.58789 z M 156.7832 388.26758 L 161.50977 401.23633 L 151.875 401.23633 L 156.7832 388.26758 z M 375.8457 422.17383 C 374.91285 422.17383 373.4443 422.2012 371.44531 422.26562 C 369.44634 422.32963 367.21733 422.46292 364.75195 422.65625 C 362.28652 422.78511 359.68503 422.97118 356.95312 423.22852 C 354.22121 423.42165 351.65656 423.68799 349.25781 424.00977 C 346.85901 424.26724 344.76778 424.58839 342.96875 424.97461 C 341.16969 425.36081 339.93788 425.77408 339.27148 426.22461 C 338.47193 426.73948 337.73663 427.76579 337.07031 429.31055 C 336.40398 430.79094 335.76957 432.5634 335.16992 434.62305 C 334.63686 436.68269 334.13833 438.90759 333.67188 441.28906 C 333.20561 443.67057 332.80794 446.01687 332.47461 448.33398 C 332.14161 450.58674 331.86604 452.70589 331.66602 454.70117 C 331.46602 456.63206 331.36719 458.21656 331.36719 459.43945 C 331.36719 461.69225 331.50482 464.066 331.77148 466.57617 C 332.10462 469.08639 332.50235 471.63055 332.96875 474.20508 C 333.50182 476.71535 334.13616 479.1948 334.86914 481.64062 C 335.60208 484.0221 336.39935 486.27444 337.26562 488.39844 C 337.59902 489.17084 337.97349 489.9836 338.37305 490.82031 C 338.77284 491.65706 339.23259 492.43067 339.76562 493.13867 C 340.23209 493.78227 341.36499 494.32877 343.16406 494.7793 C 345.02971 495.16557 347.19665 495.5122 349.66211 495.83398 C 352.19411 496.09166 354.89461 496.31688 357.75977 496.50977 C 360.62501 496.63863 363.35251 496.73241 365.95117 496.79688 C 368.61642 496.86152 370.98127 496.92773 373.04688 496.99219 L 377.44727 496.99219 C 380.04592 496.99219 382.84725 497.03149 385.8457 497.0957 C 388.84415 497.16034 391.83164 497.02677 394.83008 496.70508 C 397.82856 496.38329 400.70559 495.77024 403.4375 494.86914 C 406.23608 493.90367 408.62601 492.45242 410.625 490.52148 C 410.958 490.19968 411.29362 489.33206 411.62695 487.91602 C 411.95996 486.49997 412.25876 484.83519 412.52539 482.9043 C 412.85846 480.90897 413.134 478.74874 413.33398 476.43164 C 413.60018 474.11452 413.79831 471.92878 413.93164 469.86914 C 414.13164 467.74514 414.2556 465.88064 414.32227 464.27148 C 414.4556 462.66236 414.55638 461.52837 414.62305 460.88477 C 414.68971 460.1124 414.72656 459.34075 414.72656 458.56836 L 414.72656 456.05469 C 414.72656 455.21797 414.68993 454.09768 414.62305 452.68164 C 414.55638 451.2656 414.4556 449.7203 414.32227 448.04688 C 414.2556 446.30906 414.13164 444.50915 413.93164 442.64258 C 413.79831 440.77604 413.62383 439.00359 413.42383 437.33008 C 413.22403 435.65661 412.96419 434.17791 412.63086 432.89062 C 412.36452 431.53903 412.06579 430.49906 411.73242 429.79102 C 411.33261 428.9543 410.32381 428.19433 408.72461 427.48633 C 407.12541 426.77829 405.19515 426.12613 402.92969 425.54688 C 400.7308 424.96761 398.3408 424.48779 395.74219 424.10156 C 393.14347 423.65083 390.57888 423.29054 388.04688 423.0332 C 385.51483 422.71154 383.15002 422.498 380.95117 422.36914 C 378.81895 422.24027 377.11175 422.17383 375.8457 422.17383 z M 212.22656 422.36914 L 173.15039 422.55273 C 173.81659 434.91064 174.27826 447.21029 174.54492 459.43945 C 174.81125 471.66869 175.12177 483.95654 175.45508 496.31445 L 197.04492 496.90039 C 197.44472 488.21124 197.94137 479.58975 198.54102 471.0293 C 199.20735 462.4045 199.84367 453.74189 200.44336 445.05273 C 202.10918 449.04332 203.76386 453.00152 205.42969 456.92773 C 207.09547 460.85396 208.86283 464.78471 210.72852 468.71094 C 213.26052 474.05311 215.8019 479.35686 218.33398 484.63477 C 220.86598 489.84828 223.39179 495.12657 225.92383 500.46875 C 227.9228 500.14676 229.9288 499.89407 231.92773 499.70117 C 233.99333 499.50784 236.02251 499.41406 238.02148 499.41406 C 242.08607 499.41406 246.1813 499.50783 250.3125 499.70117 C 250.37917 494.03713 250.41602 488.46512 250.41602 482.99414 C 250.48268 477.45884 250.50781 471.86131 250.50781 466.19727 C 250.50781 459.50336 250.40893 452.84044 250.20898 446.21094 C 250.00925 439.58147 249.77253 432.91852 249.50586 426.22461 L 229.32227 423.90625 C 229.4556 432.01616 229.61836 440.06571 229.81836 448.04688 C 230.08503 456.02803 230.25951 464.03843 230.32617 472.08398 C 228.39385 467.06354 226.4636 462.07905 224.53125 457.12305 C 222.59889 452.1026 220.8548 447.05155 219.32227 441.9668 C 218.25617 438.61986 217.12325 435.3276 215.92383 432.10938 C 214.79107 428.82684 213.55919 425.58741 212.22656 422.36914 z M 159.25781 426.41992 C 151.92825 426.93479 144.67091 427.38721 137.47461 427.77344 C 130.34501 428.09537 123.14774 428.38915 115.88477 428.64648 C 116.0181 431.34977 116.11888 434.04086 116.18555 436.74414 C 116.31888 439.38307 116.44284 442.06229 116.57617 444.76562 L 126.08008 445.92383 C 126.54674 451.9097 126.96959 457.86756 127.36914 463.78906 C 127.83535 469.71058 128.23503 475.69392 128.56836 481.74414 L 122.08398 481.83594 C 122.28398 484.9898 122.40794 488.10779 122.47461 491.19727 C 122.54128 494.22238 122.57812 497.31493 122.57812 500.46875 L 158.46289 499.89648 C 158.12982 498.35174 157.89309 496.76531 157.75977 495.15625 C 157.6931 493.54713 157.65625 491.947 157.65625 490.33789 L 157.65625 484.54492 C 157.65624 482.61402 157.73189 480.70838 157.86523 478.8418 L 147.66992 478.64648 C 147.60326 475.9432 147.5276 473.30314 147.46094 470.72852 L 147.46094 462.7207 L 147.46094 456.05469 C 147.5276 453.86628 147.60326 451.65309 147.66992 449.40039 L 158.76367 449.7793 C 158.89701 445.91743 158.92021 442.06494 158.85352 438.20312 C 158.78685 434.2769 158.92444 430.34614 159.25781 426.41992 z M 289.5957 426.61523 C 285.73099 426.61523 281.89766 426.68187 278.09961 426.81055 C 274.36819 426.87519 270.56971 426.92779 266.70508 426.99219 L 266.70508 446.40625 L 266.70508 455 C 266.70508 462.53061 266.66844 470.02007 266.60156 477.48633 C 266.5349 484.88815 266.33529 492.36587 266.00195 499.89648 L 292.29102 499.02344 C 292.29102 494.19606 292.15534 489.39766 291.88867 484.63477 C 291.6222 479.80748 291.16054 474.98362 290.49414 470.15625 C 293.49263 469.57698 296.49374 469.12452 299.49219 468.80273 C 302.55731 468.41654 305.58164 467.89559 308.58008 467.25195 L 305.78125 457.60352 L 289.19336 456.53711 L 288.39844 448.24219 C 294.12874 447.72705 299.77984 447.36671 305.37695 447.17383 C 311.04073 446.9807 316.7811 446.72801 322.57812 446.40625 C 322.57812 443.25238 322.37805 440.13439 321.97852 437.04492 C 321.64512 433.89106 321.27261 430.75939 320.87305 427.66992 C 315.6091 427.41265 310.37897 427.18554 305.18164 426.99219 C 299.98435 426.73485 294.79304 426.61523 289.5957 426.61523 z M 372.94336 448.13867 C 373.87626 448.13867 375.48254 448.17797 377.74805 448.24219 C 380.01352 448.24219 382.34148 448.33638 384.74023 448.5293 C 387.20561 448.72243 389.44634 449.04165 391.44531 449.49219 C 393.51091 449.94273 394.80478 450.55573 395.33789 451.32812 C 396.07074 452.4223 396.50729 453.71496 396.64062 455.19531 C 396.77396 456.61137 396.83594 457.9569 396.83594 459.24414 C 396.83594 459.95218 396.7993 461.11159 396.73242 462.7207 C 396.73242 464.26542 396.67046 465.90475 396.53711 467.64258 C 396.40378 469.31605 396.20417 470.88874 395.9375 472.36914 C 395.67116 473.78517 395.33555 474.71938 394.93555 475.16992 C 394.40241 475.74919 393.20748 476.26822 391.3418 476.71875 C 389.54272 477.10502 387.53678 477.46533 385.33789 477.78711 C 383.20567 478.04444 381.1396 478.23044 379.14062 478.35938 C 377.20832 478.48824 375.85234 478.55469 375.05273 478.55469 L 372.55273 478.55469 C 371.42003 478.49005 370.08722 478.42383 368.55469 478.35938 C 367.08874 478.23091 365.55814 478.09761 363.95898 477.96875 C 362.35983 477.83989 360.82724 477.67927 359.36133 477.48633 C 357.96204 477.22866 356.75533 476.97612 355.75586 476.71875 C 354.75644 476.46129 354.15898 476.16751 353.95898 475.8457 C 353.62598 475.39518 353.36407 474.69011 353.16406 473.72461 C 353.03073 472.75918 352.8931 471.73289 352.75977 470.63867 C 352.62643 469.5445 352.5276 468.47709 352.46094 467.44727 L 352.46094 465.13086 C 352.46094 464.55158 352.49757 463.61737 352.56445 462.33008 C 352.63112 460.97848 352.7319 459.59378 352.86523 458.17773 C 353.06477 456.69738 353.26289 455.34984 353.46289 454.12695 C 353.72962 452.83961 354.05354 451.97398 354.45312 451.52344 C 354.85292 450.94417 355.9238 450.46434 357.65625 450.07812 C 359.38869 449.62746 361.25688 449.26711 363.25586 449.00977 C 365.32146 448.6881 367.24971 448.46286 369.04883 448.33398 C 370.91451 448.20512 372.21042 448.13867 372.94336 448.13867 z "
       transform="matrix(0.93749995,0,0,0.93749995,216.75763,-192.13545)"
       id="path13688" />
  </g>
</svg>
