<svg xmlns="http://www.w3.org/2000/svg" xmlns:xlink="http://www.w3.org/1999/xlink">

<symbol id="arduino" fill-rule="evenodd" clip-rule="evenodd" stroke-linejoin="round" stroke-miterlimit="1.414">
  <path transform="scale(0.67)" d="M23.82 12a5.78 5.78 0 0 0-5.88-5.67c-.29 0-.6.02-.9.05-2.52.37-4.2 2.18-5.13 3.57-.95-1.39-2.64-3.2-5.14-3.57-.3-.03-.6-.05-.9-.05A5.78 5.78 0 0 0 0 12a5.78 5.78 0 0 0 5.87 5.67c.3 0 .6-.02.92-.06 2.52-.36 4.2-2.17 5.14-3.56.95 1.39 2.63 3.2 5.14 3.57.31.03.6.05.91.05A5.78 5.78 0 0 0 23.82 12zM6.48 15.6c-.2.04-.43.04-.63.04A3.77 3.77 0 0 1 2 11.98a3.78 3.78 0 0 1 3.86-3.66c.2 0 .42.02.63.04 2.37.35 3.82 2.67 4.31 3.62-.5.95-1.95 3.3-4.31 3.62zM13 12c.49-.93 1.94-3.27 4.31-3.62.2-.04.42-.04.62-.04A3.76 3.76 0 0 1 21.8 12a3.78 3.78 0 0 1-3.86 3.66c-.2 0-.42-.02-.62-.04-2.36-.35-3.82-2.69-4.31-3.62zm-8.79.59h3.54v-1.16H4.22v1.16zm14.13 0h1.19v-1.16h-1.2v-1.19H17.2v1.2H16v1.15h1.2v1.18h1.15V12.6zM24 7.06c0 .3-.22.51-.53.51a.51.51 0 0 1-.53-.5c0-.28.24-.52.53-.52.31 0 .53.22.53.51zm-.91 0c0 .22.16.4.4.4.22 0 .38-.18.38-.4s-.16-.4-.38-.4c-.24-.02-.4.16-.4.4zm.3.26h-.1V6.8l.2-.01c.09 0 .14.01.18.03.04.02.06.06.06.11 0 .06-.04.1-.11.11.05.02.07.06.09.13l.03.13h-.12c-.02-.02-.02-.07-.04-.13-.02-.05-.04-.07-.11-.07h-.05l-.02.22zm.02-.3h.06c.07 0 .1-.01.1-.07 0-.05-.03-.07-.1-.07h-.07v.14h.01z" />
</symbol>

<symbol id="codacy" fill-rule="evenodd" clip-rule="evenodd" stroke-linejoin="round" stroke-miterlimit="1.414">
  <path transform="scale(0.67)" d="M3.883 9.825a8.46 8.46 0 0 1 3.875-5.07l.04-.021-1.803-3.113C3.276 3.212 1.268 5.769.427 8.81l-.02.084zM9.824 3.894a8.246 8.246 0 0 1 2.164-.283h.005V.016h-.019a12.05 12.05 0 0 0-3.165.421l.084-.02zM14.178 3.897a8.449 8.449 0 0 1 5.063 3.875l.021.04 3.117-1.799c-1.591-2.718-4.146-4.726-7.186-5.568l-.084-.02zM0 12v.006c0 1.1.148 2.165.425 3.177l-.02-.084 3.476-.929a8.14 8.14 0 0 1-.284-2.161v-.008zM1.605 17.995c.55.941 1.18 1.754 1.901 2.475l2.553-2.54a8.56 8.56 0 0 1-1.313-1.695l-.022-.04zM5.995 22.38a11.77 11.77 0 0 0 5.967 1.604h.021-.001v-3.595h-.004a8.308 8.308 0 0 1-4.223-1.145l.039.021zM19.259 16.205a8.44 8.44 0 0 1-5.034 3.884l-.059.014.931 3.476c3.124-.86 5.681-2.863 7.246-5.52l.031-.056zM23.577 15.221c.268-.947.423-2.035.423-3.159 0-1.087-.144-2.14-.415-3.142l.019.084-3.486.931c.175.64.275 1.374.275 2.132 0 .79-.109 1.555-.313 2.28l.014-.059z" />
</symbol>

<symbol id="git" fill-rule="evenodd" clip-rule="evenodd" stroke-linejoin="round" stroke-miterlimit="1.414">
  <path transform="scale(0.67)" d="M23.546 10.93L13.067.452c-.604-.603-1.582-.603-2.188 0L8.708 2.627l2.76 2.76c.645-.215 1.379-.07 1.889.441.516.515.658 1.258.438 1.9l2.658 2.66c.645-.223 1.387-.078 1.9.435.721.72.721 1.884 0 2.604-.719.719-1.881.719-2.6 0-.539-.541-.674-1.337-.404-1.996L12.86 8.955v6.525c.176.086.342.203.488.348.713.721.713 1.883 0 2.6-.719.721-1.889.721-2.609 0-.719-.719-.719-1.879 0-2.598.182-.18.387-.316.605-.406V8.835c-.217-.091-.424-.222-.6-.401-.545-.545-.676-1.342-.396-2.009L7.636 3.7.45 10.881c-.6.605-.6 1.584 0 2.189l10.48 10.477c.604.604 1.582.604 2.186 0l10.43-10.43c.605-.603.605-1.582 0-2.187" />
</symbol>

<symbol id="appveyor" fill-rule="evenodd" clip-rule="evenodd" stroke-linejoin="round" stroke-miterlimit="1.414">
  <path transform="scale(0.67)" d="M 12,0 C 18.6,0 24,5.4 24,12 24,18.6 18.6,24 12,24 5.4,24 0,18.6 0,12 0,5.4 5.4,0 12,0 Z m 2.94,14.34 C 16.26,12.66 16.08,10.26 14.4,9 12.78,7.74 10.38,8.04 9,9.72 7.68,11.4 7.86,13.8 9.54,15.06 c 1.68,1.26 4.08,0.96 5.4,-0.72 z m -6.42,7.8 c 0.72,0.3 2.28,0.6 3.06,0.6 l 5.22,-7.56 c 1.68,-2.52 1.26,-5.94 -1.08,-7.8 -2.1,-1.68 -5.04,-1.62 -7.14,0 l -7.26,5.58 c 0.18,1.92 0.72,2.88 0.72,2.94 l 4.14,-4.5 c -0.3,1.98 0.42,4.02 2.1,5.28 1.44,1.14 3.18,1.44 4.86,1.08 z" />
</symbol>

<symbol id="microsoftpowerpoint" fill-rule="evenodd" clip-rule="evenodd" stroke-linejoin="round" stroke-miterlimit="1.414">
  <path transform="scale(0.67)" d="M23.484 4h-8.542v3.186c.515-.39 1.132-.588 1.855-.588v3.098h3.074c-.015.869-.315 1.602-.901 2.193-.584.592-1.318.896-2.188.916-.675-.02-1.29-.223-1.829-.615v2.129h6.719v1.045h-6.721v1.293h6.715v1.032h-6.719v2.34h8.543c.346 0 .51-.182.51-.537V4.51c0-.342-.164-.51-.51-.51h-.006zM17.28 9.186V6.062c.87.02 1.6.322 2.188.91.586.588.891 1.326.906 2.214H17.28zm-9.024.052c-.053-.201-.14-.357-.263-.472-.12-.112-.282-.194-.483-.246-.225-.061-.457-.09-.69-.09l-.72.014v2.999h.026c.261.016.535.016.825 0 .285-.015.555-.09.809-.225.313-.225.5-.525.561-.914.06-.391.039-.766-.064-1.111v.045zM0 3.059v17.946l13.688 2.365V.63L0 3.059zm10.213 8.087c-.375.869-.935 1.425-1.684 1.665-.749.239-1.558.332-2.429.279v3.422l-1.801-.209V6.901l2.859-.149c.53-.033 1.054.025 1.566.18.515.152.922.459 1.223.922.3.461.469.996.51 1.605.037.609-.043 1.172-.244 1.687z" />
</symbol>

<symbol id="microsoftaccess" fill-rule="evenodd" clip-rule="evenodd" stroke-linejoin="round" stroke-miterlimit="1.414">
  <path transform="scale(0.67)" d="M24 15.019c-.051.542-.773.975-2.165 1.29-1.392.32-3.138.479-5.24.479-.621 0-1.216-.008-1.785-.026v3.283c.569.033 1.164.053 1.785.053 2.094-.02 3.84-.205 5.234-.563s2.12-.808 2.171-1.351v-3.165zm-7.432-2.367c-.603 0-1.199-.016-1.784-.051l.026 3.345c.57.016 1.163.03 1.785.03 2.1-.015 3.848-.195 5.239-.555 1.392-.346 2.115-.795 2.165-1.335V10.86c-.051.543-.776.978-2.178 1.305-1.399.33-3.15.495-5.254.495v-.008zm0-4.122c-.603 0-1.199-.019-1.784-.053v3.335c.585.034 1.182.053 1.784.053 2.101-.019 3.855-.203 5.254-.555 1.401-.354 2.127-.803 2.178-1.346V6.759c-.051.544-.776.976-2.178 1.294-1.399.317-3.15.479-5.254.479V8.53zm0-4.627c-.603 0-1.199.025-1.784.077v3.697c.585.034 1.182.05 1.784.05 2.101-.015 3.855-.199 5.254-.548 1.402-.348 2.127-.8 2.178-1.351-.051-.542-.776-.995-2.178-1.356-1.399-.36-3.15-.54-5.254-.556v-.013zM6.474 9.111c-.032.197-.171.824-.412 1.875l-.45 1.834 1.8.025-.42-1.835c-.256-1.069-.421-1.709-.451-1.89h-.06l-.007-.009zM0 3.153v17.759l13.545 2.338V.75L0 3.153zm8.284 13.234l-.504-2.002-2.494-.09-.479 1.886-1.591-.105 2.419-8.475 1.85-.104 2.639 8.995-1.845-.105h.005z" />
</symbol>

<symbol id="codecov" fill-rule="evenodd" clip-rule="evenodd" stroke-linejoin="round" stroke-miterlimit="1.414">
  <path transform="scale(0.67)" d="M12.007.48C5.391.485.005 5.831 0 12.399v.03l2.042 1.191.028-.019a5.821 5.821 0 0 1 3.308-1.02c.371 0 .734.034 1.086.1l-.036-.006a5.69 5.69 0 0 1 2.874 1.431l-.004-.003.35.326.198-.434c.192-.42.414-.814.66-1.173.099-.144.208-.29.332-.446l.205-.257-.252-.211a8.33 8.33 0 0 0-3.836-1.807l-.052-.008a8.566 8.566 0 0 0-4.081.251l.061-.016c.971-4.257 4.714-7.224 9.133-7.227a9.31 9.31 0 0 1 6.601 2.713 9.197 9.197 0 0 1 2.508 4.499 8.386 8.386 0 0 0-2.498-.379h-.154c-.356.006-.7.033-1.037.078l.045-.005-.042.006a8.104 8.104 0 0 0-.39.06c-.057.01-.114.022-.17.033a8.103 8.103 0 0 0-.392.089l-.138.035a9.21 9.21 0 0 0-.483.144l-.029.01c-.355.12-.709.268-1.051.439l-.027.014c-.152.076-.305.16-.469.256l-.036.022a8.217 8.217 0 0 0-2.108 1.801l-.011.013-.075.092a8.346 8.346 0 0 0-.378.503c-.088.13-.177.269-.288.452l-.06.104a8.986 8.986 0 0 0-.234.432l-.016.029c-.17.341-.317.698-.44 1.063l-.017.053a8.053 8.053 0 0 0-.411 2.717v-.007l.001.112c.006.158.013.295.023.431l-.002-.037a11.677 11.677 0 0 0 .042.412l.005.042.013.103c.018.127.038.252.062.378.241 1.266.845 2.532 1.745 3.66l.041.051.042-.05c.359-.424 1.249-1.77 1.325-2.577l.001-.015-.007-.013a5.56 5.56 0 0 1-.64-2.595v-.001c0-3.016 2.371-5.521 5.397-5.702l.199-.007a5.93 5.93 0 0 1 3.47 1.025l.028.019 2.041-1.187v-.03a11.771 11.771 0 0 0-3.511-8.424A11.963 11.963 0 0 0 12.008.48z" />
</symbol>

<symbol id="hockeyapp" fill-rule="evenodd" clip-rule="evenodd" stroke-linejoin="round" stroke-miterlimit="1.414">
  <path transform="scale(0.67)" d="M21.794 15.002c.075-.057.181-.007.194.083.006.057.012.114.012.171C22 16.842 18.669 19 12 19c-6.669 0-10-2.158-10-3.737 0-.057.006-.115.013-.166a.12.12 0 0 1 .193-.082c1.656 1.19 4.919 2.209 9.794 2.209 4.881 0 8.144-1.019 9.794-2.222zM12 14.168c-5.406 0-8.988-1.229-10.738-2.649a.122.122 0 0 0-.187.039c-.094.178-.137.369-.137.56 0 1.75 3.687 4.087 11.062 4.087s11.063-2.33 11.063-4.087c0-.198-.044-.382-.138-.56a.122.122 0 0 0-.188-.039c-1.75 1.42-5.33 2.649-10.737 2.649zm12-5.73c0 2.018-4 4.711-12 4.711S0 10.456 0 8.438C0 6.42 4 5 12 5s12 1.42 12 3.438zm-3.5-.318c0-1.013-2.831-1.592-8.5-1.592-5.669 0-8.5.58-8.5 1.592s2.831 2.483 8.5 2.483c5.669 0 8.5-1.471 8.5-2.483z" />
</symbol>

<symbol id="trello" fill-rule="evenodd" clip-rule="evenodd" stroke-linejoin="round" stroke-miterlimit="1.414">
  <path transform="scale(0.67)" d="M21 0H3C1.343 0 0 1.343 0 3v18c0 1.656 1.343 3 3 3h18c1.656 0 3-1.344 3-3V3c0-1.657-1.344-3-3-3zM10.44 18.18c0 .795-.645 1.44-1.44 1.44H4.56c-.795 0-1.44-.646-1.44-1.44V4.56c0-.795.645-1.44 1.44-1.44H9c.795 0 1.44.645 1.44 1.44v13.62zm10.44-6c0 .794-.645 1.44-1.44 1.44H15c-.795 0-1.44-.646-1.44-1.44V4.56c0-.795.646-1.44 1.44-1.44h4.44c.795 0 1.44.645 1.44 1.44v7.62z" />
</symbol>

<symbol id="blender" fill-rule="evenodd" clip-rule="evenodd" stroke-linejoin="round" stroke-miterlimit="1.414">
  <path transform="scale(0.67)" d="M12.51 13.214c.046-.8.438-1.506 1.03-2.006a3.424 3.424 0 0 1 2.212-.79c.85 0 1.631.3 2.211.79.592.5.983 1.206 1.028 2.005.045.823-.285 1.586-.865 2.153a3.389 3.389 0 0 1-2.374.938 3.393 3.393 0 0 1-2.376-.938c-.58-.567-.91-1.33-.865-2.152M7.35 14.831c.006.314.106.922.256 1.398a7.372 7.372 0 0 0 1.593 2.757 8.227 8.227 0 0 0 2.787 2.001 8.947 8.947 0 0 0 3.66.76 8.964 8.964 0 0 0 3.657-.772 8.285 8.285 0 0 0 2.785-2.01 7.428 7.428 0 0 0 1.592-2.762 6.964 6.964 0 0 0 .25-3.074 7.123 7.123 0 0 0-1.016-2.779 7.764 7.764 0 0 0-1.852-2.043h.002L13.566 2.55l-.02-.015c-.492-.378-1.319-.376-1.86.002-.547.382-.609 1.015-.123 1.415l-.001.001 3.126 2.543-9.53.01h-.013c-.788.001-1.545.518-1.695 1.172-.154.665.38 1.217 1.2 1.22V8.9l4.83-.01-8.62 6.617-.034.025c-.813.622-1.075 1.658-.563 2.313.52.667 1.625.668 2.447.004L7.414 14s-.069.52-.063.831zm12.09 1.741c-.97.988-2.326 1.548-3.795 1.55-1.47.004-2.827-.552-3.797-1.538a4.51 4.51 0 0 1-1.036-1.622 4.282 4.282 0 0 1 .282-3.519 4.702 4.702 0 0 1 1.153-1.371c.942-.768 2.141-1.183 3.396-1.185 1.256-.002 2.455.41 3.398 1.175.48.391.87.854 1.152 1.367a4.28 4.28 0 0 1 .522 1.706 4.236 4.236 0 0 1-.239 1.811 4.54 4.54 0 0 1-1.035 1.626" />
</symbol>

<symbol id="creativecommons" fill-rule="evenodd" clip-rule="evenodd" stroke-linejoin="round" stroke-miterlimit="1.414">
  <path transform="scale(0.67)" d="M11.983 0c-3.292 0-6.19 1.217-8.428 3.485C1.25 5.819 0 8.844 0 12c0 3.189 1.217 6.148 3.522 8.45C5.827 22.75 8.822 24 11.983 24c3.16 0 6.222-1.25 8.593-3.583C22.815 18.214 24 15.287 24 12c0-3.255-1.186-6.214-3.458-8.483C18.238 1.217 15.275 0 11.983 0zm.033 2.17c2.7 0 5.103 1.02 6.98 2.893 1.843 1.841 2.83 4.274 2.83 6.937 0 2.696-.954 5.063-2.798 6.872-1.943 1.906-4.444 2.926-7.012 2.926-2.601 0-5.038-1.019-6.914-2.893-1.877-1.875-2.93-4.34-2.93-6.905 0-2.597 1.053-5.063 2.93-6.97 1.844-1.874 4.214-2.86 6.914-2.86zM8.68 8.278C6.723 8.278 5.165 9.66 5.165 12c0 2.38 1.465 3.722 3.581 3.722 1.358 0 2.516-.744 3.155-1.874l-1.491-.758c-.333.798-.839 1.037-1.478 1.037-1.105 0-1.61-.917-1.61-2.126 0-1.21.426-2.127 1.61-2.127.32 0 .96.173 1.332.97l1.597-.838c-.68-1.236-1.837-1.728-3.181-1.728zm6.932 0c-1.957 0-3.514 1.382-3.514 3.722 0 2.38 1.464 3.722 3.58 3.722 1.359 0 2.516-.744 3.155-1.874l-1.49-.758c-.333.798-.84 1.037-1.478 1.037-1.105 0-1.611-.917-1.611-2.126 0-1.21.426-2.127 1.61-2.127.32 0 .96.173 1.332.97l1.597-.838c-.68-1.236-1.837-1.728-3.181-1.728z" />
</symbol>

<symbol id="docker" fill-rule="evenodd" clip-rule="evenodd" stroke-linejoin="round" stroke-miterlimit="1.414">
  <path transform="scale(0.67)" d="M4.82 17.275c-.684 0-1.304-.56-1.304-1.24s.56-1.243 1.305-1.243c.748 0 1.31.56 1.31 1.242s-.622 1.24-1.305 1.24zm16.012-6.763c-.135-.992-.75-1.8-1.56-2.42l-.315-.25-.254.31c-.494.56-.69 1.553-.63 2.295.06.562.24 1.12.554 1.554-.254.13-.568.25-.81.377-.57.187-1.124.25-1.68.25H.097l-.06.37c-.12 1.182.06 2.42.562 3.54l.244.435v.06c1.5 2.483 4.17 3.6 7.078 3.6 5.594 0 10.182-2.42 12.357-7.633 1.425.062 2.864-.31 3.54-1.676l.18-.31-.3-.187c-.81-.494-1.92-.56-2.85-.31l-.018.002zm-8.008-.992h-2.428v2.42h2.43V9.518l-.002.003zm0-3.043h-2.428v2.42h2.43V6.48l-.002-.003zm0-3.104h-2.428v2.42h2.43v-2.42h-.002zm2.97 6.147H13.38v2.42h2.42V9.518l-.007.003zm-8.998 0H4.383v2.42h2.422V9.518l-.01.003zm3.03 0h-2.4v2.42H9.84V9.518l-.015.003zm-6.03 0H1.4v2.42h2.428V9.518l-.03.003zm6.03-3.043h-2.4v2.42H9.84V6.48l-.015-.003zm-3.045 0H4.387v2.42H6.8V6.48l-.016-.003z" />
</symbol>

<symbol id="jira" fill-rule="evenodd" clip-rule="evenodd" stroke-linejoin="round" stroke-miterlimit="1.414">
  <path transform="scale(0.67)" d="M23.323 11.33L13.001 1 12 0 4.225 7.775.67 11.33a.96.96 0 0 0 0 1.347l7.103 7.103L12 24l7.771-7.771.121-.121 3.431-3.431a.945.945 0 0 0 0-1.347zM12 15.551L8.449 12 12 8.453 15.548 12 12 15.551z" />
</symbol>

<symbol id="d3-dot-js" fill-rule="evenodd" clip-rule="evenodd" stroke-linejoin="round" stroke-miterlimit="1.414">
  <path transform="scale(0.67)" d="M13.312 12C13.312 5.718 8.22.625 1.937.625H0v5h1.938c3.521 0 6.375 2.854 6.375 6.375s-2.854 6.375-6.375 6.375H0v5h1.938c6.281 0 11.374-5.093 11.374-11.375zM24 7.563C24 3.731 20.893.625 17.062.625h-8a13.4154 13.4154 0 0 1 4.686 5h3.314c1.069 0 1.938.868 1.938 1.938 0 1.07-.869 1.938-1.938 1.938h-1.938c.313 1.652.313 3.348 0 5h1.938c1.068 0 1.938.867 1.938 1.938s-.869 1.938-1.938 1.938h-3.314a13.4154 13.4154 0 0 1-4.686 5h8c1.621 0 3.191-.568 4.438-1.605 2.943-2.45 3.346-6.824.895-9.77A6.9459 6.9459 0 0 0 24 7.563z" />
</symbol>

<symbol id="redhat" fill-rule="evenodd" clip-rule="evenodd" stroke-linejoin="round" stroke-miterlimit="1.414">
  <path transform="scale(0.67)" d="M16.009 13.386c1.577 0 3.86-.326 3.86-2.202a1.765 1.765 0 0 0-.04-.431l-.94-4.08c-.216-.898-.406-1.305-1.982-2.093-1.223-.625-3.888-1.658-4.676-1.658-.733 0-.947.946-1.822.946-.842 0-1.467-.706-2.255-.706-.757 0-1.25.515-1.63 1.576 0 0-1.06 2.99-1.197 3.424a.81.81 0 0 0-.028.245c0 1.162 4.577 4.974 10.71 4.974m4.101-1.435c.218 1.032.218 1.14.218 1.277 0 1.765-1.984 2.745-4.593 2.745-5.895.004-11.06-3.451-11.06-5.734a2.326 2.326 0 0 1 .19-.925C2.746 9.415 0 9.794 0 12.217c0 3.969 9.405 8.861 16.851 8.861 5.71 0 7.149-2.582 7.149-4.62 0-1.605-1.387-3.425-3.887-4.512" />
</symbol>

<symbol id="confluence" fill-rule="evenodd" clip-rule="evenodd" stroke-linejoin="round" stroke-miterlimit="1.414">
  <path transform="scale(0.67)" d="M.87 18.257c-.248.382-.53.875-.763 1.245a.764.764 0 0 0 .255 1.04l4.965 3.054a.764.764 0 0 0 1.058-.26c.199-.332.454-.763.733-1.221 1.967-3.247 3.945-2.853 7.508-1.146l4.957 2.337a.764.764 0 0 0 1.028-.382l2.364-5.346a.764.764 0 0 0-.382-1 599.851 599.851 0 0 1-4.965-2.361C10.911 10.97 5.224 11.185.87 18.257zM23.131 5.743c.249-.405.531-.875.764-1.25a.764.764 0 0 0-.256-1.034L18.675.404a.764.764 0 0 0-1.058.26c-.195.335-.451.763-.734 1.225-1.966 3.246-3.945 2.85-7.508 1.146L4.437.694a.764.764 0 0 0-1.027.382L1.046 6.422a.764.764 0 0 0 .382 1c1.039.49 3.105 1.467 4.965 2.361 6.698 3.246 12.392 3.029 16.738-4.04z" />
</symbol>

<symbol id="apache" fill-rule="evenodd" clip-rule="evenodd" stroke-linejoin="round" stroke-miterlimit="1.414">
  <path transform="scale(0.67)" d="M15.826 0a.776.776 0 0 0-.404.114c-.376.222-1.002.851-1.748 1.763l-.156.192c-.198.246-.403.512-.614.793a38.775 38.775 0 0 0-2.016 2.971l-.022.036-.044.072a40.932 40.932 0 0 0-1.709 3.081 25.602 25.602 0 0 0-1.1 2.557c-.091.251-.174.493-.25.726-.062.199-.122.398-.178.596-.133.467-.248.934-.342 1.398l.001.002-.013.061a14 14 0 0 0-.233 1.692l-.005.059c-.28-.449-1.029-.886-1.028-.882.537.778.944 1.55 1.004 2.308-.287.059-.681-.026-1.136-.194.474.436.83.556.969.588-.436.027-.889.327-1.346.671.668-.273 1.208-.38 1.595-.293a131.873 131.873 0 0 0-1.843 5.688.535.535 0 0 0 .364-.354c.11-.369.837-2.786 1.977-5.964l.098-.273.028-.076c.12-.333.245-.673.374-1.02l.089-.237.002-.005-.604-1.193.604 1.192c.119-.317.24-.638.365-.963l.052-.136.053-.137.041-.104-.041.105-.053.136-.052.136c-.125.325-.246.646-.365.963l.106.208.094-.01.01-.028c.153-.417.304-.824.454-1.22l.005-.014a103.604 103.604 0 0 0-.458 1.234l-.01.028-.067.183c-.118.325-.237.655-.356.993l-.005.015-.051.143c-.08.228-.15.433-.309.899.263.12.474.436.674.794a1.44 1.44 0 0 0-.466-.989c1.296.058 2.413-.269 2.991-1.217.052-.085.099-.173.141-.268-.262.333-.588.474-1.2.439.902-.404 1.354-.791 1.754-1.433a6.71 6.71 0 0 0 .281-.503c-.789.81-1.702 1.04-2.665.865h-.002l-.041-.007c.863-.107 2.01-.752 2.752-1.548.342-.367.652-.8.939-1.306.214-.377.414-.795.605-1.258.167-.404.327-.842.482-1.317a2.65 2.65 0 0 1-.81.261 4.998 4.998 0 0 1-.138.022l.002-.001.003-.001c.045-.007.089-.013.133-.021.045-.008.09-.016.134-.026l-.133.024-.132.023c.802-.31 1.308-.907 1.676-1.637a2.877 2.877 0 0 1-.968.424 3.217 3.217 0 0 1-.171.031l-.043.006.001-.001.009-.001.032-.005a2.887 2.887 0 0 0 .157-.029l.014-.003-.016.003-.194.033c.278-.117.513-.247.717-.401a2.858 2.858 0 0 0 .411-.391c.08-.095.155-.198.225-.31l.064-.104.077-.152a9.024 9.024 0 0 0 .368-.851l.031-.088c.028-.085.052-.161.07-.227.027-.099.044-.178.053-.236a.731.731 0 0 1-.094.064c-.243.145-.66.277-.996.339l-.099.011-.001.001-2.267.249-.012.024-.077.158-.235.488-.044.093.044-.093c.079-.166.157-.329.235-.488l.077-.158c.004-.009.009-.017.012-.026l-.084.009-.067-.132a54.24 54.24 0 0 0-.378.763l-.204.424a72.02 72.02 0 0 0-1.092 2.406 102.271 102.271 0 0 0-1.081 2.603l.086-.216a99.75 99.75 0 0 1 .995-2.387 73.112 73.112 0 0 1 1.092-2.407l.204-.424c.118-.244.237-.485.358-.724l.02-.038c.191-.378.384-.75.579-1.116.208-.39.42-.771.633-1.141a33.1 33.1 0 0 1 .672-1.119l.04-.064c.224-.354.45-.695.677-1.021a16.736 16.736 0 0 1 1.522-1.899l-.058.062c-.16.176-.644.741-1.375 1.863.704-.035 1.785-.179 2.667-.33.262-1.47-.257-2.142-.257-2.142S16.418.007 15.83.001zm-1.648 7.507c.66-.304.956-.579 1.242-.976.076-.11.153-.224.229-.343.233-.363.461-.764.665-1.162.197-.384.371-.765.504-1.109a5.76 5.76 0 0 0 .2-.6c.041-.157.074-.307.099-.449-.883.15-1.964.295-2.668.329a29.873 29.873 0 0 0-.696 1.122c-.204.345-.422.723-.65 1.137a50.238 50.238 0 0 0-1.193 2.299l2.267-.249zm3.628-5.309v.066h.156v.439h.072v-.439h.157v-.066h-.384zm.463 0v.506h.066v-.401l.172.348h.046l.172-.348v.401h.066v-.506h-.087l-.174.353-.175-.353h-.087zm-4.008 5.301l-.102.016.001-.001.1-.016zm-.09.012l-.005.002.005-.002zm-2.74 1.242l-.106.227-.133.287a77.678 77.678 0 0 0-.921 2.085 93.883 93.883 0 0 0-.999 2.446c-.148.378-.298.765-.449 1.163l-.005.014a77.678 77.678 0 0 1 2.374-5.709l.133-.287.106-.226z" />
</symbol>

<symbol id="jenkins" fill-rule="evenodd" clip-rule="evenodd" stroke-linejoin="round" stroke-miterlimit="1.414">
  <path transform="scale(0.67)" d="M2.873 24h-.975c-.025-.066-.049-.131-.07-.197-.215-.666-.594-1.49-.692-2.154-.146-.984.78-1.039 1.374-1.465.915-.66 1.635-1.025 2.627-1.621.295-.178 1.182-.623 1.281-.828.201-.408-.345-.982-.49-1.301-.225-.506-.345-.936-.376-1.434-.824-.131-1.455-.627-1.844-1.185-.63-.925-1.066-2.635-.525-3.936.045-.103.254-.305.285-.463.06-.309-.105-.72-.121-1.049-.06-1.692.285-3.15 1.426-3.66.463-1.84 2.113-2.453 3.673-3.367.581-.342 1.224-.562 1.89-.807 2.372-.877 6.028-.712 7.995.783.836.633 2.176 1.971 2.656 2.939 1.262 2.555 1.17 6.826.287 9.935-.121.421-.291 1.032-.533 1.533-.168.349-.689 1.05-.625 1.36.064.314 1.189 1.17 1.432 1.395.434.422 1.26.975 1.324 1.5.07.557-.248 1.336-.41 1.875-.217.721-.436 1.441-.654 2.131H2.871l.002.016zm11.104-3.541c-.545-.299-1.361-.621-2.065-.756-.869-.164-.779 1.188-.75 1.994.03.643.361 1.316.511 1.744.075.197.089.41.255.449.3.068 1.29-.326 1.575-.479.6-.328 1.064-.844 1.574-1.189.016-.17.016-.34.031-.508-.301-.148-.645-.258-1.096-.277.314-.15.75-.15 1.035-.332l.016-.193c-.496-.031-.689-.254-1.021-.436l-.065-.017zm7.455 2.936c.193-.619.359-1.221.465-1.752.059-.287.215-.918.178-1.176-.059-.459-.684-.799-1.004-1.086-.584-.525-.951-.975-1.561-1.469-.248.375-.779.615-.982.914 1.447-.689 1.709 2.625 1.141 3.689.09.33.391.451.514.736l-.086.166h1.289c.014 0 .031 0 .045.014l.001-.036zm-6.635-.012c-.049-.074-.1-.135-.15-.209l-.301.195h.451v.014zm2.771 0c.008-.209.018-.404.029-.598-.529.029-.824-.48-1.195-.527-.324-.045-.6.361-1.02.195-.096.105-.184.227-.285.316.154.18.295.375.424.584h.816c.014-.164.135-.285.299-.285.166 0 .285.121.285.27h.66l-.013.045zm2.116 0c-.314-.479-.947-.898-1.68-.555l-.031.541h1.711v.014zm-8.51 0l-.105-.344c-.225-.721-.359-1.26-.405-1.68-.914-.436-1.875-.871-2.654-1.426-.15-.105-1.109-1.35-1.23-1.305-1.739.676-3.359 1.859-4.814 2.984.256.557.48 1.141.69 1.74h8.505l.013.031zm8.265-2.113c-.029-.512-.164-1.561-.48-1.74-.66-.391-1.846.779-2.34.943.045.15.135.271.15.48.285-.074.645-.029.898.092-.299.029-.629.029-.824.164-.074.195.016.48-.029.764.689.197 1.5.303 2.385.332.164-.227.225-.645.211-1.082l.029.047zm-4.08-.36c-.045.375.045.51.119.943 1.26.391 1.035-1.74-.135-.959l.016.016zM8.761 19.5c-.45.457 1.271 1.082 1.814 1.115 0-.291.165-.564.135-.771-.649-.117-1.502-.041-1.945-.346l-.004.002zm5.565.215c0 .043-.061.029-.068.064.58.451 1.014.545 1.803.51.354-.262.67-.563 1.043-.807-.855.074-1.932.607-2.775.229l-.003.004zm3.42-17.727c-1.605-.906-4.35-1.591-6.076-.731-1.38.692-3.27 1.841-3.899 3.292.6 1.402-.166 2.686-.226 4.109-.018.758.36 1.42.391 2.243-.2.338-.825.38-1.26.356-.146-.729-.401-1.549-1.155-1.631-1.064-.115-1.845.765-1.891 1.684-.06 1.079.834 2.864 2.086 2.745.488-.046.608-.541 1.139-.541.285.57-.445.75-.523 1.155-.016.105.059.511.104.705.233.944.744 2.159 1.245 2.88.635.9 1.884 1.051 3.229 1.141.24-.525 1.125-.48 1.706-.346-.691-.27-1.336-.945-1.875-1.529-.615-.676-1.23-1.41-1.261-2.28 1.155 1.604 2.1 2.999 4.201 3.704 1.59.525 3.449-.254 4.664-1.109.51-.359.811-.93 1.17-1.439 1.35-1.936 1.98-4.71 1.846-7.395-.061-1.111-.061-2.221-.436-2.955-.389-.781-1.695-1.471-2.475-.781-.15-.764.629-1.229 1.545-.959-.66-.855-1.336-1.859-2.266-2.385l.017.067zm-4.164 12.908c.615 1.544 2.725 1.363 4.506 1.323-.084.194-.256.435-.465.515-.57.232-2.146.408-2.938-.012-.506-.271-.824-.873-1.102-1.227-.137-.172-.795-.608-.012-.609l.011.01zm.164-.871c.893.465 2.52.518 3.732.48.066.268.066.594.068.914-1.551.08-3.387-.304-3.795-1.395h-.005zm6.676-.585c-.473.9-1.145 1.897-2.539 1.928-.023-.284-.045-.735 0-.904 1.064-.103 1.727-.646 2.543-1.017l-.004-.007zm-.649-.667c-1.02.66-2.154 1.375-3.824 1.21-.352-.31-.486-1.001-.141-1.458.182.313.061.885.57.969.945.166 2.039-.578 2.73-.84.42-.712-.045-.975-.42-1.432-.781-.931-1.83-2.1-1.801-3.51.314-.225.346.345.391.449.404.961 1.424 2.176 2.174 3 .18.211.48.391.51.525.092.389-.254.854-.209 1.109l.02-.022zm-13.44-.675c-.314-.184-.393-.99-.768-1.01-.535-.03-.438 1.049-.436 1.679-.37-.329-.435-1.364-.164-1.89-.308-.15-.445.165-.618.285.22-1.59 2.34-.734 1.989.96l-.003-.024zM4.714 5.994c-.685.756-.54 2.174-.459 3.188 1.244-.785 2.898.06 2.883 1.395.595-.016.223-.744.115-1.215-.353-1.529.592-3.188.041-4.59-1.064.083-1.939.519-2.578 1.214l-.002.008zm9.12 1.113c.307.562.404 1.148.84 1.57.195.191.574.424.387.951-.045.121-.365.391-.551.45-.674.195-2.254.03-1.721-.81.563.015 1.314.359 1.732-.045-.314-.525-.885-1.53-.674-2.13l-.013.014zm6.199-.013h.068c.33.668.6 1.375 1.004 1.965-.27.629-2.053 1.19-2.023.057.389-.17 1.049-.035 1.395-.25-.193-.556-.48-1.006-.434-1.771l-.01-.001zm-6.928-1.617c-1.422-.33-2.131.592-2.56 1.553-.384-.094-.231-.615-.135-.883.255-.701 1.28-1.633 2.119-1.506.359.057.848.386.576.834v.002zM9.643 1.592c-1.56.44-3.56 1.574-4.2 2.974.495-.07.84-.321 1.33-.351.186-.016.428.074.641.015.424-.104.78-1.065 1.102-1.409.311-.346.685-.497.941-.811.166-.09.408-.074.42-.33-.074-.075-.15-.135-.233-.105v.017z" />
</symbol>

<symbol id="json" fill-rule="evenodd" clip-rule="evenodd" stroke-linejoin="round" stroke-miterlimit="1.414">
  <path transform="scale(0.67)" d="M12.043 23.968c.479-.004.953-.029 1.426-.094 1.08-.138 2.143-.433 3.146-.863 1.409-.602 2.698-1.471 3.793-2.543 1.003-.989 1.842-2.151 2.44-3.427.509-1.097.869-2.274 1.02-3.476.149-1.16.135-2.346-.045-3.499-.149-.96-.419-1.896-.793-2.788-.24-.561-.525-1.101-.854-1.617-1.168-1.837-2.861-3.314-4.81-4.301-.693-.355-1.423-.645-2.172-.869h-.005c.119.063.24.132.345.201.12.074.239.146.351.225.569.385 1.094.827 1.559 1.33 1.063 1.145 1.797 2.548 2.218 4.041.284.982.434 1.998.495 3.017.044.743.044 1.491-.047 2.229-.149 1.27-.554 2.51-1.228 3.596-.495.803-1.14 1.519-1.903 2.084-1.244.928-2.877 1.482-4.436 1.114-.254-.061-.51-.146-.748-.258-.271-.124-.54-.277-.779-.449-.465-.311-.885-.685-1.244-1.106-.435-.52-.794-1.111-1.049-1.747-.314-.806-.479-1.672-.494-2.54-.03-1.273.225-2.553.854-3.67.42-.744.989-1.396 1.663-1.918.225-.178.464-.333.704-.479l.016-.007c-.466-.105-.96-.151-1.441-.12-.418.029-.823.105-1.228.239-.359.12-.704.271-1.019.45-.255.149-.508.315-.733.495-.211.18-.42.359-.615.555-1.123 1.153-1.768 2.682-2.022 4.256-.15.973-.15 1.961-.091 2.951.105 1.394.391 2.786.945 4.061.344.794.793 1.527 1.348 2.173.854.987 1.934 1.753 3.132 2.231.675.271 1.394.465 2.113.54.074.015.149.015.209.015l-.021-.032zm-2.934-.398c-.164-.07-.314-.149-.45-.228-.149-.083-.3-.168-.449-.259-.585-.362-1.108-.787-1.589-1.275-1.094-1.138-1.827-2.567-2.247-4.081-.284-1.034-.435-2.102-.495-3.172-.044-.703-.029-1.393.046-2.082.135-1.257.495-2.501 1.124-3.58.449-.794 1.063-1.498 1.783-2.053.494-.374 1.049-.69 1.633-.9.824-.299 1.708-.389 2.563-.27.33.045.658.121.959.225.029 0 .029 0 .045.03.015.015.045.015.06.03.045.016.104.045.165.074.239.12.479.271.704.42.899.629 1.633 1.498 2.097 2.502.42.914.615 1.934.631 2.938.014 1.079-.18 2.157-.645 3.146-.555 1.184-1.498 2.188-2.638 2.832.09.03.18.045.271.075.225.044.449.074.688.074 1.468.045 2.892-.659 3.94-1.647.195-.18.375-.375.54-.585.225-.27.435-.539.614-.823.239-.375.435-.75.614-1.154.226-.539.404-1.094.509-1.664.196-1.004.211-2.022.149-3.026-.135-2.022-.673-4.045-1.842-5.724-.18-.254-.359-.494-.555-.719-.329-.375-.689-.719-1.063-1.034-.42-.345-.885-.659-1.363-.915-.493-.223-1.078-.447-1.692-.598l-.3-.06c-.209-.03-.42-.044-.634-.06-.325-.015-.669-.01-1.015.016-.704.045-1.412.16-2.112.337-3.356.866-6.292 3.205-7.855 6.308C.799 7.657.445 8.714.238 9.8c-.239 1.243-.27 2.523-.104 3.775.12 1.02.374 2.023.778 2.977.227.57.511 1.124.825 1.648 1.094 1.783 2.683 3.236 4.51 4.24.688.391 1.408.69 2.157.945.226.074.45.149.689.209l.016-.024z" />
</symbol>

<symbol id="cirrusci" fill-rule="evenodd" clip-rule="evenodd" stroke-linejoin="round" stroke-miterlimit="1.414">
  <path transform="scale(0.67)" d="M22.406 15.477A4.587 4.587 0 0 1 24 18.955c0 2.531-2.053 4.59-4.577 4.59H1.113a1.113 1.113 0 0 1 0-2.226h18.31a2.36 2.36 0 0 0 2.35-2.364 2.36 2.36 0 0 0-2.35-2.364H1.113a1.113 1.113 0 0 1 0-2.227h18.31A2.36 2.36 0 0 0 21.773 12a2.36 2.36 0 0 0-2.35-2.364H1.113a1.113 1.113 0 1 1 0-2.227h18.31c1.296 0 2.35-1.06 2.35-2.364s-1.054-2.364-2.35-2.364a1.113 1.113 0 0 1 0-2.227C21.947.454 24 2.514 24 5.045c0 1.389-.62 2.635-1.594 3.477A4.587 4.587 0 0 1 24 12c0 1.389-.62 2.635-1.594 3.477z" />
</symbol>

<symbol id="circleci" fill-rule="evenodd" clip-rule="evenodd" stroke-linejoin="round" stroke-miterlimit="1.414">
  <path transform="scale(0.67)" d="M8.963 12c0-1.584 1.284-2.855 2.855-2.855 1.572 0 2.856 1.284 2.856 2.855 0 1.572-1.284 2.856-2.856 2.856-1.57 0-2.855-1.284-2.855-2.856zm2.855-12C6.215 0 1.522 3.84.19 9.025c-.01.036-.01.07-.01.12 0 .313.252.576.575.576H5.59c.23 0 .433-.13.517-.333.997-2.16 3.18-3.672 5.712-3.672 3.466 0 6.286 2.82 6.286 6.287 0 3.47-2.82 6.29-6.29 6.29-2.53 0-4.714-1.5-5.71-3.673-.097-.19-.29-.336-.517-.336H.755c-.312 0-.575.253-.575.576 0 .037.014.072.014.12C1.514 20.16 6.214 24 11.818 24c6.624 0 12-5.375 12-12 0-6.623-5.376-12-12-12z" />
</symbol>

<symbol id="jekyll" fill-rule="evenodd" clip-rule="evenodd" stroke-linejoin="round" stroke-miterlimit="1.414">
  <path transform="scale(0.67)" d="M8.073 24c-.348 0-.689-.063-1.02-.189-1.375-.525-2.104-2.02-1.726-3.402l-.015-.006.09-.226L12.399 2.01c.105-.27.057-.91.006-1.267-.016-.085-.016-.161.008-.24l.008-.023.006-.015V.458l.009-.019c.108-.292.45-.439 1.008-.439.673 0 1.602.21 2.551.573.797.307 1.523.689 2.033 1.075.602.45.842.854.707 1.2l-.031.045-.016.015c-.045.061-.09.12-.15.165-.314.271-.764.735-.84.945l-7.063 18.421-.016-.006c-.494.948-1.457 1.557-2.543 1.561H8.07l.003.006zm-2.187-3.718l-.02.05c-.447 1.201.162 2.557 1.364 3.018.271.105.551.154.837.154.971 0 1.83-.585 2.188-1.5l.027-.061 6.959-18.09c.146-.39.84-1.02.979-1.14l.016-.016c.012-.015.02-.015.02-.03 0-.06-.061-.27-.557-.645-.479-.36-1.154-.72-1.904-1.005-.868-.328-1.768-.539-2.368-.539-.39 0-.524.082-.545.126v.04c.016.104.147 1.035-.034 1.515l-6.962 18.12v.003zm8.95-11.507s-.964 1.109-1.843 1.509c-.88.398-1.529.293-2.32.756-.789.461-1.188 1.103-1.188 1.103L6.27 20.505c-.348.944.168 2.05 1.125 2.42.96.369 2.04-.12 2.412-1.056l5.029-13.094zM9.905 18.76c.104-.041.225 0 .266.105.042.104 0 .222-.105.264-.104.043-.225 0-.266-.104-.042-.097 0-.216.105-.265zm-1.014-1.802c-.152.068-.334 0-.397-.155-.07-.152 0-.334.154-.397.154-.07.335 0 .398.153.074.15.008.314-.155.39v.009zm.286-1.096c-.123-.288 0-.623.287-.758.285-.124.615 0 .75.285.121.289 0 .624-.285.757-.3.126-.629 0-.765-.285l.013.001zm2.426-2.258c.153-.074.335 0 .398.15.07.154 0 .336-.153.399-.155.07-.337 0-.399-.155-.074-.152 0-.334.154-.397v.003zm-1.293-1.379c.105-.042.226 0 .266.105.043.104 0 .226-.104.266-.104.042-.226 0-.265-.104-.044-.106.006-.227.103-.267zM13.681 1.14c.1-.261.993-.162 1.995.226.999.384 1.729.909 1.63 1.17-.104.264-.997.164-1.996-.221-1.005-.385-1.734-.91-1.632-1.176h.003z" />
</symbol>

<symbol id="nuget" fill-rule="evenodd" clip-rule="evenodd" stroke-linejoin="round" stroke-miterlimit="1.414">
  <path transform="scale(0.67)" d="M17.67 21.633a3.995 3.995 0 1 1 0-7.99 3.995 3.995 0 0 1 0 7.99m-7.969-9.157a2.497 2.497 0 1 1 0-4.994 2.497 2.497 0 0 1 0 4.994m8.145-7.795h-6.667a6.156 6.156 0 0 0-6.154 6.155v6.667a6.154 6.154 0 0 0 6.154 6.154h6.667A6.154 6.154 0 0 0 24 17.503v-6.667a6.155 6.155 0 0 0-6.154-6.155M3.995 2.339a1.998 1.998 0 1 1-3.996 0 1.998 1.998 0 0 1 3.996 0" />
</symbol>

<symbol id="npm" fill-rule="evenodd" clip-rule="evenodd" stroke-linejoin="round" stroke-miterlimit="1.414">
  <path transform="scale(0.67)" d="M0 7.334v8h6.666v1.332H12v-1.332h12v-8H0zm6.666 6.664H5.334v-4H3.999v4H1.335V8.667h5.331v5.331zm4 0v1.336H8.001V8.667h5.334v5.332h-2.669v-.001zm12.001 0h-1.33v-4h-1.336v4h-1.335v-4h-1.33v4h-2.671V8.667h8.002v5.331zM10.665 10H12v2.667h-1.335V10z" />
</symbol>

<symbol id="travisci" fill-rule="evenodd" clip-rule="evenodd" stroke-linejoin="round" stroke-miterlimit="1.414">
  <path transform="scale(0.67)" d="M20.07 9.29v-.02c.01-.04.14-.95-.08-2.24a.16.16 0 0 0-.11-.13l-.35-.1c-.08-2.71-1.2-4-1.23-4.03 1 1.6.99 3.51.97 3.96L17.1 6.1h-.04a.2.2 0 0 0-.04 0h-.03l-.01.01-.03.02-.01.01-.15.14a8.99 8.99 0 0 0-1-4.47c.03.06.8 2.33.53 4.87a3.7 3.7 0 0 1-.26.2.17.17 0 0 0-.07.13 3.9 3.9 0 0 1-.4 1.55 39.29 39.29 0 0 0-5.35 0l-.01-.04a3.88 3.88 0 0 1-.38-1.5c0-.06-.02-.1-.07-.14a3.92 3.92 0 0 1-.27-.2c-.26-2.54.51-4.81.53-4.87a9 9 0 0 0-.99 4.47l-.15-.14-.01-.01-.03-.02-.03-.01h-.04-.04l-2.18.62a7.45 7.45 0 0 1 .97-3.96c-.03.04-1.15 1.32-1.23 4.03l-.35.1a.16.16 0 0 0-.11.13c-.22 1.3-.1 2.2-.09 2.24v.02l-.08.02a5 5 0 0 0-.96.4c.16-.06.32-.1.5-.15a16.12 16.12 0 0 1 2.55-.38l1.02-.08c1.38-.08 2.75-.1 4.13-.1a67.74 67.74 0 0 1 5.16.18 21.88 21.88 0 0 1 2.55.38c.17.04.33.09.5.15a4.9 4.9 0 0 0-.97-.4l-.09-.02zM8.76 8.7a22.58 22.58 0 0 0-2.68.5c-.02-.15-.1-.94.07-2.02l2.46-.7a7.31 7.31 0 0 0 .22 2.22h-.07zm.37-.04v-.08a7 7 0 0 1-.2-1.96c.16.15.38.34.6.5.02.22.08.87.37 1.47l-.77.07zm7.58-.08v.08a29.2 29.2 0 0 0-.77-.07c.3-.6.35-1.25.37-1.48.22-.15.44-.34.6-.5.02.44 0 1.23-.2 1.97zm3.05.62a16.19 16.19 0 0 0-2.67-.5H17l.02-.03a7.2 7.2 0 0 0 .2-2.19l2.46.7a8.1 8.1 0 0 1 .07 2.02zm-2.96 6.04c.7-.02 1.07-.23 1.42-.06 0-.02-.11-.35-.6-.29a1 1 0 0 0 .07-.5c-.07-.81-.53-1.45-1.05-1.44-.51.02-.84.7-.82 1.5.03.81.47.8.98.79zm-.2-1.77a.26.26 0 1 1 0 .53.26.26 0 0 1 0-.53zm-7.84 1.91h.32c.52 0 .94.04.94-.77-.01-.8-.37-1.46-.88-1.46-.52 0-1.02.67-.99 1.48.01.21.04.36.1.47-.46.12-.58.4-.59.41.28-.15.6-.13 1.1-.13zm.45-1.72a.26.26 0 0 1 .01.53.26.26 0 1 1-.01-.53zm14.73-5.2a4.57 4.57 0 0 0-.04-.26l-.06-.27-.02-.06-.05-.04a4.68 4.68 0 0 0-.87-.53c-.25-.11-.5-.22-.76-.31a10.8 10.8 0 0 0-3.56-4.96 9.3 9.3 0 0 0-11.33 0A10.83 10.83 0 0 0 3.7 7l-.75.31c-.3.15-.6.31-.88.53l-.05.04-.02.06a3.02 3.02 0 0 0-.1.53 6.1 6.1 0 0 0-.02 1.57 6.71 6.71 0 0 0 .47 1.78l.06.13.04.06.04.07.03.05.06.03a4 4 0 0 0 .16.08l.16.07.08.04c-.7.65-1.47 1.5-2.14 2.55L0 16.21l1.18-1.03c.02-.02 1-.87 2.66-1.84l.02.19c-.1.05-.63.32-.78.45-.26.21-.27.54-.2 1.16.03.31.15.92.31 1.48.28.97.48 1.14.65 1.18.08.02.19.03.3.03.32 0 .72-.07.99-.14.3.96.75 1.83 1.28 2.6-.03 0-.05 0-.08.02l-1.82-.85-.8-.35.47.73c.04.05.84 1.3 1.5 2.15a3.6 3.6 0 0 0 3.05 1.6c.2 0 .4 0 .6-.03l1.1-.13a7.46 7.46 0 0 0 6.6-.67c.66-.15 1.4-.33 1.76-.43l.2-.05c.51-.12 1.36-.32 1.81-1.22l1.2-2.33.36-.65-.68.3c-.04.01-.9.39-1.34.62-.02 0-.03.02-.05.03.36-.74.54-1.33.6-1.56.26.06.63.05.9.05.13 0 .27-.02.36-.04.17-.05.31-.17.57-1.16.15-.58.26-1.21.28-1.53.06-.64.04-.97-.21-1.19-.13-.1-.5-.3-.7-.4l.01-.07.15.03.18-.65a7.02 7.02 0 0 1 .51-.21l.16-.07.16-.08.06-.03.03-.05.05-.07.03-.06.06-.13a4.09 4.09 0 0 0 .28-.75 6.24 6.24 0 0 0 .17-2.6zM3.68 11.27a27 27 0 0 1 .85-.17c-.26.17-.5.36-.75.55l-.1-.38zm5.9-.28c-.36.25-.76.57-1.15.96-.87.09-1.73.2-2.59.34 1.1-.51 2.37-.98 3.74-1.3zm-1.61 1.46c-.13.15-.24.3-.36.47l-.68.97 1-.66s.64-.43 1.67-.93a46 46 0 0 1 4.26-.12c-.2.16-.41.32-.63.45l-.73.44c-.46.06-.86.17-.88.18a.1.1 0 0 0-.04.01.17.17 0 0 0-.07.1l-.75 2.45-3.98.89-1.26-.88-.36-2.96c.71-.13 1.66-.28 2.8-.4zm5.4.6c.07-.01 1.45-.18 3.08-.74 1.82.14 3.3.36 4.31.54l-.36 2.52-1.26.88-3.98-.45-.74-2.44a.16.16 0 0 0-.11-.11c-.03-.01-.52-.15-1.04-.2h.1zm1.92-2.34c-.23.3-.55.67-.94 1.03a46.5 46.5 0 0 0-3.59.04 17.64 17.64 0 0 1 4.65-1.23l-.12.16zM3.97 17.36c-.2-.2-.56-1.55-.64-2.27-.06-.58-.02-.71.04-.76.07-.06.33-.2.55-.33l.3 2.46c0 .04.03.09.07.11l.62.44.08.25c-.26.07-.78.15-1.02.1zm10.04 4.66l-.38.05h-.27l.23-.51.43.46zm-.71 1.5a5.95 5.95 0 0 1-1.98-.22l.14-.02c.06 0 1.23-.16 1.76-.94h.18l.25-.01c.2-.02.39-.05.58-.09l.06.06c.4.4.9.62 1.43.66-.77.31-1.6.5-2.42.55zm7.29-6.38c-.23.75-.5 1.4-.81 2h-.22c-.24 0-.48-.02-.75-.04l-1.43-.15-1.46-1.16-.06-.05a.6.6 0 0 0-.45-.18c-.2 0-.51.08-1.26.3.39-.29.4-.66.4-.66s-.56.51-1.44.62c-.89.12-1.58-.42-1.58-.42.03.09.07.3.27.48a6.6 6.6 0 0 0-1.05-.04c-.54.03-1.3.86-1.85 1.69l-2.04.62c-.9-1.23-1.34-2.5-1.38-2.63l-.05-.15.23.16.56.4.2.13c.02.02.05.03.09.03h.04l5.2-1.17c.07 0 .11-.05.13-.1l.74-2.46a2.45 2.45 0 0 1 .68 0l.76 2.53c.02.06.08.1.15.11l.35.04 4.89.56c.04 0 .08 0 .12-.03l.49-.34.45-.32.17-.12-.09.35zm-1.16.12l-5.08-.58-.76-2.51a.17.17 0 0 0-.13-.12 3.34 3.34 0 0 0-.5-.05c-.14 0-.3.02-.5.05a.17.17 0 0 0-.12.12l-.75 2.45-5.04 1.12-2-1.4-.4-3.18.26-.15.42-.08.37 3c0 .05.03.1.07.12l1.38.96c.02.02.06.03.09.03h.04l4.15-.92.04-.02a.16.16 0 0 0 .08-.1l.75-2.46c.2-.05.7-.17 1.16-.17.45 0 .96.12 1.17.17l.74 2.46c.02.07.08.11.14.12l4.15.47c.04 0 .08 0 .12-.03l1.37-.96a.17.17 0 0 0 .07-.11l.37-2.58.69.15-.41 2.84-1.95 1.36zm3.07-3.3c.06.05.1.18.05.79a6.93 6.93 0 0 1-.57 2.25c-.21.04-.66 0-.93-.07l.1-.47.47-.33a.16.16 0 0 0 .07-.11l.34-2.34.47.28zm-.57-1.33c-.73-.16-2.33-.48-4.52-.7.72-.3 1.45-.68 2.1-1.15 1.3.18 2.26.38 2.78.5l-.36 1.35zm1.53-2.66a7.05 7.05 0 0 1-.43 1.63l-.05.1-.02.04-.07.04-.15.06-.15.07.26-.97a25.1 25.1 0 0 0-1.59-.34l.1-.02a4.3 4.3 0 0 0 .86-.32.9.9 0 0 0 .24-.19c-.96.32-2.96.17-4.73 0a48.05 48.05 0 0 0-4.87-.29c-1.64 0-3.26.12-4.88.28-1.77.19-3.76.33-4.73.01.07.08.16.14.25.19l.27.14a4.47 4.47 0 0 0 .8.23c-.87.16-1.38.3-1.44.31l.27 1.02-.02.02-.28-.13-.15-.07-.07-.04-.02-.04-.05-.1a5.3 5.3 0 0 1-.43-1.63 7.16 7.16 0 0 1 .01-1.87c.22-.18.46-.34.71-.5a16.84 16.84 0 0 1 2.21-1l.47-.16a10.27 10.27 0 0 0-1.58.38A9.47 9.47 0 0 1 12.92.55c3.8 0 7.27 2.47 8.72 6.27a12.29 12.29 0 0 0-1.57-.38 22.77 22.77 0 0 1 1.81.73c.29.13.58.28.85.44.26.14.5.3.72.49l.03.17.02.24a7.2 7.2 0 0 1-.04 1.46zm-11.6-5.55h-1.44V2.38h5.1v2.04h-1.45v-.6h-.33v2.76h.5v1.54H11.7V6.58h.5V3.82h-.33v.6z" />
</symbol>

</svg>
