<svg xmlns="http://www.w3.org/2000/svg" xmlns:xlink="http://www.w3.org/1999/xlink">

<symbol id="dribbble" fill-rule="evenodd" clip-rule="evenodd" stroke-linejoin="round" stroke-miterlimit="1.414">
  <path transform="scale(0.67)" d="M12 24C5.385 24 0 18.615 0 12S5.385 0 12 0s12 5.385 12 12-5.385 12-12 12zm10.12-10.358c-.35-.11-3.17-.953-6.384-.438 1.34 3.684 1.887 6.684 1.992 7.308 2.3-1.555 3.936-4.02 4.395-6.87zm-6.115 7.808c-.153-.9-.75-4.032-2.19-7.77l-.066.02c-5.79 2.015-7.86 6.025-8.04 6.4 1.73 1.358 3.92 2.166 6.29 2.166 1.42 0 2.77-.29 4-.814zm-11.62-2.58c.232-.4 3.045-5.055 8.332-6.765.135-.045.27-.084.405-.12-.26-.585-.54-1.167-.832-1.74C7.17 11.775 2.206 11.71 1.756 11.7l-.004.312c0 2.633.998 5.037 2.634 6.855zm-2.42-8.955c.46.008 4.683.026 9.477-1.248-1.698-3.018-3.53-5.558-3.8-5.928-2.868 1.35-5.01 3.99-5.676 7.17zM9.6 2.052c.282.38 2.145 2.914 3.822 6 3.645-1.365 5.19-3.44 5.373-3.702-1.81-1.61-4.19-2.586-6.795-2.586-.825 0-1.63.1-2.4.285zm10.335 3.483c-.218.29-1.935 2.493-5.724 4.04.24.49.47.985.68 1.486.08.18.15.36.22.53 3.41-.43 6.8.26 7.14.33-.02-2.42-.88-4.64-2.31-6.38z" />
</symbol>

<symbol id="epicgames" fill-rule="evenodd" clip-rule="evenodd" stroke-linejoin="round" stroke-miterlimit="1.414">
  <path transform="scale(0.67)" d="M3.538 0C2.166 0 1.66.506 1.66 1.878v16.565c0 .155.007.299.019.431.034.302.037.593.317.922.026.038.31.246.31.246.151.076.257.128.43.2l8.334 3.492c.431.197.613.276.926.265H12c.317.011.499-.068.93-.265l8.333-3.492c.174-.072.276-.124.431-.2 0 0 .284-.212.31-.246.28-.329.283-.62.317-.922.012-.132.02-.276.02-.43V1.877C22.34.506 21.833 0 20.461 0zm13.356 3.11h.68c1.134 0 1.686.552 1.686 1.697v1.879h-1.372V4.883c0-.367-.17-.537-.525-.537h-.234c-.367 0-.537.17-.537.537v5.813c0 .366.17.536.537.536h.26c.352 0 .522-.17.522-.536v-2.08h1.376v2.144c0 1.145-.564 1.708-1.701 1.708h-.692c-1.141 0-1.7-.567-1.7-1.708V4.819c0-1.142.559-1.709 1.7-1.709zm-12.188.076H7.82v1.277H6.104v2.604h1.652v1.274H6.104v2.774h1.739v1.274H4.706zm3.817 0h2.196c1.137 0 1.7.567 1.7 1.712v2.445c0 1.145-.563 1.709-1.7 1.709h-.794v3.337H8.523zm4.528 0h1.398v9.203h-1.398zm-3.13 1.24v3.39h.579c.351 0 .521-.17.521-.54v-2.31c0-.37-.17-.54-.521-.54zM6.066 14.58h.208l.046.007h.075l.038.012h.038l.038.011.037.008.034.007.034.008.034.007.038.012.03.007.03.012.038.011.03.015.039.015.034.015.03.02.038.014.026.02.038.018.03.02.034.018.03.023.03.019.03.022.031.023.03.026.03.023-.022.03-.027.027-.022.03-.027.03-.022.027-.023.026-.027.03-.022.03-.023.027-.026.03-.023.03-.027.03-.022.027-.023.03-.026.03-.023.031-.026.026-.023.03-.03-.022-.03-.026-.03-.02-.035-.022-.026-.019-.034-.019-.03-.019-.035-.019-.03-.015-.03-.015-.03-.011-.034-.012-.038-.01-.03-.008-.038-.008-.038-.008-.038-.003h-.041l-.046-.008h-.075l-.038.004h-.038l-.038.011-.034.008-.034.011-.037.011-.03.015-.038.016-.027.018-.03.02-.03.018-.027.023-.026.023-.027.022-.022.027-.03.026-.02.03-.018.027-.023.03-.015.034-.02.03-.018.034-.011.034-.016.034-.01.038-.005.038-.011.034-.008.042v.037l-.007.038v.09l.004.039.003.034.004.037.008.038.011.03.004.038.011.03.012.03.015.039.019.037.015.03.019.03.022.031.023.03.019.027.03.026.023.027.026.022.03.023.03.023.031.019.03.018.034.016.038.015.03.015.038.011.038.012.038.007.037.008.038.004.046.003h.124l.046-.007h.037l.038-.012.038-.007.038-.012.034-.007.034-.015.03-.015.038-.016.023-.015.03-.019v-.347h-.552v-.56h1.247v1.248l-.026.022-.03.023-.027.019-.03.023-.03.018-.03.023-.03.019-.031.019-.038.019-.034.019-.03.019-.038.015-.03.019-.038.015-.038.015-.038.015-.034.015-.034.011-.034.012-.037.011-.034.011-.038.012-.034.007-.038.008-.038.008-.038.007-.037.004-.038.004-.038.004-.045.003-.038.004-.042.004h-.196l-.042-.008h-.038l-.037-.007h-.038l-.038-.012-.038-.007-.038-.008-.037-.007-.03-.012-.038-.007-.038-.012-.034-.015-.034-.011-.038-.015-.034-.015-.038-.015-.03-.016-.038-.018-.026-.02-.038-.018-.027-.02-.03-.018-.03-.023-.03-.023-.034-.022-.023-.023-.03-.023-.027-.026-.026-.023-.027-.026-.022-.027-.027-.026-.022-.03-.023-.027-.019-.03-.023-.03-.019-.03-.018-.03-.02-.035-.018-.03-.015-.034-.015-.034-.016-.034-.015-.034-.011-.03-.015-.034-.008-.034-.011-.034-.008-.038-.011-.034-.008-.038-.003-.034-.008-.038-.004-.034-.003-.038-.004-.037-.004-.038v-.208l.008-.038v-.041l.01-.038v-.038l.012-.038.012-.037.007-.038.011-.034.012-.038.011-.034.015-.038.015-.034.016-.034.015-.034.015-.034.019-.034.019-.03.018-.03.02-.03.018-.03.023-.031.023-.03.022-.03.027-.027.022-.026.023-.027.03-.026.023-.027.03-.023.027-.026.03-.023.03-.022.03-.02.03-.022.03-.019.031-.019.034-.019.038-.019.03-.018.038-.016.034-.015.038-.019.03-.01.038-.012.034-.015.034-.008.034-.011.038-.008.034-.011.037-.008h.038l.038-.011h.038l.038-.008h.037zm11.989.007h.207l.046.008h.075l.038.011h.045l.038.012.034.007.038.008.038.007.034.008.038.011.037.012.03.007.038.015.038.012.03.015.038.015.038.015.034.02.027.014.037.02.034.018.03.019.035.023.03.018.03.023.03.023.03.022-.022.03-.019.031-.023.03-.022.03-.023.034-.019.03-.023.03-.022.031-.02.03-.022.03-.023.03-.022.031-.02.034-.022.03-.026.03-.02.03-.022.031-.03-.023-.034-.019-.03-.018-.03-.023-.035-.015-.03-.02-.038-.014-.026-.015-.038-.016-.03-.015-.03-.011-.034-.015-.038-.011-.038-.012-.038-.011-.041-.008-.038-.007-.038-.008-.038-.004-.037-.004-.034-.003h-.084l-.041.007-.038.008-.038.007-.03.016-.026.015-.034.03-.023.034-.015.034v.094l.019.042.015.023.026.026.038.02.03.018.038.015.038.015.049.015.03.008.03.011.038.008.03.011.038.008.042.011.041.011.042.012.042.007.037.012.042.011.038.008.037.011.038.011.038.012.038.011.034.011.038.012.037.015.038.019.038.015.038.019.038.019.03.019.03.018.034.023.027.02.034.026.026.026.03.03.027.027.019.03.026.038.019.026.015.038.019.026.011.038.012.03.007.038.008.038.007.038.004.038.004.037v.095l-.004.041-.004.038-.003.042-.008.038-.011.037-.008.038-.011.038-.015.034-.015.03-.016.034-.018.03-.023.03-.02.03-.018.031-.026.027-.023.026-.027.023-.03.026-.026.023-.03.023-.03.018-.031.023-.038.019-.03.015-.038.02-.038.014-.037.015-.038.012-.038.011-.03.011-.038.008-.038.008-.03.007-.038.008h-.038l-.037.007h-.038l-.038.008h-.28l-.037-.004-.038-.004-.042-.003-.038-.008-.037-.004-.038-.007-.038-.008-.042-.011-.037-.008-.038-.011-.038-.008-.038-.011-.037-.012-.038-.015-.034-.011-.038-.011-.038-.016-.03-.015-.038-.015-.03-.019-.038-.015-.034-.019-.026-.019-.038-.019-.027-.018-.034-.02-.03-.022-.03-.023-.03-.022-.03-.023-.027-.023-.03-.026.022-.03.027-.027.023-.03.026-.03.023-.027.022-.03.027-.03.023-.027.026-.03.023-.026.026-.03.023-.03.022-.027.027-.03.023-.03.026-.027.027-.03.026.022.038.023.026.023.038.022.03.02.034.022.03.019.035.015.03.019.034.015.038.015.03.015.038.011.03.016.038.01.037.012.038.012.038.007.038.008.038.007h.041l.038.012h.208l.038-.008.037-.008.03-.007.03-.011.027-.016.034-.022.02-.027.018-.03.011-.038v-.087l-.015-.037-.022-.03-.023-.023-.034-.023-.027-.015-.037-.015-.038-.015-.045-.02-.027-.007-.03-.008-.038-.01-.03-.008-.038-.012-.038-.007-.041-.012-.038-.007-.042-.012-.037-.007-.038-.012-.038-.007-.038-.012-.038-.01-.037-.008-.034-.012-.034-.011-.034-.012-.038-.015-.042-.015-.038-.015-.037-.015-.038-.019-.038-.019-.026-.019-.038-.019-.027-.022-.034-.02-.022-.022-.027-.026-.03-.027-.023-.026-.022-.027-.02-.026-.018-.03-.02-.034-.014-.027-.012-.03-.011-.034-.011-.03-.008-.038-.007-.034v-.038l-.008-.038v-.162l.004-.038.004-.038.007-.03.008-.038.011-.03.008-.038.015-.03.015-.038.015-.03.019-.038.019-.03.026-.03.02-.03.03-.03.026-.027.023-.03.034-.027.022-.019.034-.023.03-.022.03-.02.038-.018.03-.015.039-.019.03-.015.038-.012.037-.015.038-.011.027-.008.037-.007.03-.008.038-.007.038-.008.038-.004.038-.004.038-.003zm-9.237.027h.707l.015.034.015.034.015.034.011.038.015.034.015.034.016.034.015.034.011.034.019.037.015.034.015.035.008.034.015.034.019.034.015.037.015.034.011.034.015.034.02.034.01.034.016.038.011.038.015.03.02.038.014.03.015.038.012.038.011.03.019.038.015.03.015.038.011.03.016.038.019.038.015.034.011.034.011.034.015.034.02.034.014.037.016.035.01.034.016.034.015.034.015.034.015.037.012.034.015.034.019.034.015.034.015.034.008.038.015.034.019.034.015.034.011.034.015.034.015.038.02.038.01.03.016.038.011.03.015.038.019.038.015.03.011.038.016.03.011.038.019.03.015.038.011.038.015.03.016.038.018.03.016.038.01.037.012.03.015.038.02.03h-.783l-.02-.033-.01-.034-.016-.034-.015-.038-.011-.034-.015-.034-.015-.034-.012-.034-.015-.034-.015-.034-.011-.034-.015-.038-.015-.034-.012-.034-.015-.034H8.617l-.015.038-.011.03-.015.038-.019.037-.008.03-.015.039-.015.03-.011.038-.015.03-.015.038-.012.03-.015.038-.015.037-.015.03-.011.038h-.775l.015-.037.015-.034.015-.034.012-.038.01-.034.02-.034.015-.034.015-.034.011-.034.015-.038.02-.034.014-.034.012-.034.011-.034.015-.034.02-.038.014-.034.015-.034.012-.034.015-.034.015-.034.015-.038.015-.038.012-.03.015-.038.019-.03.015-.038.011-.037.011-.03.015-.038.02-.03.014-.038.016-.03.01-.038.016-.038.019-.03.011-.038.015-.03.012-.038.015-.038.019-.03.015-.038.011-.03.015-.038.012-.03.019-.038.015-.038.015-.034.011-.034.015-.034.02-.034.014-.034.008-.038.015-.034.015-.034.019-.034.015-.034.011-.034.016-.038.015-.037.015-.03.015-.038.011-.03.015-.038.015-.038.02-.03.014-.038.012-.03.011-.038.015-.03.02-.038.014-.038.012-.03.015-.038.015-.03.019-.038.011-.038.011-.03.016-.038zm2.192.019h.775l.022.03.02.034.022.03.019.034.019.03.019.034.018.03.023.035.019.03.019.03.019.034.019.03.026.034.015.03.02.035.022.03.023.03.015.034.022.03.02.034.014.03.027.035.019.03.019.034.019.03.018.03.023.034.019.03.019.035.019.03.019.034.022.03.02.034.018.03.023-.03.015-.038.023-.026.022-.038.02-.026.014-.038.027-.027.019-.037.015-.027.023-.03.022-.038.02-.026.018-.038.019-.027.023-.037.018-.027.02-.038.018-.026.02-.03.022-.038.019-.027.019-.037.022-.027.02-.038.018-.026.023-.03.019-.038.022-.027.02-.037.018-.027.02-.038.022-.026.019-.038.019-.026h.782v2.789h-.734v-1.64l-.018.026-.023.038-.019.026-.023.03-.019.038-.022.027-.02.03-.022.038-.019.026-.019.03-.026.03-.019.039-.023.026-.019.03-.018.038-.023.026-.019.03-.023.038-.019.027-.022.03-.02.038-.018.026-.023.03-.019.038-.022.027-.023.03-.019.03-.019.038-.023.027-.022.03-.015.038-.027.026-.019.03-.022.038-.02.027h-.014l-.023-.034-.019-.03-.023-.035-.019-.03-.022-.034-.02-.03-.022-.034-.019-.03-.022-.034-.02-.03-.026-.035-.015-.03-.023-.034-.022-.03-.02-.034-.022-.03-.019-.038-.022-.03-.02-.034-.022-.03-.019-.035-.023-.03-.018-.034-.023-.03-.019-.034-.023-.03-.019-.034-.022-.03-.02-.035-.022-.03-.019-.034-.026-.03-.015-.034-.023-.03v1.644h-.725v-2.76zm3.47 0h2.199v.63h-1.47v.447h1.322v.593H15.21v.48h1.489v.631h-2.215v-2.759zm-5.318.854l-.015.038-.012.03-.015.038-.015.037-.011.034-.015.034-.016.038-.015.038-.011.03-.015.038-.015.03-.012.038-.015.038-.015.03-.011.038-.015.03-.015.038-.016.038-.01.03-.016.038-.015.038-.011.03-.016.038h.643l-.015-.038-.012-.034-.015-.038-.015-.034-.011-.034-.015-.034-.015-.038-.012-.034-.015-.034-.015-.034-.011-.034-.015-.038-.012-.034-.015-.034-.015-.034-.011-.034-.015-.037-.015-.038-.012-.03-.015-.038-.015-.038-.011-.034zm-1.15 5.223h8.013l-4.09 1.35z" />
</symbol>

<symbol id="facebook" fill-rule="evenodd" clip-rule="evenodd" stroke-linejoin="round" stroke-miterlimit="1.414">
  <path transform="scale(0.67)" d="M23.9981 11.9991C23.9981 5.37216 18.626 0 11.9991 0C5.37216 0 0 5.37216 0 11.9991C0 17.9882 4.38789 22.9522 10.1242 23.8524V15.4676H7.07758V11.9991H10.1242V9.35553C10.1242 6.34826 11.9156 4.68714 14.6564 4.68714C15.9692 4.68714 17.3424 4.92149 17.3424 4.92149V7.87439H15.8294C14.3388 7.87439 13.8739 8.79933 13.8739 9.74824V11.9991H17.2018L16.6698 15.4676H13.8739V23.8524C19.6103 22.9522 23.9981 17.9882 23.9981 11.9991Z" />
</symbol>

<symbol id="flickr" fill-rule="evenodd" clip-rule="evenodd" stroke-linejoin="round" stroke-miterlimit="1.414">
  <path transform="scale(0.67)" d="M0 12c0 3.074 2.494 5.564 5.565 5.564 3.075 0 5.569-2.49 5.569-5.564S8.641 6.436 5.565 6.436C2.495 6.436 0 8.926 0 12zm12.866 0c0 3.074 2.493 5.564 5.567 5.564C21.496 17.564 24 15.074 24 12s-2.492-5.564-5.564-5.564c-3.075 0-5.57 2.49-5.57 5.564z" />
</symbol>

<symbol id="gamejolt" fill-rule="evenodd" clip-rule="evenodd" stroke-linejoin="round" stroke-miterlimit="1.414">
  <path transform="scale(0.18)" d="M 27.199219 6.398438 L 27.199219 16.800781 L 22 16.800781 L 22 27.199219 L 16.800781 27.199219 L 16.800781 37.601562 L 11.601562 37.601562 L 11.601562 48 L 6.398438 48 L 6.398438 58.398438 L 37.601562 58.398438 L 37.601562 68.800781 L 32.398438 68.800781 L 32.398438 79.199219 L 27.199219 79.199219 L 27.199219 89.601562 L 32.398438 89.601562 L 32.398438 84.398438 L 37.601562 84.398438 L 37.601562 79.199219 L 42.800781 79.199219 L 42.800781 74 L 48 74 L 48 68.800781 L 53.199219 68.800781 L 53.199219 63.601562 L 58.398438 63.601562 L 58.398438 58.398438 L 63.601562 58.398438 L 63.601562 53.199219 L 68.800781 53.199219 L 68.800781 48 L 74 48 L 74 42.800781 L 79.199219 42.800781 L 79.199219 37.601562 L 84.398438 37.601562 L 84.398438 32.398438 L 68.800781 32.398438 L 68.800781 27.199219 L 74 27.199219 L 74 22 L 79.199219 22 L 79.199219 16.800781 L 84.398438 16.800781 L 84.398438 11.601562 L 89.601562 11.601562 L 89.601562 6.398438 Z M 27.199219 89.601562 L 22 89.601562 L 22 94.800781 L 27.199219 94.800781 Z M 32.398438 16.800781 L 68.800781 16.800781 L 68.800781 22 L 63.601562 22 L 63.601562 27.199219 L 58.398438 27.199219 L 58.398438 32.398438 L 53.199219 32.398438 L 53.199219 37.601562 L 48 37.601562 L 48 42.800781 L 53.199219 42.800781 L 53.199219 48 L 58.398438 48 L 58.398438 42.800781 L 63.601562 42.800781 L 63.601562 48 L 58.398438 48 L 58.398438 53.199219 L 53.199219 53.199219 L 53.199219 48 L 48 48 L 48 42.800781 L 42.800781 42.800781 L 42.800781 48 L 37.601562 48 L 37.601562 42.800781 L 32.398438 42.800781 L 32.398438 48 L 27.199219 48 L 27.199219 42.800781 L 22 42.800781 L 22 37.601562 L 27.199219 37.601562 L 27.199219 27.199219 L 32.398438 27.199219 Z M 27.199219 37.601562 L 27.199219 42.800781 L 32.398438 42.800781 L 32.398438 37.601562 Z M 37.601562 42.800781 L 42.800781 42.800781 L 42.800781 37.601562 L 37.601562 37.601562 Z M 37.601562 42.800781 " />
</symbol>

<symbol id="github" fill-rule="evenodd" clip-rule="evenodd" stroke-linejoin="round" stroke-miterlimit="1.414">
  <path transform="scale(0.67)" d="M12 .297c-6.63 0-12 5.373-12 12 0 5.303 3.438 9.8 8.205 11.385.6.113.82-.258.82-.577 0-.285-.01-1.04-.015-2.04-3.338.724-4.042-1.61-4.042-1.61C4.422 18.07 3.633 17.7 3.633 17.7c-1.087-.744.084-.729.084-.729 1.205.084 1.838 1.236 1.838 1.236 1.07 1.835 2.809 1.305 3.495.998.108-.776.417-1.305.76-1.605-2.665-.3-5.466-1.332-5.466-5.93 0-1.31.465-2.38 1.235-3.22-.135-.303-.54-1.523.105-3.176 0 0 1.005-.322 3.3 1.23.96-.267 1.98-.399 3-.405 1.02.006 2.04.138 3 .405 2.28-1.552 3.285-1.23 3.285-1.23.645 1.653.24 2.873.12 3.176.765.84 1.23 1.91 1.23 3.22 0 4.61-2.805 5.625-5.475 5.92.42.36.81 1.096.81 2.22 0 1.606-.015 2.896-.015 3.286 0 .315.21.69.825.57C20.565 22.092 24 17.592 24 12.297c0-6.627-5.373-12-12-12" />
</symbol>

<symbol id="gitlab" fill-rule="evenodd" clip-rule="evenodd" stroke-linejoin="round" stroke-miterlimit="1.414">
  <path transform="scale(0.67)" d="M23.955 13.587l-1.342-4.135-2.664-8.189c-.135-.423-.73-.423-.867 0L16.418 9.45H7.582L4.919 1.263C4.783.84 4.185.84 4.05 1.26L1.386 9.449.044 13.587c-.121.375.014.789.331 1.023L12 23.054l11.625-8.443c.318-.235.453-.647.33-1.024" />
</symbol>

<symbol id="gog-dot-com" fill-rule="evenodd" clip-rule="evenodd" stroke-linejoin="round" stroke-miterlimit="1.414">
  <path transform="scale(0.67)" d="M7.15 15.24H4.36a.4.4 0 0 0-.4.4v2c0 .21.18.4.4.4h2.8v1.32h-3.5c-.56 0-1.02-.46-1.02-1.03v-3.39c0-.56.46-1.02 1.03-1.02h3.48v1.32zM8.16 11.54c0 .58-.47 1.05-1.05 1.05H2.63v-1.35h3.78a.4.4 0 0 0 .4-.4V6.39a.4.4 0 0 0-.4-.4H4.39a.4.4 0 0 0-.41.4v2.02c0 .23.18.4.4.4H6v1.35H3.68c-.58 0-1.05-.46-1.05-1.04V5.68c0-.57.47-1.04 1.05-1.04H7.1c.58 0 1.05.47 1.05 1.04v5.86zM21.36 19.36h-1.32v-4.12h-.93a.4.4 0 0 0-.4.4v3.72h-1.33v-4.12h-.93a.4.4 0 0 0-.4.4v3.72h-1.33v-4.42c0-.56.46-1.02 1.03-1.02h5.61v5.44zM21.37 11.54c0 .58-.47 1.05-1.05 1.05h-4.48v-1.35h3.78a.4.4 0 0 0 .4-.4V6.39a.4.4 0 0 0-.4-.4h-2.03a.4.4 0 0 0-.4.4v2.02c0 .23.18.4.4.4h1.62v1.35H16.9c-.58 0-1.05-.46-1.05-1.04V5.68c0-.57.47-1.04 1.05-1.04h3.43c.58 0 1.05.47 1.05 1.04v5.86zM13.72 4.64h-3.44c-.58 0-1.04.47-1.04 1.04v3.44c0 .58.46 1.04 1.04 1.04h3.44c.57 0 1.04-.46 1.04-1.04V5.68c0-.57-.47-1.04-1.04-1.04m-.3 1.75v2.02a.4.4 0 0 1-.4.4h-2.03a.4.4 0 0 1-.4-.4V6.4c0-.22.17-.4.4-.4H13c.23 0 .4.18.4.4zM12.63 13.92H9.24c-.57 0-1.03.46-1.03 1.02v3.39c0 .57.46 1.03 1.03 1.03h3.39c.57 0 1.03-.46 1.03-1.03v-3.39c0-.56-.46-1.02-1.03-1.02m-.3 1.72v2a.4.4 0 0 1-.4.4v-.01H9.94a.4.4 0 0 1-.4-.4v-1.99c0-.22.18-.4.4-.4h2c.22 0 .4.18.4.4zM23.49 1.1a1.74 1.74 0 0 0-1.24-.52H1.75A1.74 1.74 0 0 0 0 2.33v19.34a1.74 1.74 0 0 0 1.75 1.75h20.5A1.74 1.74 0 0 0 24 21.67V2.33c0-.48-.2-.92-.51-1.24m0 20.58a1.23 1.23 0 0 1-1.24 1.24H1.75A1.23 1.23 0 0 1 .5 21.67V2.33a1.23 1.23 0 0 1 1.24-1.24h20.5a1.24 1.24 0 0 1 1.24 1.24v19.34z" />
</symbol>

<symbol id="gravatar" fill-rule="evenodd" clip-rule="evenodd" stroke-linejoin="round" stroke-miterlimit="1.414">
  <path transform="scale(0.67)" d="M12 0c-1.326 0-2.4 1.074-2.4 2.4v8.4c0 1.324 1.074 2.398 2.4 2.398s2.4-1.074 2.4-2.398V5.21c2.795.99 4.799 3.654 4.799 6.789 0 3.975-3.225 7.199-7.199 7.199S4.801 15.975 4.801 12c0-1.989.805-3.789 2.108-5.091.938-.938.938-2.458 0-3.396s-2.458-.938-3.396 0C1.344 5.686 0 8.686 0 12c0 6.627 5.373 12 12 12s12-5.373 12-12S18.627 0 12 0" />
</symbol>

<symbol id="hackerrank" fill-rule="evenodd" clip-rule="evenodd" stroke-linejoin="round" stroke-miterlimit="1.414">
  <path transform="scale(0.67)" d="M12 0c1.285 0 9.75 4.886 10.392 6 .645 1.115.645 10.885 0 12S13.287 24 12 24s-9.75-4.885-10.395-6c-.641-1.115-.641-10.885 0-12C2.25 4.886 10.715 0 12 0zm2.295 6.799c-.141 0-.258.115-.258.258v3.875H9.963V6.908h.701c.141 0 .254-.115.254-.258 0-.094-.049-.176-.123-.221L9.223 4.92c-.049-.063-.141-.109-.226-.109-.084 0-.16.045-.207.107L7.11 6.43c-.072.045-.12.126-.12.218 0 .143.113.258.255.258h.704l.008 10.035c0 .145.111.258.254.258h1.492c.142 0 .259-.115.259-.256v-4.004h4.073v4.152h-.699c-.143 0-.256.115-.256.258 0 .092.048.174.119.219l1.579 1.51c.044.061.141.109.225.109.085 0 .159-.045.208-.109l1.679-1.51c.072-.045.12-.127.12-.219 0-.143-.115-.258-.255-.258h-.704l-.007-10.034c0-.145-.114-.26-.255-.26h-1.494v.002z" />
</symbol>

<symbol id="instagram" fill-rule="evenodd" clip-rule="evenodd" stroke-linejoin="round" stroke-miterlimit="1.414">
  <path transform="scale(0.67)" d="M12 0C8.74 0 8.333.015 7.053.072 5.775.132 4.905.333 4.14.63c-.789.306-1.459.717-2.126 1.384S.935 3.35.63 4.14C.333 4.905.131 5.775.072 7.053.012 8.333 0 8.74 0 12s.015 3.667.072 4.947c.06 1.277.261 2.148.558 2.913.306.788.717 1.459 1.384 2.126.667.666 1.336 1.079 2.126 1.384.766.296 1.636.499 2.913.558C8.333 23.988 8.74 24 12 24s3.667-.015 4.947-.072c1.277-.06 2.148-.262 2.913-.558.788-.306 1.459-.718 2.126-1.384.666-.667 1.079-1.335 1.384-2.126.296-.765.499-1.636.558-2.913.06-1.28.072-1.687.072-4.947s-.015-3.667-.072-4.947c-.06-1.277-.262-2.149-.558-2.913-.306-.789-.718-1.459-1.384-2.126C21.319 1.347 20.651.935 19.86.63c-.765-.297-1.636-.499-2.913-.558C15.667.012 15.26 0 12 0zm0 2.16c3.203 0 3.585.016 4.85.071 1.17.055 1.805.249 2.227.415.562.217.96.477 1.382.896.419.42.679.819.896 1.381.164.422.36 1.057.413 2.227.057 1.266.07 1.646.07 4.85s-.015 3.585-.074 4.85c-.061 1.17-.256 1.805-.421 2.227-.224.562-.479.96-.899 1.382-.419.419-.824.679-1.38.896-.42.164-1.065.36-2.235.413-1.274.057-1.649.07-4.859.07-3.211 0-3.586-.015-4.859-.074-1.171-.061-1.816-.256-2.236-.421-.569-.224-.96-.479-1.379-.899-.421-.419-.69-.824-.9-1.38-.165-.42-.359-1.065-.42-2.235-.045-1.26-.061-1.649-.061-4.844 0-3.196.016-3.586.061-4.861.061-1.17.255-1.814.42-2.234.21-.57.479-.96.9-1.381.419-.419.81-.689 1.379-.898.42-.166 1.051-.361 2.221-.421 1.275-.045 1.65-.06 4.859-.06l.045.03zm0 3.678c-3.405 0-6.162 2.76-6.162 6.162 0 3.405 2.76 6.162 6.162 6.162 3.405 0 6.162-2.76 6.162-6.162 0-3.405-2.76-6.162-6.162-6.162zM12 16c-2.21 0-4-1.79-4-4s1.79-4 4-4 4 1.79 4 4-1.79 4-4 4zm7.846-10.405c0 .795-.646 1.44-1.44 1.44-.795 0-1.44-.646-1.44-1.44 0-.794.646-1.439 1.44-1.439.793-.001 1.44.645 1.44 1.439z" />
</symbol>

<symbol id="itch-dot-io" fill-rule="evenodd" clip-rule="evenodd" stroke-linejoin="round" stroke-miterlimit="1.414">
  <path transform="scale(0.67)" d="M3.129 1.338c-1.047 0.622-3.109 2.991-3.129 3.612v1.029c0 1.304 1.219 2.45 2.325 2.45 1.329 0 2.436-1.101 2.436-2.408 0 1.307 1.069 2.408 2.398 2.408s2.364-1.101 2.364-2.408c0 1.307 1.137 2.408 2.466 2.408h0.024c1.329 0 2.466-1.101 2.466-2.408 0 1.307 1.035 2.408 2.364 2.408s2.398-1.101 2.398-2.408c0 1.307 1.107 2.408 2.436 2.408 1.107 0 2.325-1.146 2.325-2.45v-1.029c-0.020-0.621-2.082-2.991-3.129-3.612-3.254-0.114-5.51-0.134-8.871-0.133s-7.945 0.053-8.871 0.133zM9.506 7.815c-0.133 0.23-0.288 0.428-0.467 0.601l-0.001 0.001c-0.502 0.49-1.189 0.794-1.947 0.794-0.001 0-0.002 0-0.003 0-0.759 0-1.447-0.303-1.949-0.795l0 0c-0.182-0.178-0.32-0.368-0.446-0.59l-0.001 0c-0.126 0.222-0.302 0.412-0.485 0.59-0.502 0.491-1.19 0.794-1.949 0.794-0.001 0-0.002 0-0.003 0h0c-0.091 0-0.186-0.025-0.263-0.052-0.107 1.112-0.152 2.175-0.168 2.95l-0 0.004c-0.002 0.394-0.004 0.717-0.006 1.167 0.021 2.334-0.231 7.564 1.029 8.849 1.953 0.455 5.546 0.663 9.151 0.664h0.001c3.605-0.001 7.198-0.209 9.151-0.664 1.26-1.285 1.008-6.516 1.029-8.849-0.002-0.45-0.004-0.773-0.006-1.167l-0-0.004c-0.016-0.775-0.061-1.838-0.168-2.95-0.077 0.026-0.172 0.052-0.263 0.052-0.001 0-0.002 0-0.002 0-0.759 0-1.447-0.303-1.949-0.795l0.001 0c-0.182-0.178-0.358-0.368-0.485-0.59l-0.001-0c-0.127 0.222-0.265 0.412-0.446 0.59-0.502 0.491-1.19 0.795-1.948 0.795-0.001 0-0.002 0-0.003 0h0c-0.758 0-1.445-0.304-1.947-0.795-0.179-0.174-0.334-0.372-0.461-0.589l-0.007-0.013c-0.132 0.23-0.286 0.428-0.463 0.602l-0 0c-0.502 0.491-1.19 0.795-1.949 0.795-0.001 0-0.002 0-0.003 0h0c-0.026 0-0.053-0.001-0.079-0.002h-0.001c-0.026 0.001-0.053 0.002-0.080 0.002-0.001 0-0.002 0-0.003 0-0.759 0-1.447-0.303-1.949-0.795l0.001 0c-0.178-0.174-0.331-0.372-0.456-0.589l-0.007-0.013zM7.502 10.406l-0 0.001h0.001c0.794 0.002 1.498 0 2.372 0.953 0.687-0.072 1.406-0.108 2.125-0.107h0.001c0.719-0.001 1.437 0.035 2.125 0.107 0.873-0.953 1.578-0.952 2.372-0.953h0.001l-0-0.001c0.375 0 1.875 0 2.92 2.935l1.122 4.026c0.832 2.995-0.266 3.069-1.636 3.071-2.031-0.076-3.156-1.551-3.156-3.026-1.124 0.184-2.436 0.276-3.748 0.276h-0.001c-1.312 0-2.624-0.092-3.748-0.276 0 1.475-1.125 2.95-3.156 3.026-1.37-0.003-2.468-0.076-1.636-3.071l1.123-4.026c1.045-2.935 2.545-2.935 2.92-2.935zM12 12.713v0.001c-0.002 0.002-2.138 1.964-2.523 2.662l1.399-0.056v1.22c0 0.057 0.561 0.034 1.123 0.008h0.001c0.562 0.026 1.123 0.049 1.123-0.008v-1.22l1.399 0.056c-0.384-0.698-2.523-2.662-2.523-2.662v-0.001l-0 0z" />
</symbol>

<symbol id="leetcode" fill-rule="evenodd" clip-rule="evenodd" stroke-linejoin="round" stroke-miterlimit="1.414">
  <path transform="scale(0.67)" d="M16.102 17.93l-2.697 2.607c-.466.467-1.111.662-1.823.662s-1.357-.195-1.824-.662l-4.332-4.363c-.467-.467-.702-1.15-.702-1.863s.235-1.357.702-1.824l4.319-4.38c.467-.467 1.125-.645 1.837-.645s1.357.195 1.823.662l2.697 2.606c.514.515 1.365.497 1.9-.038.535-.536.553-1.387.039-1.901l-2.609-2.636a5.055 5.055 0 0 0-2.445-1.337l2.467-2.503c.516-.514.498-1.366-.037-1.901-.535-.535-1.387-.552-1.902-.038l-10.1 10.101c-.981.982-1.494 2.337-1.494 3.835 0 1.498.513 2.895 1.494 3.875l4.347 4.361c.981.979 2.337 1.452 3.834 1.452s2.853-.512 3.835-1.494l2.609-2.637c.514-.514.496-1.365-.039-1.9s-1.386-.553-1.899-.039zM20.811 13.01H10.666c-.702 0-1.27.604-1.27 1.346s.568 1.346 1.27 1.346h10.145c.701 0 1.27-.604 1.27-1.346s-.569-1.346-1.27-1.346z" />
</symbol>

<symbol id="linkedin" fill-rule="evenodd" clip-rule="evenodd" stroke-linejoin="round" stroke-miterlimit="1.414">
  <path transform="scale(0.67)" d="M20.447 20.452h-3.554v-5.569c0-1.328-.027-3.037-1.852-3.037-1.853 0-2.136 1.445-2.136 2.939v5.667H9.351V9h3.414v1.561h.046c.477-.9 1.637-1.85 3.37-1.85 3.601 0 4.267 2.37 4.267 5.455v6.286zM5.337 7.433c-1.144 0-2.063-.926-2.063-2.065 0-1.138.92-2.063 2.063-2.063 1.14 0 2.064.925 2.064 2.063 0 1.139-.925 2.065-2.064 2.065zm1.782 13.019H3.555V9h3.564v11.452zM22.225 0H1.771C.792 0 0 .774 0 1.729v20.542C0 23.227.792 24 1.771 24h20.451C23.2 24 24 23.227 24 22.271V1.729C24 .774 23.2 0 22.222 0h.003z" />
</symbol>

<symbol id="mastodon" fill-rule="evenodd" clip-rule="evenodd" stroke-linejoin="round" stroke-miterlimit="1.414">
  <path transform="scale(0.67)" d="M23.193 7.879c0-5.206-3.411-6.732-3.411-6.732C18.062.357 15.108.025 12.041 0h-.076c-3.068.025-6.02.357-7.74 1.147 0 0-3.411 1.526-3.411 6.732 0 1.192-.023 2.618.015 4.129.124 5.092.934 10.109 5.641 11.355 2.17.574 4.034.695 5.535.612 2.722-.15 4.25-.972 4.25-.972l-.09-1.975s-1.945.613-4.129.539c-2.165-.074-4.449-.233-4.799-2.891a5.499 5.499 0 0 1-.048-.745s2.125.52 4.817.643c1.646.075 3.19-.097 4.758-.283 3.007-.359 5.625-2.212 5.954-3.905.517-2.665.475-6.507.475-6.507zm-4.024 6.709h-2.497V8.469c0-1.29-.543-1.944-1.628-1.944-1.2 0-1.802.776-1.802 2.312v3.349h-2.483v-3.35c0-1.536-.602-2.312-1.802-2.312-1.085 0-1.628.655-1.628 1.944v6.119H4.832V8.284c0-1.289.328-2.313.987-3.07.68-.758 1.569-1.146 2.674-1.146 1.278 0 2.246.491 2.886 1.474L12 6.585l.622-1.043c.64-.983 1.608-1.474 2.886-1.474 1.104 0 1.994.388 2.674 1.146.658.757.986 1.781.986 3.07v6.304z" />
</symbol>

<symbol id="pinterest" fill-rule="evenodd" clip-rule="evenodd" stroke-linejoin="round" stroke-miterlimit="1.414">
  <path transform="scale(0.67)" d="M12.017 0C5.396 0 .029 5.367.029 11.987c0 5.079 3.158 9.417 7.618 11.162-.105-.949-.199-2.403.041-3.439.219-.937 1.406-5.957 1.406-5.957s-.359-.72-.359-1.781c0-1.663.967-2.911 2.168-2.911 1.024 0 1.518.769 1.518 1.688 0 1.029-.653 2.567-.992 3.992-.285 1.193.6 2.165 1.775 2.165 2.128 0 3.768-2.245 3.768-5.487 0-2.861-2.063-4.869-5.008-4.869-3.41 0-5.409 2.562-5.409 5.199 0 1.033.394 2.143.889 2.741.099.12.112.225.085.345-.09.375-.293 1.199-.334 1.363-.053.225-.172.271-.401.165-1.495-.69-2.433-2.878-2.433-4.646 0-3.776 2.748-7.252 7.92-7.252 4.158 0 7.392 2.967 7.392 6.923 0 4.135-2.607 7.462-6.233 7.462-1.214 0-2.354-.629-2.758-1.379l-.749 2.848c-.269 1.045-1.004 2.352-1.498 3.146 1.123.345 2.306.535 3.55.535 6.607 0 11.985-5.365 11.985-11.987C23.97 5.39 18.592.026 11.985.026L12.017 0z" />
</symbol>

<symbol id="rss" fill-rule="evenodd" clip-rule="evenodd" stroke-linejoin="round" stroke-miterlimit="1.414">
  <path transform="scale(0.67)" d="M19.199 24C19.199 13.467 10.533 4.8 0 4.8V0c13.165 0 24 10.835 24 24h-4.801zM3.291 17.415c1.814 0 3.293 1.479 3.293 3.295 0 1.813-1.485 3.29-3.301 3.29C1.47 24 0 22.526 0 20.71s1.475-3.294 3.291-3.295zM15.909 24h-4.665c0-6.169-5.075-11.245-11.244-11.245V8.09c8.727 0 15.909 7.184 15.909 15.91z" />
</symbol>

<symbol id="steam" fill-rule="evenodd" clip-rule="evenodd" stroke-linejoin="round" stroke-miterlimit="1.414">
  <path transform="scale(0.67)" d="M11.979 0C5.678 0 .511 4.86.022 11.037l6.432 2.658c.545-.371 1.203-.59 1.912-.59.063 0 .125.004.188.006l2.861-4.142V8.91c0-2.495 2.028-4.524 4.524-4.524 2.494 0 4.524 2.031 4.524 4.527s-2.03 4.525-4.524 4.525h-.105l-4.076 2.911c0 .052.004.105.004.159 0 1.875-1.515 3.396-3.39 3.396-1.635 0-3.016-1.173-3.331-2.727L.436 15.27C1.862 20.307 6.486 24 11.979 24c6.627 0 11.999-5.373 11.999-12S18.605 0 11.979 0zM7.54 18.21l-1.473-.61c.262.543.714.999 1.314 1.25 1.297.539 2.793-.076 3.332-1.375.263-.63.264-1.319.005-1.949s-.75-1.121-1.377-1.383c-.624-.26-1.29-.249-1.878-.03l1.523.63c.956.4 1.409 1.5 1.009 2.455-.397.957-1.497 1.41-2.454 1.012H7.54zm11.415-9.303c0-1.662-1.353-3.015-3.015-3.015-1.665 0-3.015 1.353-3.015 3.015 0 1.665 1.35 3.015 3.015 3.015 1.663 0 3.015-1.35 3.015-3.015zm-5.273-.005c0-1.252 1.013-2.266 2.265-2.266 1.249 0 2.266 1.014 2.266 2.266 0 1.251-1.017 2.265-2.266 2.265-1.253 0-2.265-1.014-2.265-2.265z" />
</symbol>

<symbol id="twitch" fill-rule="evenodd" clip-rule="evenodd" stroke-linejoin="round" stroke-miterlimit="1.414">
  <path transform="scale(0.67)" d="M2.089 0L.525 4.175v16.694h5.736V24h3.132l3.127-3.132h4.695l6.26-6.258V0H2.089zm2.086 2.085H21.39v11.479l-3.652 3.652H12l-3.127 3.127v-3.127H4.175V2.085zM9.915 12.522H12v-6.26H9.915v6.26zm5.735 0h2.086v-6.26H15.65v6.26z" />
</symbol>

<symbol id="twitter" fill-rule="evenodd" clip-rule="evenodd" stroke-linejoin="round" stroke-miterlimit="1.414">
  <path transform="scale(0.67)" d="M23.954 4.569c-.885.389-1.83.654-2.825.775 1.014-.611 1.794-1.574 2.163-2.723-.951.555-2.005.959-3.127 1.184-.896-.959-2.173-1.559-3.591-1.559-2.717 0-4.92 2.203-4.92 4.917 0 .39.045.765.127 1.124C7.691 8.094 4.066 6.13 1.64 3.161c-.427.722-.666 1.561-.666 2.475 0 1.71.87 3.213 2.188 4.096-.807-.026-1.566-.248-2.228-.616v.061c0 2.385 1.693 4.374 3.946 4.827-.413.111-.849.171-1.296.171-.314 0-.615-.03-.916-.086.631 1.953 2.445 3.377 4.604 3.417-1.68 1.319-3.809 2.105-6.102 2.105-.39 0-.779-.023-1.17-.067 2.189 1.394 4.768 2.209 7.557 2.209 9.054 0 13.999-7.496 13.999-13.986 0-.209 0-.42-.015-.63.961-.689 1.8-1.56 2.46-2.548l-.047-.02z" />
</symbol>

<symbol id="youtube" fill-rule="evenodd" clip-rule="evenodd" stroke-linejoin="round" stroke-miterlimit="1.414">
  <path transform="scale(0.67)" d="M23.495 6.205a3.007 3.007 0 0 0-2.088-2.088c-1.87-.501-9.396-.501-9.396-.501s-7.507-.01-9.396.501A3.007 3.007 0 0 0 .527 6.205a31.247 31.247 0 0 0-.522 5.805 31.247 31.247 0 0 0 .522 5.783 3.007 3.007 0 0 0 2.088 2.088c1.868.502 9.396.502 9.396.502s7.506 0 9.396-.502a3.007 3.007 0 0 0 2.088-2.088 31.247 31.247 0 0 0 .5-5.783 31.247 31.247 0 0 0-.5-5.805zM9.609 15.601V8.408l6.264 3.602z" />
</symbol>

</svg>
