<svg xmlns="http://www.w3.org/2000/svg" xmlns:xlink="http://www.w3.org/1999/xlink">

<symbol id="atom" fill-rule="evenodd" clip-rule="evenodd" stroke-linejoin="round" stroke-miterlimit="1.414">
  <path transform="scale(0.67)" d="M20.496 9.026c-2.183-.93-5.116-1.53-8.25-1.695-.5-.03-.987-.04-1.45-.04 2.318-2.83 4.802-4.73 6.437-4.79.322-.013.595.055.813.196.706.458.905 1.768.545 3.59-.04.25.12.493.36.54.25.05.49-.11.54-.36.45-2.28.12-3.846-.94-4.538-.38-.248-.84-.365-1.35-.346-2.05.077-4.94 2.3-7.59 5.72-1.154.035-2.24.13-3.232.287-.646-2.897-.39-4.977.594-5.477.138-.073.285-.11.457-.124.697-.054 1.66.395 2.71 1.27.194.16.486.14.646-.06.163-.195.134-.48-.06-.645C9.466 1.51 8.304 1 7.354 1.07c-.286.025-.556.098-.803.22-1.19.607-1.67 2.327-1.37 4.838.07.52.16 1.062.29 1.62C2.19 8.404.1 9.718.01 11.372c-.06 1.17.865 2.284 2.68 3.222.224.115.502.03.62-.2.114-.224.03-.5-.2-.616C1.66 13.032.88 12.19.927 11.42c.05-1.08 1.772-2.19 4.76-2.78.27.994.62 2.032 1.05 3.09-1.018 1.888-1.756 3.747-2.137 5.4-.56 2.465-.26 4.22.86 4.948.36.234.78.35 1.247.35.935 0 2.067-.46 3.347-1.372.21-.15.256-.435.11-.64-.147-.206-.433-.256-.64-.106-1.544 1.103-2.844 1.472-3.562 1.003-.76-.495-.926-1.943-.46-3.976.32-1.386.907-2.93 1.708-4.52.2.438.41.876.63 1.313 1.425 2.796 3.17 5.227 4.91 6.845 1.386 1.29 2.674 1.963 3.735 1.963.35 0 .68-.075.976-.223 1.145-.585 1.64-2.21 1.398-4.575-.224-2.213-1.06-4.91-2.354-7.6-.11-.227-.384-.323-.61-.216-.23.11-.33.385-.22.612 2.69 5.602 2.88 10.19 1.37 10.96-1.59.813-5.424-2.355-8.39-8.18-.34-.655-.637-1.3-.9-1.93.34-.608.7-1.22 1.095-1.83.395-.604.806-1.188 1.224-1.745h.394c.54 0 1.126.01 1.734.048 6.53.343 10.975 2.56 10.884 4.334-.04.765-.924 1.538-2.425 2.12-.234.096-.352.36-.26.596.07.18.24.292.426.292.058 0 .114-.01.167-.03 1.905-.74 2.95-1.756 3.01-2.93.07-1.33-1.17-2.61-3.5-3.6v-.01zM8.08 9.45c-.27.415-.52.827-.764 1.244-.292-.768-.532-1.51-.723-2.215.713-.11 1.485-.19 2.31-.24-.28.39-.554.794-.82 1.21v-.01zM12.005 10.625A1.375 1.375 0 1 0 12.005 13.375 1.375 1.375 0 1 0 12.005 10.625z" />
</symbol>

<symbol id="eclipseide" fill-rule="evenodd" clip-rule="evenodd" stroke-linejoin="round" stroke-miterlimit="1.414">
  <path transform="scale(0.67)" d="M11.108.024c-.274.004-.604.012-.737.023C6.727.361 3.468 2.518 1.578 5.86A12.53 12.53 0 0 0 .02 11.112c-.04.517-.02 1.745.035 2.208.306 2.682 1.353 5.06 3.07 6.965 1.962 2.173 4.586 3.467 7.437 3.663.42.032 1.043.04 1.02.012a2.404 2.404 0 0 0-.338-.074c-1.674-.33-3.388-1.13-4.777-2.232a12.345 12.345 0 0 1-2.45-2.636A12.388 12.388 0 0 1 1.883 12.5a12.414 12.414 0 0 1 .56-4.275c.785-2.522 2.37-4.726 4.475-6.228A11.074 11.074 0 0 1 11.155.122l.443-.098zm1.475.51C10.645.65 8.806 1.299 7.3 2.4 5.425 3.77 3.994 5.644 3.22 7.746c-.145.397-.282.82-.282.879 0 .012 3.828.024 10.31.024 8.464 0 10.316-.008 10.316-.036 0-.047-.153-.525-.283-.878-.153-.42-.576-1.31-.82-1.722-.4-.683-.91-1.373-1.474-1.992-1.651-1.82-3.593-2.934-5.82-3.334-.785-.141-1.8-.2-2.585-.153zM23.83 9.97c-.02 0-4.792 0-10.609.004l-10.574.008-.011.059c-.036.16-.134 1.082-.134 1.243 0 .028 1.785.032 10.747.032H24v-.075c0-.102-.07-.792-.106-1.055-.02-.16-.04-.216-.063-.216zm-10.573 2.636c-9.37-.004-10.731 0-10.743.035-.02.04.024.557.075.973.02.157.035.298.035.314 0 .027 2.137.035 10.625.035h10.624l.024-.188c.043-.326.102-.97.094-1.067l-.008-.094zm.003 2.718c-8.883 0-10.322.004-10.322.035 0 .02.054.208.121.42a11.123 11.123 0 0 0 2.071 3.741c.282.342.945 1.036 1.228 1.287 1.568 1.4 3.247 2.216 5.18 2.53.605.094.887.113 1.75.11.91 0 1.298-.032 2.024-.177 2.11-.416 3.914-1.451 5.53-3.17 1.267-1.348 2.106-2.76 2.628-4.411l.117-.365z" />
</symbol>

<symbol id="intellijidea" fill-rule="evenodd" clip-rule="evenodd" stroke-linejoin="round" stroke-miterlimit="1.414">
  <path transform="scale(0.67)" d="M0 0v24h24V0zm3.723 3.111h5v1.834h-1.39v6.277h1.39v1.834h-5v-1.834h1.444V4.945H3.723zm11.055 0H17v6.5c0 .612-.055 1.111-.222 1.556-.167.444-.39.777-.723 1.11-.277.279-.666.557-1.11.668a3.933 3.933 0 0 1-1.445.278c-.778 0-1.444-.167-1.944-.445a4.81 4.81 0 0 1-1.279-1.056l1.39-1.555c.277.334.555.555.833.722.277.167.611.278.945.278.389 0 .721-.111 1-.389.221-.278.333-.667.333-1.278zM2.222 19.5h9V21h-9z" />
</symbol>

<symbol id="vim" fill-rule="evenodd" clip-rule="evenodd" stroke-linejoin="round" stroke-miterlimit="1.414">
  <path transform="scale(0.67)" d="M24 11.986h-.027l-4.318-4.318 4.303-4.414V1.461l-.649-.648h-8.198l-.66.605v1.045L12.015.027V0L12 .014 11.986 0v.027l-1.29 1.291-.538-.539H2.035l-.638.692v1.885l.616.616h.72v5.31L.027 11.987H0L.014 12 0 12.014h.027l2.706 2.706v6.467l.907.523h2.322l1.857-1.904 4.166 4.166V24l.015-.014.014.014v-.028l2.51-2.509h.485c.111 0 .211-.07.25-.179l.146-.426c.028-.084.012-.172-.037-.239l1.462-1.462-.612 1.962c-.043.141.036.289.177.332.025.008.052.012.078.012h1.824c.106-.001.201-.064.243-.163l.165-.394c.025-.065.024-.138-.004-.203-.027-.065-.08-.116-.146-.142-.029-.012-.062-.019-.097-.02h-.075l.84-2.644h1.232l-1.016 3.221c-.043.141.036.289.176.332.025.008.052.012.079.012h2.002c.11 0 .207-.066.248-.17l.164-.428c.051-.138-.021-.29-.158-.341-.029-.011-.06-.017-.091-.017h-.145l1.131-3.673c.027-.082.012-.173-.039-.24l-.375-.504-.003-.005c-.051-.064-.127-.102-.209-.102h-1.436c-.071 0-.141.03-.19.081l-.4.439h-.624l-.042-.046 4.445-4.445H24L23.986 12l.014-.014zM9.838 21.139l1.579-4.509h-.501l.297-.304h1.659l-1.563 4.555h.623l-.079.258H9.838zm3.695-7.516l.15.151-.269.922-.225.226h-.969l-.181-.181.311-.871.288-.247h.895zM5.59 20.829H3.877l-.262-.15V3.091H2.379l-.1-.1V1.815l.143-.154h7.371l.213.214v1.108l-.142.173H8.785v8.688l8.807-8.688h-2.086l-.175-.188V1.805l.121-.111h7.49l.132.133v1.07L12.979 13.25h-.373c-.015-.001-.028 0-.042.001l-.02.003c-.045.01-.086.03-.119.06l-.343.295-.004.003c-.033.031-.059.069-.073.111l-.296.83-6.119 6.276zm14.768-3.952l.474-.519h1.334l.309.415-1.265 4.107h.493l-.08.209H19.84l1.124-3.564h-2.015l-1.077 3.391h.424l-.073.174h-1.605l1.107-3.548h-2.096l-1.062 3.339h.436l-.072.209H13.27l1.514-4.46H14.198l.091-.271h1.65l.519.537h.906l.491-.554h1.061l.489.535h.953z" />
</symbol>

<symbol id="visualstudiocode" fill-rule="evenodd" clip-rule="evenodd" stroke-linejoin="round" stroke-miterlimit="1.414">
  <path transform="scale(0.67)" d="M23.15 2.587L18.21.21a1.494 1.494 0 0 0-1.705.29l-9.46 8.63-4.12-3.128a.999.999 0 0 0-1.276.057L.327 7.261A1 1 0 0 0 .326 8.74L3.899 12 .326 15.26a1 1 0 0 0 .001 1.479L1.65 17.94a.999.999 0 0 0 1.276.057l4.12-3.128 9.46 8.63a1.492 1.492 0 0 0 1.704.29l4.942-2.377A1.5 1.5 0 0 0 24 20.06V3.939a1.5 1.5 0 0 0-.85-1.352zm-5.146 14.861L10.826 12l7.178-5.448v10.896z" />
</symbol>

</svg>
