<svg xmlns="http://www.w3.org/2000/svg" xmlns:xlink="http://www.w3.org/1999/xlink">

<symbol id="plus" fill-rule="evenodd" clip-rule="evenodd" stroke-linejoin="round" stroke-miterlimit="1.414">
  <path transform="scale(0.009)" d="M1600 736v192q0 40-28 68t-68 28h-416v416q0 40-28 68t-68 28h-192q-40 0-68-28t-28-68v-416h-416q-40 0-68-28t-28-68v-192q0-40 28-68t68-28h416v-416q0-40 28-68t68-28h192q40 0 68 28t28 68v416h416q40 0 68 28t28 68z" />
</symbol>

<symbol id="plus-circle" fill-rule="evenodd" clip-rule="evenodd" stroke-linejoin="round" stroke-miterlimit="1.414">
  <path transform="scale(0.009)" d="M1344 960v-128q0-26-19-45t-45-19h-256v-256q0-26-19-45t-45-19h-128q-26 0-45 19t-19 45v256h-256q-26 0-45 19t-19 45v128q0 26 19 45t45 19h256v256q0 26 19 45t45 19h128q26 0 45-19t19-45v-256h256q26 0 45-19t19-45zm320-64q0 209-103 385.5t-279.5 279.5-385.5 103-385.5-103-279.5-279.5-103-385.5 103-385.5 279.5-279.5 385.5-103 385.5 103 279.5 279.5 103 385.5z" />
</symbol>

<symbol id="link" fill-rule="evenodd" clip-rule="evenodd" stroke-linejoin="round" stroke-miterlimit="1.414">
  <path transform="scale(0.009)" d="M1520 1216q0-40-28-68l-208-208q-28-28-68-28-42 0-72 32 3 3 19 18.5t21.5 21.5 15 19 13 25.5 3.5 27.5q0 40-28 68t-68 28q-15 0-27.5-3.5t-25.5-13-19-15-21.5-21.5-18.5-19q-33 31-33 73 0 40 28 68l206 207q27 27 68 27 40 0 68-26l147-146q28-28 28-67zm-703-705q0-40-28-68l-206-207q-28-28-68-28-39 0-68 27l-147 146q-28 28-28 67 0 40 28 68l208 208q27 27 68 27 42 0 72-31-3-3-19-18.5t-21.5-21.5-15-19-13-25.5-3.5-27.5q0-40 28-68t68-28q15 0 27.5 3.5t25.5 13 19 15 21.5 21.5 18.5 19q33-31 33-73zm895 705q0 120-85 203l-147 146q-83 83-203 83-121 0-204-85l-206-207q-83-83-83-203 0-123 88-209l-88-88q-86 88-208 88-120 0-204-84l-208-208q-84-84-84-204t85-203l147-146q83-83 203-83 121 0 204 85l206 207q83 83 83 203 0 123-88 209l88 88q86-88 208-88 120 0 204 84l208 208q84 84 84 204z" />
</symbol>

<symbol id="calendar" fill-rule="evenodd" clip-rule="evenodd" stroke-linejoin="round" stroke-miterlimit="1.414">
  <path transform="scale(0.009)" d="M192 1664h288v-288h-288v288zm352 0h320v-288h-320v288zm-352-352h288v-320h-288v320zm352 0h320v-320h-320v320zm-352-384h288v-288h-288v288zm736 736h320v-288h-320v288zm-384-736h320v-288h-320v288zm768 736h288v-288h-288v288zm-384-352h320v-320h-320v320zm-352-864v-288q0-13-9.5-22.5t-22.5-9.5h-64q-13 0-22.5 9.5t-9.5 22.5v288q0 13 9.5 22.5t22.5 9.5h64q13 0 22.5-9.5t9.5-22.5zm736 864h288v-320h-288v320zm-384-384h320v-288h-320v288zm384 0h288v-288h-288v288zm32-480v-288q0-13-9.5-22.5t-22.5-9.5h-64q-13 0-22.5 9.5t-9.5 22.5v288q0 13 9.5 22.5t22.5 9.5h64q13 0 22.5-9.5t9.5-22.5zm384-64v1280q0 52-38 90t-90 38h-1408q-52 0-90-38t-38-90v-1280q0-52 38-90t90-38h128v-96q0-66 47-113t113-47h64q66 0 113 47t47 113v96h384v-96q0-66 47-113t113-47h64q66 0 113 47t47 113v96h128q52 0 90 38t38 90z" />
</symbol>

<symbol id="tasks" fill-rule="evenodd" clip-rule="evenodd" stroke-linejoin="round" stroke-miterlimit="1.414">
  <path transform="scale(0.009)" d="M1024 1408h640v-128h-640v128zm-384-512h1024v-128h-1024v128zm640-512h384v-128h-384v128zm512 832v256q0 26-19 45t-45 19h-1664q-26 0-45-19t-19-45v-256q0-26 19-45t45-19h1664q26 0 45 19t19 45zm0-512v256q0 26-19 45t-45 19h-1664q-26 0-45-19t-19-45v-256q0-26 19-45t45-19h1664q26 0 45 19t19 45zm0-512v256q0 26-19 45t-45 19h-1664q-26 0-45-19t-19-45v-256q0-26 19-45t45-19h1664q26 0 45 19t19 45z" />
</symbol>

<symbol id="map-marker" fill-rule="evenodd" clip-rule="evenodd" stroke-linejoin="round" stroke-miterlimit="1.414">
  <path transform="scale(0.009)" d="M1152 640q0-106-75-181t-181-75-181 75-75 181 75 181 181 75 181-75 75-181zm256 0q0 109-33 179l-364 774q-16 33-47.5 52t-67.5 19-67.5-19-46.5-52l-365-774q-33-70-33-179 0-212 150-362t362-150 362 150 150 362z" />
</symbol>

<symbol id="history" fill-rule="evenodd" clip-rule="evenodd" stroke-linejoin="round" stroke-miterlimit="1.414">
  <path transform="scale(0.009)" d="M1664 896q0 156-61 298t-164 245-245 164-298 61q-172 0-327-72.5t-264-204.5q-7-10-6.5-22.5t8.5-20.5l137-138q10-9 25-9 16 2 23 12 73 95 179 147t225 52q104 0 198.5-40.5t163.5-109.5 109.5-163.5 40.5-198.5-40.5-198.5-109.5-163.5-163.5-109.5-198.5-40.5q-98 0-188 35.5t-160 101.5l137 138q31 30 14 69-17 40-59 40h-448q-26 0-45-19t-19-45v-448q0-42 40-59 39-17 69 14l130 129q107-101 244.5-156.5t284.5-55.5q156 0 298 61t245 164 164 245 61 298zm-640-288v448q0 14-9 23t-23 9h-320q-14 0-23-9t-9-23v-64q0-14 9-23t23-9h224v-352q0-14 9-23t23-9h64q14 0 23 9t9 23z" />
</symbol>

<symbol id="briefcase" fill-rule="evenodd" clip-rule="evenodd" stroke-linejoin="round" stroke-miterlimit="1.414">
  <path transform="scale(0.009)" d="M640 256h512v-128h-512v128zm1152 640v480q0 66-47 113t-113 47h-1472q-66 0-113-47t-47-113v-480h672v160q0 26 19 45t45 19h320q26 0 45-19t19-45v-160h672zm-768 0v128h-256v-128h256zm768-480v384h-1792v-384q0-66 47-113t113-47h352v-160q0-40 28-68t68-28h576q40 0 68 28t28 68v160h352q66 0 113 47t47 113z" />
</symbol>

<symbol id="times" fill-rule="evenodd" clip-rule="evenodd" stroke-linejoin="round" stroke-miterlimit="1.414">
  <path transform="scale(0.009)" d="M1490 1322q0 40-28 68l-136 136q-28 28-68 28t-68-28l-294-294-294 294q-28 28-68 28t-68-28l-136-136q-28-28-28-68t28-68l294-294-294-294q-28-28-28-68t28-68l136-136q28-28 68-28t68 28l294 294 294-294q28-28 68-28t68 28l136 136q28 28 28 68t-28 68l-294 294 294 294q28 28 28 68z" />
</symbol>

<symbol id="circle" fill-rule="evenodd" clip-rule="evenodd" stroke-linejoin="round" stroke-miterlimit="1.414">
  <path transform="scale(0.009)" d="M1664 896q0 209-103 385.5t-279.5 279.5-385.5 103-385.5-103-279.5-279.5-103-385.5 103-385.5 279.5-279.5 385.5-103 385.5 103 279.5 279.5 103 385.5z" />
</symbol>

<symbol id="angle-double-right" fill-rule="evenodd" clip-rule="evenodd" stroke-linejoin="round" stroke-miterlimit="1.414">
  <path transform="scale(0.009)" d="M979 960q0 13-10 23l-466 466q-10 10-23 10t-23-10l-50-50q-10-10-10-23t10-23l393-393-393-393q-10-10-10-23t10-23l50-50q10-10 23-10t23 10l466 466q10 10 10 23zm384 0q0 13-10 23l-466 466q-10 10-23 10t-23-10l-50-50q-10-10-10-23t10-23l393-393-393-393q-10-10-10-23t10-23l50-50q10-10 23-10t23 10l466 466q10 10 10 23z" />
</symbol>

<symbol id="industry" fill-rule="evenodd" clip-rule="evenodd" stroke-linejoin="round" stroke-miterlimit="1.414">
  <path transform="scale(0.009)" d="M448 0q26 0 45 19t19 45v891l536-429q17-14 40-14 26 0 45 19t19 45v379l536-429q17-14 40-14 26 0 45 19t19 45v1152q0 26-19 45t-45 19h-1664q-26 0-45-19t-19-45v-1664q0-26 19-45t45-19h384z" />
</symbol>

<symbol id="building" fill-rule="evenodd" clip-rule="evenodd" stroke-linejoin="round" stroke-miterlimit="1.414">
  <path transform="scale(0.009)" d="M1472 0q26 0 45 19t19 45v1664q0 26-19 45t-45 19h-1280q-26 0-45-19t-19-45v-1664q0-26 19-45t45-19h1280zm-832 288v64q0 14 9 23t23 9h64q14 0 23-9t9-23v-64q0-14-9-23t-23-9h-64q-14 0-23 9t-9 23zm0 256v64q0 14 9 23t23 9h64q14 0 23-9t9-23v-64q0-14-9-23t-23-9h-64q-14 0-23 9t-9 23zm0 256v64q0 14 9 23t23 9h64q14 0 23-9t9-23v-64q0-14-9-23t-23-9h-64q-14 0-23 9t-9 23zm0 256v64q0 14 9 23t23 9h64q14 0 23-9t9-23v-64q0-14-9-23t-23-9h-64q-14 0-23 9t-9 23zm-128 320v-64q0-14-9-23t-23-9h-64q-14 0-23 9t-9 23v64q0 14 9 23t23 9h64q14 0 23-9t9-23zm0-256v-64q0-14-9-23t-23-9h-64q-14 0-23 9t-9 23v64q0 14 9 23t23 9h64q14 0 23-9t9-23zm0-256v-64q0-14-9-23t-23-9h-64q-14 0-23 9t-9 23v64q0 14 9 23t23 9h64q14 0 23-9t9-23zm0-256v-64q0-14-9-23t-23-9h-64q-14 0-23 9t-9 23v64q0 14 9 23t23 9h64q14 0 23-9t9-23zm0-256v-64q0-14-9-23t-23-9h-64q-14 0-23 9t-9 23v64q0 14 9 23t23 9h64q14 0 23-9t9-23zm512 1280v-192q0-14-9-23t-23-9h-320q-14 0-23 9t-9 23v192q0 14 9 23t23 9h320q14 0 23-9t9-23zm0-512v-64q0-14-9-23t-23-9h-64q-14 0-23 9t-9 23v64q0 14 9 23t23 9h64q14 0 23-9t9-23zm0-256v-64q0-14-9-23t-23-9h-64q-14 0-23 9t-9 23v64q0 14 9 23t23 9h64q14 0 23-9t9-23zm0-256v-64q0-14-9-23t-23-9h-64q-14 0-23 9t-9 23v64q0 14 9 23t23 9h64q14 0 23-9t9-23zm0-256v-64q0-14-9-23t-23-9h-64q-14 0-23 9t-9 23v64q0 14 9 23t23 9h64q14 0 23-9t9-23zm256 1024v-64q0-14-9-23t-23-9h-64q-14 0-23 9t-9 23v64q0 14 9 23t23 9h64q14 0 23-9t9-23zm0-256v-64q0-14-9-23t-23-9h-64q-14 0-23 9t-9 23v64q0 14 9 23t23 9h64q14 0 23-9t9-23zm0-256v-64q0-14-9-23t-23-9h-64q-14 0-23 9t-9 23v64q0 14 9 23t23 9h64q14 0 23-9t9-23zm0-256v-64q0-14-9-23t-23-9h-64q-14 0-23 9t-9 23v64q0 14 9 23t23 9h64q14 0 23-9t9-23zm0-256v-64q0-14-9-23t-23-9h-64q-14 0-23 9t-9 23v64q0 14 9 23t23 9h64q14 0 23-9t9-23z" />
</symbol>

<symbol id="star" fill-rule="evenodd" clip-rule="evenodd" stroke-linejoin="round" stroke-miterlimit="1.414">
  <path transform="scale(0.009)" d="M1728 647q0 22-26 48l-363 354 86 500q1 7 1 20 0 21-10.5 35.5t-30.5 14.5q-19 0-40-12l-449-236-449 236q-22 12-40 12-21 0-31.5-14.5t-10.5-35.5q0-6 2-20l86-500-364-354q-25-27-25-48 0-37 56-46l502-73 225-455q19-41 49-41t49 41l225 455 502 73q56 9 56 46z" />
</symbol>

<symbol id="code-fork" fill-rule="evenodd" clip-rule="evenodd" stroke-linejoin="round" stroke-miterlimit="1.414">
  <path transform="scale(0.009)" d="M672 1472q0-40-28-68t-68-28-68 28-28 68 28 68 68 28 68-28 28-68zm0-1152q0-40-28-68t-68-28-68 28-28 68 28 68 68 28 68-28 28-68zm640 128q0-40-28-68t-68-28-68 28-28 68 28 68 68 28 68-28 28-68zm96 0q0 52-26 96.5t-70 69.5q-2 287-226 414-67 38-203 81-128 40-169.5 71t-41.5 100v26q44 25 70 69.5t26 96.5q0 80-56 136t-136 56-136-56-56-136q0-52 26-96.5t70-69.5v-820q-44-25-70-69.5t-26-96.5q0-80 56-136t136-56 136 56 56 136q0 52-26 96.5t-70 69.5v497q54-26 154-57 55-17 87.5-29.5t70.5-31 59-39.5 40.5-51 28-69.5 8.5-91.5q-44-25-70-69.5t-26-96.5q0-80 56-136t136-56 136 56 56 136z" />
</symbol>

</svg>
