<svg id="Layer_1" data-name="Layer 1" xmlns="http://www.w3.org/2000/svg" width="215" height="215" viewBox="0 0 165 215">
    <defs>
        <style>.cls-1,.cls-3{fill:#de4b3e;}.cls-1{fill-rule:evenodd;}.cls-2{fill:#231f20;}</style>
    </defs>
    <title>logo_illogika</title>
    <path class="cls-1" d="M90.54,31.15,4.65,45.6l7,88.21,45.13,50,85.38-32.5,10.58-93.89ZM34.83,134.32l8.77-2.57-.52-16.51-16.76,4.38L24,71.65,47.47,88.93,49,148.51Zm34.31,23.73V91.25L74.55,90l-.26-21.15L60.62,71.65,37.15,57.2l42.56-8.77L80,104.92l-5.68,1.29V123l11.61-3.36,29.15,22.7Zm57.26-29.14L94.41,107l1.81-55.19L114,60l-12.64,2.84-1,20.37,30.17-7.73Z"/>
</svg>